<svg xmlns="http://www.w3.org/2000/svg" viewBox="0 0 100 100">
  <circle cx="50" cy="50" r="50" fill="#4285F4"/>
  <path d="M78 51.5c0-2-0.2-3.8-0.5-5.6H50v10.6h15.7c-0.7 3.6-2.7 6.6-5.8 8.7v7.2h9.4C74.6 67.4 78 59.8 78 51.5z" fill="#fff"/>
  <path d="M50 80c8.1 0 14.9-2.7 19.8-7.3l-9.4-7.2c-2.7 1.8-6.1 2.9-10.4 2.9-8 0-14.8-5.4-17.2-12.7H23.2v7.5C28.2 73.2 38.4 80 50 80z" fill="#fff"/>
  <path d="M32.8 55.8c-0.6-1.8-1-3.7-1-5.8s0.4-4 1-5.8V36.7H23.2C21.2 40.7 20 45.2 20 50s1.2 9.3 3.2 13.3l9.6-7.5z" fill="#fff"/>
  <path d="M50 34.4c4.4 0 8.3 1.5 11.4 4.5l8.5-8.5C64.9 25.7 58.1 23 50 23c-11.6 0-21.8 6.8-26.8 16.7l9.6 7.5c2.4-7.3 9.2-12.8 17.2-12.8z" fill="#fff"/>
</svg>
