<?xml version="1.0" encoding="UTF-8"?>
<svg version="1.1" xmlns="http://www.w3.org/2000/svg" width="300" height="300">
<path d="M0 0 C99 0 198 0 300 0 C300 99 300 198 300 300 C201 300 102 300 0 300 C0 201 0 102 0 0 Z " fill="#FBFBFA" transform="translate(0,0)"/>
<path d="M0 0 C0.94875 0.20496094 1.8975 0.40992188 2.875 0.62109375 C30.76799765 7.14837954 55.67239548 28.42179344 70.6796875 52.11328125 C85.82913767 76.9501772 91.81265863 108.57851587 85.5637207 137.15673828 C77.38664611 169.38684514 58.66040963 196.54843078 29.97802734 213.87011719 C12.2942941 223.97136595 -8.39951104 229.41493416 -28.6875 229.3125 C-29.82799805 229.30831055 -30.96849609 229.30412109 -32.14355469 229.29980469 C-41.12237701 229.18022275 -49.30258609 228.23233624 -58 226 C-59.16015625 225.73316406 -60.3203125 225.46632813 -61.515625 225.19140625 C-88.79012568 218.31162749 -113.17145502 199.17339827 -128.1875 175.6875 C-143.94616924 148.92629912 -151.4145473 117.6011965 -143.9375 86.8125 C-135.8625185 56.17911896 -117.39604841 29.37145138 -90 13 C-62.40341602 -2.65948981 -31.02596564 -8.01752718 0 0 Z " fill="#F6DB00" transform="translate(179,37)"/>
<path d="M0 0 C2.34151301 0.26994887 4.67441799 0.61630236 7 1 C8.47000163 1.01880138 9.94075466 1.00304458 11.41015625 0.95703125 C12.17263672 0.93576172 12.93511719 0.91449219 13.72070312 0.89257812 C15.28624575 0.83904414 16.85143226 0.77387178 18.41601562 0.69726562 C23.93153618 0.5711699 26.44664592 1.68102683 31 5 C34.04484395 5.81778489 34.04484395 5.81778489 37.125 6.125 C42.62608662 6.81088612 42.62608662 6.81088612 45.03125 8.02734375 C47.53522694 9.2644276 49.59493208 9.30900947 52.375 9.4375 C62.36007302 10.25746626 67.33020279 15.63634141 73.65625 22.90234375 C75.64293006 25.42432371 76.92943366 27.4072427 77.3125 30.625 C74.7282436 35.30127349 69.51782772 37.35784212 64.75 39.375 C61.65456114 41.20412297 60.5422723 43.06791516 58.92578125 46.234375 C56.51118608 50.8394257 52.72686536 54.44647722 49 58 C48.43925781 58.55558594 47.87851563 59.11117187 47.30078125 59.68359375 C45.59013462 61.29033993 43.97941409 62.73750354 42 64 C39.0625 63.875 39.0625 63.875 37 63 C37 66.00846727 37.35750821 67.13032166 38.609375 69.765625 C38.95226562 70.49136719 39.29515625 71.21710938 39.6484375 71.96484375 C40.01195312 72.71894531 40.37546875 73.47304687 40.75 74.25 C41.09804687 74.98863281 41.44609375 75.72726563 41.8046875 76.48828125 C43.49330906 80.03438653 45.24876662 83.48275947 47.25 86.86328125 C48.99675295 89.99417996 49.4243314 91.49926596 49 95 C47.515 95.495 47.515 95.495 46 96 C36.93979529 90.54418108 31.31113353 80.31204843 27 71 C24.76032382 74.35951427 24.71989762 75.64331367 24.62109375 79.5859375 C24.58693359 80.68164062 24.55277344 81.77734375 24.51757812 82.90625 C24.49115234 84.0509375 24.46472656 85.195625 24.4375 86.375 C24.3773402 88.63291248 24.31366584 90.89073468 24.24609375 93.1484375 C24.21020142 94.65156494 24.21020142 94.65156494 24.17358398 96.18505859 C24.00755048 98.8775569 23.59657586 101.37266186 23 104 C23.66 104 24.32 104 25 104 C26.09315246 108.5838914 26.32282625 113.12511007 26.5625 117.8125 C26.60568359 118.60076172 26.64886719 119.38902344 26.69335938 120.20117188 C26.79878321 122.13394215 26.89983094 124.06695026 27 126 C28.09315246 121.4161086 28.32282625 116.87488993 28.5625 112.1875 C28.60568359 111.39923828 28.64886719 110.61097656 28.69335938 109.79882812 C28.79878321 107.86605785 28.89983094 105.93304974 29 104 C30.98 104 32.96 104 35 104 C34.38067281 123.39134783 32.69645819 142.67984684 31 162 C29.34385343 162.38218767 27.67542976 162.71395102 26 163 C24.49006559 161.49006559 24.67260774 160.01548536 24.44335938 157.91088867 C24.34655884 157.04296188 24.2497583 156.1750351 24.15002441 155.2808075 C23.99841858 153.86370232 23.99841858 153.86370232 23.84375 152.41796875 C23.7365564 151.45224442 23.62936279 150.48652008 23.5189209 149.49153137 C23.17514941 146.39062682 22.83713914 143.28913214 22.5 140.1875 C22.16230948 137.09664703 21.82333869 134.00595413 21.4810791 130.91560364 C21.26790633 128.98938815 21.05744765 127.06286995 20.84997559 125.1360321 C20.75317505 124.25864883 20.65637451 123.38126556 20.55664062 122.47729492 C20.47305298 121.7075383 20.38946533 120.93778168 20.30334473 120.1446991 C20.00615444 118.04351294 19.55363706 116.04713875 19 114 C15.09659054 119.69247213 15.05368353 126.28300857 16 133 C17.485 133.99 17.485 133.99 19 135 C19.40843923 137.71203652 19.13336867 140.2437142 19 143 C18.01 143.33 17.02 143.66 16 144 C16.165 144.99 16.33 145.98 16.5 147 C17.21356102 152.18381091 17.72087583 156.9645859 15.9375 162 C14 164 14 164 10.3125 164.3125 C8.6728125 164.1578125 8.6728125 164.1578125 7 164 C2.64425743 157.25562441 2.4223825 151.21596781 2.17578125 143.4140625 C2.23564342 140.13742753 2.23564342 140.13742753 1 138 C0.76567375 133.91384719 0.77160036 129.82599614 0.75976562 125.73364258 C0.75008577 123.70547061 0.71907468 121.67832358 0.6875 119.65039062 C0.67976563 117.72549805 0.67976563 117.72549805 0.671875 115.76171875 C0.6625293 114.58569092 0.65318359 113.40966309 0.64355469 112.19799805 C1.03658676 108.67174659 1.7856809 106.75946708 4 104 C4.99 104 5.98 104 7 104 C5.95676241 92.28286532 4.83639694 80.62400192 3 69 C2.34 69 1.68 69 1 69 C0.90074219 69.71414062 0.80148438 70.42828125 0.69921875 71.1640625 C-1.09002872 78.42101035 -7.20689983 87.18001902 -13 92 C-16.375 92.9375 -16.375 92.9375 -19 93 C-19.47829963 87.73870408 -17.98666567 84.57873207 -15.25 80.25 C-10.39179074 72.16578617 -7.05113187 64.23009341 -5 55 C-8.06399866 55.66970511 -8.06399866 55.66970511 -9.16796875 57.84765625 C-9.50441406 58.57855469 -9.84085938 59.30945313 -10.1875 60.0625 C-10.53167969 60.79597656 -10.87585938 61.52945313 -11.23046875 62.28515625 C-11.48441406 62.85105469 -11.73835938 63.41695312 -12 64 C-14.3125 64.25 -14.3125 64.25 -17 64 C-19.35703611 61.73361912 -20.1729988 59.55963942 -21.375 56.5 C-23.1639657 52.64684311 -24.45260669 51.25743211 -28 49 C-29.175625 48.62875 -30.35125 48.2575 -31.5625 47.875 C-35.4494808 45.75482865 -35.45492891 45.44671752 -36.6875 41.5 C-38.59111519 35.6262324 -42.22994501 32.64101394 -47.02416992 29.01953125 C-48.61328125 27.73828125 -48.61328125 27.73828125 -51 25 C-51.16321312 20.84713292 -50.79423332 18.88093326 -47.99609375 15.77734375 C-47.15175781 15.17019531 -46.30742188 14.56304687 -45.4375 13.9375 C-44.52742188 13.27621094 -43.61734375 12.61492187 -42.6796875 11.93359375 C-41.79539062 11.29550781 -40.91109375 10.65742187 -40 10 C-38.98292969 9.08927734 -38.98292969 9.08927734 -37.9453125 8.16015625 C-33.17715406 3.95586717 -29.82418426 3.5359127 -23.54296875 3.92578125 C-20.37756308 4.01816636 -17.96550412 3.03447818 -15 2 C-11.20942419 2.30324606 -8.29124651 3.10120394 -5 5 C-4.319375 4.154375 -3.63875 3.30875 -2.9375 2.4375 C-1.968125 1.633125 -0.99875 0.82875 0 0 Z " fill="#0B0A03" transform="translate(137,87)"/>
<path d="M0 0 C5.37140473 2.49386648 10.69492433 5.95482344 13.08984375 11.54296875 C13.36957031 12.41566406 13.64929688 13.28835937 13.9375 14.1875 C15.16317251 17.8878696 15.16317251 17.8878696 18.0625 20.31640625 C19.63656156 20.93515742 21.22156749 21.52680544 22.81640625 22.08984375 C27.59401607 24.08122673 29.79929452 28.28266493 31.8125 32.875 C32.4003125 34.421875 32.4003125 34.421875 33 36 C34.65 36 36.3 36 38 36 C39.32 33.36 40.64 30.72 42 28 C42.99 28 43.98 28 45 28 C43.90987629 38.90123711 39.18858221 47.75463545 33.625 57 C31.95457146 60.08386808 31.33866834 62.52864947 31 66 C39.02818098 63.95025167 42.70478706 57.71645267 47 51 C48.53973772 48.06050072 49.873207 45.12034985 51 42 C51.66 42 52.32 42 53 42 C55.67016109 53.95694778 57.16834748 64.72933905 57 77 C56.04867187 77.30550781 56.04867187 77.30550781 55.078125 77.6171875 C52.70935435 78.87221871 52.70935435 78.87221871 52.171875 81.8203125 C52.03265625 82.91085938 51.8934375 84.00140625 51.75 85.125 C51.60046875 86.22070312 51.4509375 87.31640625 51.296875 88.4453125 C51.19890625 89.28835937 51.1009375 90.13140625 51 91 C50.67 91 50.34 91 50 91 C49.896875 89.741875 49.79375 88.48375 49.6875 87.1875 C49.29682624 83.88134795 49.29682624 83.88134795 47.5 81.125 C47.005 80.75375 46.51 80.3825 46 80 C45.67 79.34 45.34 78.68 45 78 C42.12586875 77.66602213 42.12586875 77.66602213 39 78 C36.10665366 80.92888906 35.61202419 83.16835965 35.5234375 87.2109375 C35.4925 88.20867187 35.4615625 89.20640625 35.4296875 90.234375 C35.41164062 91.27078125 35.39359375 92.3071875 35.375 93.375 C35.0600063 105.94324864 35.0600063 105.94324864 34 111 C33.34 111 32.68 111 32 111 C32.165 111.99 32.33 112.98 32.5 114 C33.08474517 118.02732942 33.07132024 121.93474623 33 126 C32.67 124.68 32.34 123.36 32 122 C31.34 122 30.68 122 30 122 C29.99742188 120.87722656 29.99484375 119.75445312 29.9921875 118.59765625 C29.82933604 110.36399705 29.70879815 104.75986148 24.30078125 98.203125 C21.75589581 93.89286858 22.5584656 88.8323487 23 84 C23.66 84 24.32 84 25 84 C25 86.64 25 89.28 25 92 C26.98 91.01 26.98 91.01 29 90 C29.05395478 88.37536158 29.09277195 86.75021459 29.125 85.125 C29.14820313 84.22007812 29.17140625 83.31515625 29.1953125 82.3828125 C29.24324836 79.81193006 29.24324836 79.81193006 27 78 C23.91652174 77.83318891 23.91652174 77.83318891 21 78 C17.26342507 83.60486239 16.94203423 89.41436814 18 96 C19.30876549 98.76612531 19.30876549 98.76612531 21 101.375 C24.97275113 107.7444578 24.57546922 113.7000664 24 121 C23.01 120.67 22.02 120.34 21 120 C21 116.37 21 112.74 21 109 C18.525 109.99 18.525 109.99 16 111 C15.67 111.99 15.34 112.98 15 114 C14.34 114 13.68 114 13 114 C13 101.79 13 89.58 13 77 C11.02 77 9.04 77 7 77 C7.00785522 77.98057373 7.00785522 77.98057373 7.01586914 78.98095703 C7.2295902 109.75137948 7.2295902 109.75137948 5 120 C4.67 120 4.34 120 4 120 C1.84203022 111.52577502 1.60476224 103.14240855 1.4375 94.4375 C1.37968228 91.72764997 1.31433636 89.0182267 1.24609375 86.30859375 C1.22216553 85.12064209 1.1982373 83.93269043 1.17358398 82.70874023 C1.30480933 80.08466312 1.30480933 80.08466312 0 79 C0.04769531 78.28972656 0.09539062 77.57945312 0.14453125 76.84765625 C-0.10126565 72.00479307 -2.87152456 68.23717244 -5.17578125 64.05859375 C-9.65961048 54.88437286 -10.52957697 45.19507636 -10.4375 35.125 C-10.42940308 33.4219873 -10.42940308 33.4219873 -10.42114258 31.68457031 C-10.22154493 20.66173079 -8.0798275 11.83943665 -3 2 C-2.01 2 -1.02 2 0 2 C0 1.34 0 0.68 0 0 Z " fill="#E6CD00" transform="translate(87,114)"/>
<path d="M0 0 C1.42505859 0.04157227 1.42505859 0.04157227 2.87890625 0.08398438 C9.80574519 0.4298392 9.80574519 0.4298392 13.1015625 2.83984375 C14.5 4.9375 14.5 4.9375 15.375 7.4375 C16.92482591 10.88155758 19.36589744 11.96165273 22.5 13.9375 C22.5 14.5975 22.5 15.2575 22.5 15.9375 C20.85 15.6075 19.2 15.2775 17.5 14.9375 C17.17 15.9275 16.84 16.9175 16.5 17.9375 C17.11875 18.72125 17.7375 19.505 18.375 20.3125 C21.80876147 25.02199924 21.72578685 31.3003549 21.5 36.9375 C20.84 37.9275 20.18 38.9175 19.5 39.9375 C19.04084493 42.90592658 19.04084493 42.90592658 18.875 46.125 C18.80023438 47.21167969 18.72546875 48.29835937 18.6484375 49.41796875 C18.57496094 50.66513672 18.57496094 50.66513672 18.5 51.9375 C17.51 51.9375 16.52 51.9375 15.5 51.9375 C14.14721885 49.95060269 12.81431695 47.95004782 11.5 45.9375 C10.015 45.4425 10.015 45.4425 8.5 44.9375 C9.16 45.535625 9.82 46.13375 10.5 46.75 C12.5 48.9375 12.5 48.9375 12.5 51.9375 C11.51 52.4325 11.51 52.4325 10.5 52.9375 C11.49 54.9175 11.49 54.9175 12.5 56.9375 C7.55 57.4325 7.55 57.4325 2.5 57.9375 C2.5 58.5975 2.5 59.2575 2.5 59.9375 C4.81 60.2675 7.12 60.5975 9.5 60.9375 C9.5 61.9275 9.5 62.9175 9.5 63.9375 C8.015 63.4425 8.015 63.4425 6.5 62.9375 C6.5 63.5975 6.5 64.2575 6.5 64.9375 C7.82 64.9375 9.14 64.9375 10.5 64.9375 C10.5 65.5975 10.5 66.2575 10.5 66.9375 C8.85 67.2675 7.2 67.5975 5.5 67.9375 C7.48 68.4325 7.48 68.4325 9.5 68.9375 C9.5 74.9375 9.5 80.9375 9.5 86.9375 C9.8062434 88.27731486 10.13451555 89.61261887 10.5 90.9375 C9.84 90.9375 9.18 90.9375 8.5 90.9375 C9.49 92.4225 9.49 92.4225 10.5 93.9375 C10.4765625 96.41796875 10.4765625 96.41796875 10.125 99.125 C10.01414062 100.02605469 9.90328125 100.92710937 9.7890625 101.85546875 C9.69367188 102.54253906 9.59828125 103.22960937 9.5 103.9375 C7.85 104.5975 6.2 105.2575 4.5 105.9375 C4.5 106.5975 4.5 107.2575 4.5 107.9375 C5.985 108.4325 5.985 108.4325 7.5 108.9375 C6.51 110.9175 5.52 112.8975 4.5 114.9375 C3.84 114.9375 3.18 114.9375 2.5 114.9375 C2.39042969 114.33421875 2.28085938 113.7309375 2.16796875 113.109375 C1.28331609 108.65015023 0.572371 105.42883069 -2.5 101.9375 C-2.5 101.2775 -2.5 100.6175 -2.5 99.9375 C-1.51 99.2775 -0.52 98.6175 0.5 97.9375 C-0.16 95.9575 -0.82 93.9775 -1.5 91.9375 C0.48 90.9475 0.48 90.9475 2.5 89.9375 C1.18 89.9375 -0.14 89.9375 -1.5 89.9375 C-0.84 88.6175 -0.18 87.2975 0.5 85.9375 C-0.16 85.9375 -0.82 85.9375 -1.5 85.9375 C-2.16 85.9375 -2.82 85.9375 -3.5 85.9375 C-3.190625 85.36 -2.88125 84.7825 -2.5625 84.1875 C-1.41850217 82.02069538 -1.41850217 82.02069538 -1.125 79.8125 C-0.5 77.9375 -0.5 77.9375 1.5625 76.6875 C2.201875 76.44 2.84125 76.1925 3.5 75.9375 C2.365625 76.123125 1.23125 76.30875 0.0625 76.5 C-1.7009375 76.7165625 -1.7009375 76.7165625 -3.5 76.9375 C-4.5 75.9375 -4.5 75.9375 -4.75 73.5 C-4.6675 72.654375 -4.585 71.80875 -4.5 70.9375 C-3.51 70.2775 -2.52 69.6175 -1.5 68.9375 C-2.49 67.9475 -2.49 67.9475 -3.5 66.9375 C-2.51 65.9475 -1.52 64.9575 -0.5 63.9375 C-2.48 62.9475 -4.46 61.9575 -6.5 60.9375 C-6.5 60.2775 -6.5 59.6175 -6.5 58.9375 C-4.19 58.6075 -1.88 58.2775 0.5 57.9375 C0.5 57.2775 0.5 56.6175 0.5 55.9375 C-1.48 55.9375 -3.46 55.9375 -5.5 55.9375 C-4.87240135 53.00870629 -3.91377341 50.57654371 -2.5 47.9375 C-3.82 46.9475 -5.14 45.9575 -6.5 44.9375 C-5.51 43.9475 -4.52 42.9575 -3.5 41.9375 C-6.43200474 44.79026137 -9.14315404 47.58829784 -11.5 50.9375 C-14.67548933 49.34975534 -15.22100917 46.59323026 -16.5703125 43.421875 C-18.00943643 38.02818362 -17.51240832 32.73350944 -17.24609375 27.19335938 C-17.07682727 21.78378568 -17.07682727 21.78378568 -19.4453125 17.00390625 C-20.12335938 16.32199219 -20.80140625 15.64007813 -21.5 14.9375 C-21.995 13.4525 -21.995 13.4525 -22.5 11.9375 C-23.53447266 11.98970703 -23.53447266 11.98970703 -24.58984375 12.04296875 C-31.18519186 12.2329582 -36.40334573 11.46648251 -42.5 8.9375 C-42.17 9.9275 -41.84 10.9175 -41.5 11.9375 C-39.48491642 12.67073796 -39.48491642 12.67073796 -37.5 12.9375 C-37.5 13.5975 -37.5 14.2575 -37.5 14.9375 C-38.49 14.9375 -39.48 14.9375 -40.5 14.9375 C-40.17 15.5975 -39.84 16.2575 -39.5 16.9375 C-36.52206665 16.51208095 -34.57469165 15.98418228 -32 14.375 C-29.18670065 12.75735288 -27.69042847 12.50636102 -24.5 12.9375 C-23.84 13.5975 -23.18 14.2575 -22.5 14.9375 C-22.875 17.0625 -22.875 17.0625 -23.5 18.9375 C-24.49 18.9375 -25.48 18.9375 -26.5 18.9375 C-26.5 19.5975 -26.5 20.2575 -26.5 20.9375 C-25.71625 21.02 -24.9325 21.1025 -24.125 21.1875 C-21.5 21.9375 -21.5 21.9375 -20.1875 24 C-19.960625 24.639375 -19.73375 25.27875 -19.5 25.9375 C-22.51031744 26.87173645 -23.36650268 26.98199911 -26.5 25.9375 C-26.5 26.5975 -26.5 27.2575 -26.5 27.9375 C-25.18 28.5975 -23.86 29.2575 -22.5 29.9375 C-22.5 30.5975 -22.5 31.2575 -22.5 31.9375 C-24.48 32.4325 -24.48 32.4325 -26.5 32.9375 C-26.5 33.9275 -26.5 34.9175 -26.5 35.9375 C-24.52 35.4425 -24.52 35.4425 -22.5 34.9375 C-22.726875 35.845 -22.95375 36.7525 -23.1875 37.6875 C-23.86877597 40.89761151 -23.86877597 40.89761151 -22.0625 42.8125 C-20.11597887 45.45976873 -20.02555243 47.59158512 -20.12890625 50.83203125 C-20.76060668 54.41610003 -22.49505619 56.93008428 -24.5 59.9375 C-25.82 59.9375 -27.14 59.9375 -28.5 59.9375 C-28.70753906 59.35742188 -28.91507813 58.77734375 -29.12890625 58.1796875 C-31.44749275 52.30076106 -34.1127079 48.3535584 -39.5 44.9375 C-40.34304687 44.67066406 -41.18609375 44.40382812 -42.0546875 44.12890625 C-45.40654931 42.49581064 -45.81716816 40.72752256 -47.1875 37.3125 C-49.9152183 31.3344297 -53.08586171 28.33885666 -58.5234375 24.75390625 C-60.5 22.9375 -60.5 22.9375 -61.1796875 20.56640625 C-60.15293254 16.59510691 -57.35701755 14.73424387 -54.25 12.3125 C-53.66347656 11.83554688 -53.07695313 11.35859375 -52.47265625 10.8671875 C-51.33331382 9.94547228 -50.18523452 9.03443053 -49.02783203 8.13549805 C-47.7907868 7.16551067 -46.5951862 6.14282271 -45.4140625 5.10546875 C-42.84699216 3.53903195 -41.10210267 3.70404592 -38.125 3.875 C-33.72315058 4.01529799 -30.66877985 3.39172553 -26.5 1.9375 C-21.08333333 2.35416667 -21.08333333 2.35416667 -18.5 4.9375 C-18.5 5.9275 -18.5 6.9175 -18.5 7.9375 C-17.84 7.9375 -17.18 7.9375 -16.5 7.9375 C-16.2525 7.174375 -16.005 6.41125 -15.75 5.625 C-12.45232075 -1.4650104 -6.79889095 -0.3920663 0 0 Z " fill="#F4F4F4" transform="translate(148.5,89.0625)"/>
<path d="M0 0 C0.94875 0.20496094 1.8975 0.40992188 2.875 0.62109375 C30.76799765 7.14837954 55.67239548 28.42179344 70.6796875 52.11328125 C85.82913767 76.9501772 91.81265863 108.57851587 85.5637207 137.15673828 C77.38664611 169.38684514 58.66040963 196.54843078 29.97802734 213.87011719 C12.2942941 223.97136595 -8.39951104 229.41493416 -28.6875 229.3125 C-29.82799805 229.30831055 -30.96849609 229.30412109 -32.14355469 229.29980469 C-41.12237701 229.18022275 -49.30258609 228.23233624 -58 226 C-59.16015625 225.73316406 -60.3203125 225.46632813 -61.515625 225.19140625 C-88.79012568 218.31162749 -113.17145502 199.17339827 -128.1875 175.6875 C-143.94616924 148.92629912 -151.4145473 117.6011965 -143.9375 86.8125 C-135.8625185 56.17911896 -117.39604841 29.37145138 -90 13 C-62.40341602 -2.65948981 -31.02596564 -8.01752718 0 0 Z M-112.375 37.0625 C-134.14541328 59.60717484 -141.79604922 89.79493455 -141.33984375 120.19921875 C-140.69173497 147.78534485 -127.41046742 173.84161657 -108 193 C-107.19949219 193.79921875 -106.39898437 194.5984375 -105.57421875 195.421875 C-82.78136977 217.05829465 -53.44112216 225.14882583 -22.62890625 225.03125 C-13.42893293 224.64183314 -4.785649 222.60928852 4 220 C5.16273438 219.66226563 6.32546875 219.32453125 7.5234375 218.9765625 C23.05086428 213.96656896 36.12041268 204.98577432 48 194 C49.21236328 192.90945312 49.21236328 192.90945312 50.44921875 191.796875 C65.64781043 177.47359488 75.28400859 158.17396326 80 138 C80.21140625 137.17242187 80.4228125 136.34484375 80.640625 135.4921875 C86.55592658 111.23945102 82.22020978 84.98935586 71 63 C70.54882812 62.07703125 70.09765625 61.1540625 69.6328125 60.203125 C56.34824458 34.23442161 32.66306649 15.55413346 5.25390625 6.34765625 C3.83719868 5.89447579 2.41937521 5.44475486 1 5 C-0.36898437 4.54753906 -0.36898437 4.54753906 -1.765625 4.0859375 C-42.42199293 -7.54843194 -83.10398781 9.09367984 -112.375 37.0625 Z " fill="#FAE106" transform="translate(179,37)"/>
<path d="M0 0 C0.66 0 1.32 0 2 0 C4.67016109 11.95694778 6.16834748 22.72933905 6 35 C5.36578125 35.20367187 4.7315625 35.40734375 4.078125 35.6171875 C1.70935435 36.87221871 1.70935435 36.87221871 1.171875 39.8203125 C1.03265625 40.91085938 0.8934375 42.00140625 0.75 43.125 C0.60046875 44.22070312 0.4509375 45.31640625 0.296875 46.4453125 C0.19890625 47.28835937 0.1009375 48.13140625 0 49 C-0.33 49 -0.66 49 -1 49 C-1.1546875 47.1128125 -1.1546875 47.1128125 -1.3125 45.1875 C-1.70317376 41.88134795 -1.70317376 41.88134795 -3.5 39.125 C-3.995 38.75375 -4.49 38.3825 -5 38 C-5.33 37.34 -5.66 36.68 -6 36 C-8.87413125 35.66602213 -8.87413125 35.66602213 -12 36 C-14.89334634 38.92888906 -15.38797581 41.16835965 -15.4765625 45.2109375 C-15.52296875 46.70753906 -15.52296875 46.70753906 -15.5703125 48.234375 C-15.58835938 49.27078125 -15.60640625 50.3071875 -15.625 51.375 C-15.9399937 63.94324864 -15.9399937 63.94324864 -17 69 C-17.66 69 -18.32 69 -19 69 C-18.835 69.99 -18.67 70.98 -18.5 72 C-17.91525483 76.02732942 -17.92867976 79.93474623 -18 84 C-18.33 82.68 -18.66 81.36 -19 80 C-19.66 80 -20.32 80 -21 80 C-21.00257812 78.87722656 -21.00515625 77.75445312 -21.0078125 76.59765625 C-21.17066396 68.36399705 -21.29120185 62.75986148 -26.69921875 56.203125 C-29.24410419 51.89286858 -28.4415344 46.8323487 -28 42 C-27.34 42 -26.68 42 -26 42 C-26 44.64 -26 47.28 -26 50 C-24.68 49.34 -23.36 48.68 -22 48 C-21.94604522 46.37536158 -21.90722805 44.75021459 -21.875 43.125 C-21.85179688 42.22007812 -21.82859375 41.31515625 -21.8046875 40.3828125 C-21.75675164 37.81193006 -21.75675164 37.81193006 -24 36 C-27.08347826 35.83318891 -27.08347826 35.83318891 -30 36 C-33.73657493 41.60486239 -34.05796577 47.41436814 -33 54 C-31.69123451 56.76612531 -31.69123451 56.76612531 -30 59.375 C-26.02724887 65.7444578 -26.42453078 71.7000664 -27 79 C-28.485 78.505 -28.485 78.505 -30 78 C-30 74.37 -30 70.74 -30 67 C-32.475 67.99 -32.475 67.99 -35 69 C-35.33 69.99 -35.66 70.98 -36 72 C-36.66 72 -37.32 72 -38 72 C-38 59.79 -38 47.58 -38 35 C-39.98 35 -41.96 35 -44 35 C-43.99476318 35.65371582 -43.98952637 36.30743164 -43.98413086 36.98095703 C-43.7704098 67.75137948 -43.7704098 67.75137948 -46 78 C-46.33 78 -46.66 78 -47 78 C-49.15796978 69.52577502 -49.39523776 61.14240855 -49.5625 52.4375 C-49.62031772 49.72764997 -49.68566364 47.0182267 -49.75390625 44.30859375 C-49.77783447 43.12064209 -49.8017627 41.93269043 -49.82641602 40.70874023 C-49.69519067 38.08466312 -49.69519067 38.08466312 -51 37 C-50.979375 35.9275 -50.95875 34.855 -50.9375 33.75 C-50.99670143 30.19791392 -51.47323718 28.14894832 -53 25 C-49.70265354 23.90088451 -47.27041255 23.8860544 -43.80078125 23.90234375 C-42.59228516 23.90556641 -41.38378906 23.90878906 -40.13867188 23.91210938 C-38.2447168 23.92467773 -38.2447168 23.92467773 -36.3125 23.9375 C-34.40114258 23.94426758 -34.40114258 23.94426758 -32.45117188 23.95117188 C-29.30073436 23.96297127 -26.15039051 23.97943403 -23 24 C-22.34 22.68 -21.68 21.36 -21 20 C-20.505 21.98 -20.505 21.98 -20 24 C-11.97181902 21.95025167 -8.29521294 15.71645267 -4 9 C-2.46026228 6.06050072 -1.126793 3.12034985 0 0 Z " fill="#F8DE00" transform="translate(138,156)"/>
<path d="M0 0 C20.54765095 20.65588549 31.44572074 49.25202089 32.0625 78.125 C31.70556352 108.86119715 19.19697691 136.5526586 -1.9375 158.5 C-24.2520069 180.22999747 -52.19868922 190.5959853 -83.125 190.375 C-108.23606162 189.72465554 -133.33314607 181.45850357 -152.125 164.375 C-152.96160156 163.65570313 -153.79820312 162.93640625 -154.66015625 162.1953125 C-175.58270017 143.95514601 -190.23901993 117.67414594 -192.41357422 89.65698242 C-192.5247885 85.89176112 -192.53494771 82.14158701 -192.5 78.375 C-192.51160156 77.12460938 -192.52320313 75.87421875 -192.53515625 74.5859375 C-192.44821632 46.59128123 -180.14409203 19.63094989 -160.8125 -0.375 C-149.96972149 -10.71734258 -138.58173718 -18.13414495 -125.125 -24.625 C-124.24328125 -25.05683594 -123.3615625 -25.48867188 -122.453125 -25.93359375 C-80.976062 -44.31222339 -31.48065679 -30.49991914 0 0 Z M-108.125 -28.625 C-109.115 -28.43164062 -110.105 -28.23828125 -111.125 -28.0390625 C-137.53618189 -21.98649998 -161.01671805 -1.40423068 -175.23510742 20.85180664 C-190.39747725 45.37180177 -194.57173194 75.85638305 -188.72900391 103.92724609 C-186.97926437 111.01814688 -184.0976245 117.7235379 -181.125 124.375 C-180.47144531 125.85806641 -180.47144531 125.85806641 -179.8046875 127.37109375 C-169.7173993 148.78152997 -151.88849048 165.53598376 -131.125 176.375 C-129.76955078 177.1175 -129.76955078 177.1175 -128.38671875 177.875 C-106.94673367 189.23393249 -81.70154727 191.02019333 -58.125 186.375 C-57.13628906 186.18035156 -56.14757812 185.98570312 -55.12890625 185.78515625 C-26.86172171 179.44099398 -2.35943516 161.30884853 13.53515625 137.25390625 C28.96520383 112.59309398 33.84637901 82.83577288 27.71557617 54.46435547 C21.25502524 27.21207819 4.9533425 1.32378282 -19.125 -13.625 C-20.66220703 -14.59373047 -20.66220703 -14.59373047 -22.23046875 -15.58203125 C-49.02176629 -31.70613783 -77.71302133 -35.12152975 -108.125 -28.625 Z " fill="#1F1B02" transform="translate(230.125,71.625)"/>
<path d="M0 0 C3.29240341 0.24388173 5.22568001 1.06051098 8.140625 2.4921875 C11.12382656 3.50397265 13.98552524 3.5375028 17.125 3.75 C25.95213046 4.83337247 30.06198566 9.45122235 35.375 16.25 C37.23828125 18.91796875 37.23828125 18.91796875 38.375 21.25 C37.22633695 24.69598915 36.62150567 25.0157231 33.625 26.8125 C32.903125 27.24949219 32.18125 27.68648437 31.4375 28.13671875 C29.375 29.25 29.375 29.25 26.625 30.125 C23.72208128 31.57645936 22.85819272 33.56466308 21.40234375 36.3828125 C17.43373254 43.59572565 10.67667673 49.12072825 4.375 54.25 C2.4375 53.4375 2.4375 53.4375 0.375 52.25 C-0.625 49.25 -0.625 49.25 0.3125 47.1875 C1.86252481 42.90213729 1.5326869 38.7615974 1.375 34.25 C0.385 33.92 -0.605 33.59 -1.625 33.25 C-1.625 31.6 -1.625 29.95 -1.625 28.25 C3.67979934 28.25 4.56482627 29.7862057 8.375 33.25 C7.715 32.26 7.055 31.27 6.375 30.25 C6.375 29.26 6.375 28.27 6.375 27.25 C7.695 27.91 9.015 28.57 10.375 29.25 C10.375 28.92 10.375 28.59 10.375 28.25 C10.705 27.59 11.035 26.93 11.375 26.25 C12.035 26.25 12.695 26.25 13.375 26.25 C12.055 25.59 10.735 24.93 9.375 24.25 C9.375 23.59 9.375 22.93 9.375 22.25 C10.365 21.92 11.355 21.59 12.375 21.25 C11.34439453 20.86908203 11.34439453 20.86908203 10.29296875 20.48046875 C9.39191406 20.13628906 8.49085938 19.79210937 7.5625 19.4375 C6.66917969 19.10105469 5.77585938 18.76460937 4.85546875 18.41796875 C2.43393467 17.27775034 1.00181796 16.36046654 -0.625 14.25 C-0.3125 12.0625 -0.3125 12.0625 0.375 10.25 C2.355 10.25 4.335 10.25 6.375 10.25 C6.375 9.59 6.375 8.93 6.375 8.25 C4.38932292 8.0546875 2.40364583 7.859375 0.41796875 7.6640625 C-1.625 7.25 -1.625 7.25 -4.625 5.25 C-3.51510989 0.33477237 -3.51510989 0.33477237 0 0 Z " fill="#F8F8F8" transform="translate(173.625,94.75)"/>
<path d="M0 0 C2.34151301 0.26994887 4.67441799 0.61630236 7 1 C8.47000163 1.01880138 9.94075466 1.00304458 11.41015625 0.95703125 C12.17263672 0.93576172 12.93511719 0.91449219 13.72070312 0.89257812 C15.28624575 0.83904414 16.85143226 0.77387178 18.41601562 0.69726562 C23.93153618 0.5711699 26.44664592 1.68102683 31 5 C34.04484395 5.81778489 34.04484395 5.81778489 37.125 6.125 C42.62608662 6.81088612 42.62608662 6.81088612 45.03125 8.02734375 C47.53522694 9.2644276 49.59493208 9.30900947 52.375 9.4375 C62.36007302 10.25746626 67.33020279 15.63634141 73.65625 22.90234375 C75.64293006 25.42432371 76.92943366 27.4072427 77.3125 30.625 C74.7282436 35.30127349 69.51782772 37.35784212 64.75 39.375 C61.65456114 41.20412297 60.5422723 43.06791516 58.92578125 46.234375 C56.51118608 50.8394257 52.72686536 54.44647722 49 58 C48.43925781 58.55558594 47.87851563 59.11117187 47.30078125 59.68359375 C45.59085566 61.28966269 43.97723604 62.73601349 42 64 C39.125 63.875 39.125 63.875 37 63 C36.67 63 36.34 63 36 63 C36 64.65 36 66.3 36 68 C31.64515156 63.64515156 29.12330348 58.58096608 28.828125 52.40234375 C29.39163036 43.47078374 29.39163036 43.47078374 31.06640625 39.421875 C32.76291579 35.02088791 31.94799995 30.53448926 31 26 C29.87975324 23.62344412 28.70206824 22.0315008 27 20 C27.66 18.68 28.32 17.36 29 16 C30.65 16.66 32.3 17.32 34 18 C33.4225 17.4225 32.845 16.845 32.25 16.25 C31.5075 15.5075 30.765 14.765 30 14 C29.319375 13.360625 28.63875 12.72125 27.9375 12.0625 C25.87445103 9.86635109 24.48316295 7.61319187 23 5 C20.59963104 2.59963104 14.98171484 3.33100573 11.75 3.125 C10.79480469 3.03992188 9.83960938 2.95484375 8.85546875 2.8671875 C2.93965845 2.4657801 2.93965845 2.4657801 -2.109375 5.3671875 C-3.9757849 7.81952569 -3.9757849 7.81952569 -5 10 C-5.66 10 -6.32 10 -7 10 C-7.20625 9.360625 -7.4125 8.72125 -7.625 8.0625 C-8.87310882 5.72506911 -8.87310882 5.72506911 -11.75 5.125 C-14.962217 4.80322598 -14.962217 4.80322598 -17.6875 5.9375 C-21.103228 7.03311087 -22.64765009 6.86419877 -26.125 6.5 C-34.04037995 6.27260878 -38.60148969 11.906309 -44 17 C-44.77472656 17.49886719 -45.54945312 17.99773437 -46.34765625 18.51171875 C-48.2294144 19.91779848 -48.2294144 19.91779848 -48.546875 22.4453125 C-47.78476182 26.0054698 -46.20025344 26.82005468 -43.25 28.875 C-37.87413147 32.9069014 -35.11895738 36.21275964 -33.1875 42.75 C-31.65050541 45.66220027 -29.92782776 45.90097445 -26.94921875 47 C-23.05769984 48.99645058 -20.3899645 52.40489759 -18 56 C-17.0625 59.5 -17.0625 59.5 -17 62 C-15.68 62 -14.36 62 -13 62 C-12.505 61.01 -12.505 61.01 -12 60 C-11.67 60.99 -11.34 61.98 -11 63 C-12 64 -12 64 -14.375 64.3125 C-17 64 -17 64 -18.625 62.4375 C-20 60 -20 60 -21.375 56.5 C-23.1639657 52.64684311 -24.45260669 51.25743211 -28 49 C-29.175625 48.62875 -30.35125 48.2575 -31.5625 47.875 C-35.4494808 45.75482865 -35.45492891 45.44671752 -36.6875 41.5 C-38.59111519 35.6262324 -42.22994501 32.64101394 -47.02416992 29.01953125 C-48.61328125 27.73828125 -48.61328125 27.73828125 -51 25 C-51.16321312 20.84713292 -50.79423332 18.88093326 -47.99609375 15.77734375 C-47.15175781 15.17019531 -46.30742188 14.56304687 -45.4375 13.9375 C-44.52742188 13.27621094 -43.61734375 12.61492187 -42.6796875 11.93359375 C-41.79539062 11.29550781 -40.91109375 10.65742187 -40 10 C-38.98292969 9.08927734 -38.98292969 9.08927734 -37.9453125 8.16015625 C-33.17715406 3.95586717 -29.82418426 3.5359127 -23.54296875 3.92578125 C-20.37756308 4.01816636 -17.96550412 3.03447818 -15 2 C-11.20942419 2.30324606 -8.29124651 3.10120394 -5 5 C-4.319375 4.154375 -3.63875 3.30875 -2.9375 2.4375 C-1.968125 1.633125 -0.99875 0.82875 0 0 Z M32 10 C31.93245166 12.06599083 31.93245166 12.06599083 33 14 C36.37823976 15.87679987 39.17632299 16.21849583 43 16 C43 16.66 43 17.32 43 18 C41.02 18 39.04 18 37 18 C36.67 19.32 36.34 20.64 36 22 C40.07999715 25.69749741 43.86395088 27.2589664 49 29 C48.01 29.33 47.02 29.66 46 30 C46 30.66 46 31.32 46 32 C47.32 32.66 48.64 33.32 50 34 C49.01 34 48.02 34 47 34 C47.33 35.32 47.66 36.64 48 38 C47.54625 37.505 47.0925 37.01 46.625 36.5 C45.12364481 34.77390663 45.12364481 34.77390663 43 35 C43.165 35.61875 43.33 36.2375 43.5 36.875 C44 39 44 39 44 41 C42.02 39.02 40.04 37.04 38 35 C37.01 35.33 36.02 35.66 35 36 C35 37.65 35 39.3 35 41 C35.99 41.33 36.98 41.66 38 42 C38.05423638 43.91635217 38.09289963 45.83314925 38.125 47.75 C38.14820313 48.81734375 38.17140625 49.8846875 38.1953125 50.984375 C38.00487687 53.92470106 37.52670104 55.52361878 36 58 C36.99 59.32 37.98 60.64 39 62 C47.9542368 58.0203392 56.90625084 48.72920538 61.00390625 39.81640625 C62.41545439 37.24240669 64.46565847 36.79762226 67.11328125 35.79296875 C70.02414172 34.56956362 72.42756614 32.81952639 75 31 C73.47979355 25.59482149 69.76382084 21.98255993 66 18 C65.27554688 17.12730469 64.55109375 16.25460938 63.8046875 15.35546875 C60.1223922 12.26295612 57.10707161 11.88567488 52.4375 11.3125 C43.7952724 10.12428596 43.7952724 10.12428596 40 8 C35.48390206 7.48451171 35.48390206 7.48451171 32 10 Z " fill="#0E0D0B" transform="translate(137,87)"/>
<path d="M0 0 C1.258125 0.33 2.51625 0.66 3.8125 1 C7.64389366 1.90791319 10.83576976 1.93303983 14.75 1.625 C19.45927858 1.51287432 19.45927858 1.51287432 21.7734375 3.59765625 C26.18038386 10.41186521 26.12745974 17.06842604 25.78515625 24.94140625 C25.65090524 31.34884092 27.41643243 35.62464864 31 41 C31.38671875 40.43410156 31.7734375 39.86820313 32.171875 39.28515625 C32.69265625 38.55167969 33.2134375 37.81820312 33.75 37.0625 C34.26046875 36.33160156 34.7709375 35.60070312 35.296875 34.84765625 C37.19177915 32.79194601 38.27425729 32.37330824 41 32 C39.68 33.32 38.36 34.64 37 36 C38.32 36.99 39.64 37.98 41 39 C40.625 40.9375 40.625 40.9375 40 43 C39.01 43.495 39.01 43.495 38 44 C37.67 44.99 37.34 45.98 37 47 C38.98 47 40.96 47 43 47 C43 47.66 43 48.32 43 49 C39.535 49.495 39.535 49.495 36 50 C36 50.66 36 51.32 36 52 C36.8971875 52.185625 36.8971875 52.185625 37.8125 52.375 C40 53 40 53 43 55 C42.01 55.99 41.02 56.98 40 58 C40.66 58.66 41.32 59.32 42 60 C41.01 60.66 40.02 61.32 39 62 C38.74969023 64.58380177 38.74969023 64.58380177 39 67 C41.64 66.67 44.28 66.34 47 66 C45.36587557 67.70840281 44.13093906 68.93453047 42 70 C42 71.32 42 72.64 42 74 C40.5 75.75 40.5 75.75 39 77 C41.97 76.01 41.97 76.01 45 75 C43.68 76.98 42.36 78.96 41 81 C43.97 80.505 43.97 80.505 47 80 C45 82 45 82 42 83 C42.57452746 86.93075644 42.57452746 86.93075644 45 90 C44.195625 90.12375 43.39125 90.2475 42.5625 90.375 C41.2940625 90.684375 41.2940625 90.684375 40 91 C39.67 91.66 39.34 92.32 39 93 C37.2706117 91.2706117 37.54212622 88.85853425 37.28125 86.49609375 C37.15363281 85.36236328 37.02601563 84.22863281 36.89453125 83.06054688 C36.69923828 81.26713867 36.69923828 81.26713867 36.5 79.4375 C36.23987702 77.10283184 35.97946696 74.76819565 35.71875 72.43359375 C35.53505859 70.77432861 35.53505859 70.77432861 35.34765625 69.08154297 C34.93040808 65.38315361 34.47454713 61.69142914 34 58 C33.34 58 32.68 58 32 58 C31.90074219 58.71414062 31.80148438 59.42828125 31.69921875 60.1640625 C29.90997128 67.42101035 23.79310017 76.18001902 18 81 C14.625 81.9375 14.625 81.9375 12 82 C11.52170037 76.73870408 13.01333433 73.57873207 15.75 69.25 C20.60820926 61.16578617 23.94886813 53.23009341 26 44 C22.7014861 44.72268235 22.7014861 44.72268235 21.3125 48.0625 C20.6628125 49.5165625 20.6628125 49.5165625 20 51 C19.375 49.1875 19.375 49.1875 19 47 C19.66 46.01 20.32 45.02 21 44 C21.52370644 38.34981449 21.52370644 38.34981449 19.375 33.3125 C18.92125 32.549375 18.4675 31.78625 18 31 C18.8125 28.1875 18.8125 28.1875 20 26 C18.68 26.33 17.36 26.66 16 27 C16 26.01 16 25.02 16 24 C17.32 23.67 18.64 23.34 20 23 C19.34 22.38125 18.68 21.7625 18 21.125 C16 19 16 19 16 17 C17.98 17 19.96 17 22 17 C21.28436734 14.9837767 21.28436734 14.9837767 20 13 C17.94999129 12.19471111 17.94999129 12.19471111 16 12 C16 11.34 16 10.68 16 10 C16.99 9.67 17.98 9.34 19 9 C18.67 7.68 18.34 6.36 18 5 C14.27087711 5.36560028 11.54811776 5.66857996 8.3125 7.625 C6 9 6 9 3.6875 8.6875 C3.130625 8.460625 2.57375 8.23375 2 8 C2 7.34 2 6.68 2 6 C2.99 6 3.98 6 5 6 C5 5.34 5 4.68 5 4 C3.35 3.67 1.7 3.34 0 3 C0 2.01 0 1.02 0 0 Z " fill="#121210" transform="translate(106,98)"/>
<path d="M0 0 C0.495 1.485 0.495 1.485 1 3 C1.66 3.33 2.32 3.66 3 4 C-9.75391665 4.51782819 -9.75391665 4.51782819 -13.75 2.5625 C-17.27963255 0.86556128 -19.83718918 0.60998562 -23.69140625 0.50390625 C-26 0 -26 0 -28.71875 -2.0234375 C-33.00721948 -4.60672983 -36.05455382 -4.42658201 -40.9375 -4.1875 C-42.4881231 -4.13447619 -44.03891764 -4.08623212 -45.58984375 -4.04296875 C-46.33339111 -4.01968506 -47.07693848 -3.99640137 -47.84301758 -3.97241211 C-50 -4 -50 -4 -53.8828125 -4.640625 C-54.91148437 -4.75921875 -55.94015625 -4.8778125 -57 -5 C-59.96050874 -2.70800597 -59.96050874 -2.70800597 -62 0 C-62.53625 -0.309375 -63.0725 -0.61875 -63.625 -0.9375 C-68.90099541 -3.29781374 -73.39160618 -3.00951089 -79 -2 C-78.34 -2.99 -77.68 -3.98 -77 -5 C-77.33 -5.66 -77.66 -6.32 -78 -7 C-52.69272225 -17.99414525 -22.39871162 -18.61301388 0 0 Z " fill="#F8DF00" transform="translate(194,93)"/>
<path d="M0 0 C6.53195471 1.99587505 9.14775997 7.0644796 12.625 12.625 C14.39012092 15.43840234 16.15755588 18.23633383 18 21 C20.85994777 25.28992165 23.20339151 29.82680132 25.625 34.375 C26.140625 35.32117188 26.65625 36.26734375 27.1875 37.2421875 C27.67476562 38.16 28.16203125 39.0778125 28.6640625 40.0234375 C29.11217285 40.85794434 29.5602832 41.69245117 30.02197266 42.55224609 C31.08727155 45.21841852 31.18968233 47.15603381 31 50 C30.01 50.33 29.02 50.66 28 51 C18.93979529 45.54418108 13.31113353 35.31204843 9 26 C6.74129892 29.38805161 6.70740587 30.77350741 6.5859375 34.76171875 C6.52792969 36.43911133 6.52792969 36.43911133 6.46875 38.15039062 C6.4378125 39.31763672 6.406875 40.48488281 6.375 41.6875 C6.31699219 43.45577148 6.31699219 43.45577148 6.2578125 45.25976562 C6.16345609 48.17301977 6.07786839 51.08626607 6 54 C5.01 54.495 5.01 54.495 4 55 C3.01 51.535 3.01 51.535 2 48 C2.66 48 3.32 48 4 48 C3.01 46.02 2.02 44.04 1 42 C1.495 41.505 1.495 41.505 2 41 C2.19149081 37.36805359 2.19149081 37.36805359 1 34 C1.66 34 2.32 34 3 34 C2.814375 33.05125 2.62875 32.1025 2.4375 31.125 C2 28 2 28 3 26 C1.35 26 -0.3 26 -2 26 C-1.67 25.34 -1.34 24.68 -1 24 C0.65 24 2.3 24 4 24 C4 23.34 4 22.68 4 22 C2.68 22 1.36 22 0 22 C0 21.34 0 20.68 0 20 C0.99 19.67 1.98 19.34 3 19 C0.69 18.34 -1.62 17.68 -4 17 C-4 16.34 -4 15.68 -4 15 C-0.52674819 13.8422494 2.36067448 13.93133348 6 14 C5.01 12.35 4.02 10.7 3 9 C3.99 9 4.98 9 6 9 C4.68775452 5.06326356 3.08089673 2.77280706 0 0 Z " fill="#141413" transform="translate(155,132)"/>
<path d="M0 0 C7.98418808 -0.76771039 7.98418808 -0.76771039 11.54296875 1.921875 C13.5382443 6.13709519 13.47675765 9.65078581 13.3125 14.25 C13.30283203 15.07757813 13.29316406 15.90515625 13.28320312 16.7578125 C13.16870301 22.83129699 13.16870301 22.83129699 12 24 C12.16687179 30.4694909 13.48392844 36.73357087 15 43 C13.35 43.66 11.7 44.32 10 45 C8.515 39.555 8.515 39.555 7 34 C7 38.62 7 43.24 7 48 C5.35 48.66 3.7 49.32 2 50 C1.1882503 46.38282351 0.82063549 42.9408178 0.68359375 39.23828125 C0.64161865 38.12686768 0.59964355 37.0154541 0.55639648 35.87036133 C0.51716064 34.69626709 0.4779248 33.52217285 0.4375 32.3125 C0.3950415 31.11326904 0.35258301 29.91403809 0.30883789 28.6784668 C-0.00931085 19.11544069 -0.11255335 9.56703442 0 0 Z " fill="#090700" transform="translate(193,191)"/>
<path d="M0 0 C2.9375 0.625 2.9375 0.625 4.609375 2.73828125 C6.20434925 6.20500469 6.24008065 8.63983848 6.125 12.4375 C6.09792969 13.59894531 6.07085937 14.76039063 6.04296875 15.95703125 C6.00816406 16.83746094 5.97335938 17.71789062 5.9375 18.625 C4.2875 18.955 2.6375 19.285 0.9375 19.625 C0.6075 16.325 0.2775 13.025 -0.0625 9.625 C-0.3925 9.625 -0.7225 9.625 -1.0625 9.625 C-1.95250167 22.6412744 -2.17828302 35.5801135 -2.0625 48.625 C-1.7325 48.625 -1.4025 48.625 -1.0625 48.625 C-0.7325 44.335 -0.4025 40.045 -0.0625 35.625 C1.5875 35.955 3.2375 36.285 4.9375 36.625 C5.01882187 39.18814499 5.07814175 41.74868418 5.125 44.3125 C5.16270508 45.3943457 5.16270508 45.3943457 5.20117188 46.49804688 C5.2637966 51.06965213 4.85942805 54.04150333 1.9375 57.625 C-0.75 58.4375 -0.75 58.4375 -3.0625 58.625 C-6.84807618 55.08423237 -8.39869913 52.84129565 -8.5859375 47.59765625 C-8.56379462 45.62710732 -8.51272325 43.65673713 -8.4375 41.6875 C-8.41461914 40.64295654 -8.39173828 39.59841309 -8.36816406 38.5222168 C-8.31495341 36.33154729 -8.24963601 34.14114183 -8.17285156 31.95117188 C-8.06399996 28.67021113 -8.00760157 25.39174547 -7.9609375 22.109375 C-7.91392151 20.05202557 -7.8645314 17.9947287 -7.8125 15.9375 C-7.79880371 14.97658447 -7.78510742 14.01566895 -7.77099609 13.02563477 C-7.61607712 8.76688923 -7.42698969 6.23504065 -5.20703125 2.51953125 C-3.0625 0.625 -3.0625 0.625 0 0 Z " fill="#070600" transform="translate(129.0625,190.375)"/>
<path d="M0 0 C3.125 0.25 3.125 0.25 4.80859375 1.44140625 C6.58105993 3.87657492 6.42853096 5.45937209 6.3125 8.4375 C6.28542969 9.33855469 6.25835937 10.23960937 6.23046875 11.16796875 C6.19566406 11.85503906 6.16085938 12.54210937 6.125 13.25 C4.475 13.91 2.825 14.57 1.125 15.25 C1.125 12.61 1.125 9.97 1.125 7.25 C0.465 7.25 -0.195 7.25 -0.875 7.25 C-0.84149575 9.10491718 -0.77163804 10.95918916 -0.6875 12.8125 C-0.65269531 13.84503906 -0.61789063 14.87757813 -0.58203125 15.94140625 C0.12427125 19.24658977 0.58205918 19.98360525 2.6484375 22.41796875 C6.31635016 27.17013613 5.74750879 32.2320789 5.5625 38 C5.55669922 39.04027344 5.55089844 40.08054688 5.54492188 41.15234375 C5.4211603 48.80575955 5.4211603 48.80575955 3.125 52.25 C0.25 52.75 0.25 52.75 -2.875 52.25 C-6.14907603 48.97592397 -7.80306462 46.23829389 -7.97265625 41.55078125 C-7.96105469 40.56464844 -7.94945313 39.57851562 -7.9375 38.5625 C-7.92847656 37.56863281 -7.91945313 36.57476562 -7.91015625 35.55078125 C-7.89855469 34.79152344 -7.88695313 34.03226563 -7.875 33.25 C-5.4 32.755 -5.4 32.755 -2.875 32.25 C-2.82601562 33.03246094 -2.77703125 33.81492188 -2.7265625 34.62109375 C-2.65179688 35.63300781 -2.57703125 36.64492187 -2.5 37.6875 C-2.43039063 38.69683594 -2.36078125 39.70617187 -2.2890625 40.74609375 C-2.15242188 41.57238281 -2.01578125 42.39867187 -1.875 43.25 C-1.215 43.58 -0.555 43.91 0.125 44.25 C0.1037849 36.98382849 -0.02600288 30.91100597 -3.9375 24.625 C-7.48200756 18.85665477 -7.8825168 13.89573583 -6.875 7.25 C-4.19078947 0.36441648 -4.19078947 0.36441648 0 0 Z " fill="#0A0800" transform="translate(110.875,190.75)"/>
<path d="M0 0 C0.99 0 1.98 0 3 0 C3 3.3 3 6.6 3 10 C2.01 10.495 2.01 10.495 1 11 C1.66 11.33 2.32 11.66 3 12 C3 12.66 3 13.32 3 14 C2.01 14.495 2.01 14.495 1 15 C1.66 15.33 2.32 15.66 3 16 C3 17.32 3 18.64 3 20 C5.31 20.33 7.62 20.66 10 21 C10.66 22.65 11.32 24.3 12 26 C11.34 26 10.68 26 10 26 C10.165 26.99 10.33 27.98 10.5 29 C11.21356102 34.18381091 11.72087583 38.9645859 9.9375 44 C8 46 8 46 4.3125 46.3125 C3.219375 46.209375 2.12625 46.10625 1 46 C-3.35574257 39.25562441 -3.5776175 33.21596781 -3.82421875 25.4140625 C-3.76435658 22.13742753 -3.76435658 22.13742753 -5 20 C-5.07065617 17.95944995 -5.08421976 15.91665743 -5.0625 13.875 C-5.05347656 12.77929688 -5.04445312 11.68359375 -5.03515625 10.5546875 C-5.02355469 9.71164063 -5.01195312 8.86859375 -5 8 C-4.34 8.66 -3.68 9.32 -3 10 C-2.01 6.7 -1.02 3.4 0 0 Z " fill="#1E1C01" transform="translate(143,205)"/>
<path d="M0 0 C3.3 0 6.6 0 10 0 C10 2.97 10 5.94 10 9 C8.35 9 6.7 9 5 9 C5 12.63 5 16.26 5 20 C6.65 20 8.3 20 10 20 C10 22.97 10 25.94 10 29 C8.68 29 7.36 29 6 29 C6 34.28 6 39.56 6 45 C8.97 44.505 8.97 44.505 12 44 C12 46.64 12 49.28 12 52 C10.5437455 52.67119549 9.08492133 53.33681807 7.625 54 C6.81289062 54.37125 6.00078125 54.7425 5.1640625 55.125 C3 56 3 56 1 56 C-0.05535599 37.32396808 -0.11136684 18.69763569 0 0 Z " fill="#060500" transform="translate(177,191)"/>
<path d="M0 0 C1.43655854 -0.08131463 2.8744483 -0.13933559 4.3125 -0.1875 C5.51326172 -0.23970703 5.51326172 -0.23970703 6.73828125 -0.29296875 C9 0 9 0 10.77246094 1.35742188 C12.56931595 3.76180543 12.32673472 5.52269288 12.25 8.5 C12.22421875 9.63824219 12.1984375 10.77648437 12.171875 11.94921875 C11.86739816 19.63725889 11.45417799 27.31952573 11 35 C9.68 35.66 8.36 36.32 7 37 C3.94058845 35.47743893 1.93285597 33.83485543 0 31 C-0.90061756 25.69678622 -0.65992149 20.47270811 -0.4375 15.125 C-0.40235445 13.65892835 -0.37042108 12.19277597 -0.34179688 10.7265625 C-0.26499229 7.1493534 -0.14439131 3.57519226 0 0 Z " fill="#020200" transform="translate(77,191)"/>
<path d="M0 0 C4.57793505 0.5182568 6.04473754 2.18323201 9.3125 5.375 C10.88185594 8.51371188 10.66451103 10.91355822 10.3125 14.375 C7.77708828 17.90921028 6.00788558 19.14741926 1.875 20.5 C-1.86969825 20.36860708 -3.78811492 19.72973008 -6.51171875 17.1015625 C-8.77346884 13.7803215 -9.26564577 10.31495636 -8.6875 6.375 C-6.3125 3.375 -6.3125 3.375 -3.6875 1.375 C-2.6875 0.375 -2.6875 0.375 0 0 Z " fill="#100E00" transform="translate(94.6875,66.625)"/>
<path d="M0 0 C1.32 0 2.64 0 4 0 C5.3148473 4.66663017 5.66074374 9.1882309 5 14 C3.0625 17.125 3.0625 17.125 0 19 C-3.1539369 19.67343848 -5.85439358 19.74083441 -9 19 C-11.93679048 16.35688857 -13.53787014 13.92810384 -14 10 C-14.03888349 7.66699067 -14.0448635 5.33290199 -14 3 C-13.01 2.67 -12.02 2.34 -11 2 C-11 2.66 -11 3.32 -11 4 C-10.34 3.67 -9.68 3.34 -9 3 C-6.3276379 2.86584528 -3.67749512 2.95681459 -1 3 C-0.67 2.01 -0.34 1.02 0 0 Z " fill="#151200" transform="translate(244,126)"/>
<path d="M0 0 C1.98 0 3.96 0 6 0 C6.66 1.98 7.32 3.96 8 6 C8.33 4.02 8.66 2.04 9 0 C10.98 0 12.96 0 15 0 C14.79503906 0.85078125 14.59007812 1.7015625 14.37890625 2.578125 C12.45091958 11.24945259 11.58259687 19.48363053 11.64282227 28.38378906 C11.6043651 30.69121872 11.54616274 32.75712272 11 35 C8.4609375 37.078125 8.4609375 37.078125 6 38 C5.97421875 37.01902344 5.9484375 36.03804687 5.921875 35.02734375 C5.59436841 26.39905337 4.42359311 18.67408736 1.9375 10.40234375 C0.98332724 6.93949179 0.43559827 3.56192337 0 0 Z " fill="#110F00" transform="translate(209,191)"/>
<path d="M0 0 C1.32 0.33 2.64 0.66 4 1 C4.33 1.99 4.66 2.98 5 4 C8.83163192 6.02851102 12.73052871 6.49770926 17 7 C16.1875 10.4375 16.1875 10.4375 15 14 C14.01 14.33 13.02 14.66 12 15 C11.34 14.67 10.68 14.34 10 14 C10 13.01 10 12.02 10 11 C8.45833358 12.37485532 8.45833358 12.37485532 7 14 C7 14.66 7 15.32 7 16 C8.65 16 10.3 16 12 16 C12.33 16.66 12.66 17.32 13 18 C12.06421005 20.35981813 11.06652192 22.69631264 10 25 C8.68 24.67 7.36 24.34 6 24 C6 23.01 6 22.02 6 21 C5.39671875 20.86722656 4.7934375 20.73445313 4.171875 20.59765625 C3.37265625 20.42105469 2.5734375 20.24445313 1.75 20.0625 C0.96109375 19.88847656 0.1721875 19.71445313 -0.640625 19.53515625 C-2.76878703 19.052444 -4.88532842 18.53836822 -7 18 C-5.125 12.25 -5.125 12.25 -4 10 C-2.68 10.33 -1.36 10.66 0 11 C0 11.99 0 12.98 0 14 C1.54166642 12.62514468 1.54166642 12.62514468 3 11 C3 10.34 3 9.68 3 9 C0.03 8.505 0.03 8.505 -3 8 C-2.01 5.36 -1.02 2.72 0 0 Z " fill="#0F0C00" transform="translate(61,101)"/>
<path d="M0 0 C0.99 0.33 1.98 0.66 3 1 C3.8125 3.5625 3.8125 3.5625 4 7 C2.61938689 9.58092227 0.8985496 11.77955098 -1 14 C1.99332739 13.0022242 2.94766315 12.2477975 5 10 C5.66 10.33 6.32 10.66 7 11 C7.73075648 13.3140622 8.40138258 15.64828869 9 18 C8.43152344 18.1340625 7.86304688 18.268125 7.27734375 18.40625 C4.99201743 19.00208122 2.79350155 19.72668924 0.5625 20.5 C-2.60673369 21.57210051 -5.68814809 22.46583034 -9 23 C-9.65234375 21.265625 -9.65234375 21.265625 -10 19 C-9.00390625 16.859375 -9.00390625 16.859375 -7.5625 14.75 C-7.08941406 14.04359375 -6.61632812 13.3371875 -6.12890625 12.609375 C-5.75636719 12.07828125 -5.38382813 11.5471875 -5 11 C-5.99 11 -6.98 11 -8 11 C-8.33 11.99 -8.66 12.98 -9 14 C-9.99 14.33 -10.98 14.66 -12 15 C-13.5625 12.1875 -13.5625 12.1875 -15 9 C-14.67 8.01 -14.34 7.02 -14 6 C-12.7625 5.855625 -11.525 5.71125 -10.25 5.5625 C-7.43495501 5.21311498 -4.7298503 4.79620634 -2 4 C-2 3.01 -2 2.02 -2 1 C-1.34 0.67 -0.68 0.34 0 0 Z " fill="#0D0B00" transform="translate(236,101)"/>
<path d="M0 0 C1.051875 0.268125 2.10375 0.53625 3.1875 0.8125 C2.8575 1.4725 2.5275 2.1325 2.1875 2.8125 C1.094375 2.895 0.00125 2.9775 -1.125 3.0625 C-5.06132235 3.43947077 -5.06132235 3.43947077 -7.125 6.875 C-7.681875 7.844375 -8.23875 8.81375 -8.8125 9.8125 C-9.4725 9.8125 -10.1325 9.8125 -10.8125 9.8125 C-11.01875 9.173125 -11.225 8.53375 -11.4375 7.875 C-12.68560882 5.53756911 -12.68560882 5.53756911 -15.5625 4.9375 C-18.774717 4.61572598 -18.774717 4.61572598 -21.5 5.75 C-24.915728 6.84561087 -26.46015009 6.67669877 -29.9375 6.3125 C-37.85287995 6.08510878 -42.41398969 11.718809 -47.8125 16.8125 C-48.58722656 17.31136719 -49.36195312 17.81023437 -50.16015625 18.32421875 C-52.0419144 19.73029848 -52.0419144 19.73029848 -52.359375 22.2578125 C-51.59726182 25.8179698 -50.01275344 26.63255468 -47.0625 28.6875 C-41.68663147 32.7194014 -38.93145738 36.02525964 -37 42.5625 C-35.46300541 45.47470027 -33.74032776 45.71347445 -30.76171875 46.8125 C-26.87019984 48.80895058 -24.2024645 52.21739759 -21.8125 55.8125 C-20.875 59.3125 -20.875 59.3125 -20.8125 61.8125 C-19.4925 61.8125 -18.1725 61.8125 -16.8125 61.8125 C-16.3175 60.8225 -16.3175 60.8225 -15.8125 59.8125 C-15.4825 60.8025 -15.1525 61.7925 -14.8125 62.8125 C-15.8125 63.8125 -15.8125 63.8125 -18.1875 64.125 C-20.8125 63.8125 -20.8125 63.8125 -22.4375 62.25 C-23.8125 59.8125 -23.8125 59.8125 -25.1875 56.3125 C-26.9764657 52.45934311 -28.26510669 51.06993211 -31.8125 48.8125 C-32.988125 48.44125 -34.16375 48.07 -35.375 47.6875 C-39.2619808 45.56732865 -39.26742891 45.25921752 -40.5 41.3125 C-42.40361519 35.4387324 -46.04244501 32.45351394 -50.83666992 28.83203125 C-52.42578125 27.55078125 -52.42578125 27.55078125 -54.8125 24.8125 C-54.97571312 20.65963292 -54.60673332 18.69343326 -51.80859375 15.58984375 C-50.96425781 14.98269531 -50.11992188 14.37554687 -49.25 13.75 C-48.33992188 13.08871094 -47.42984375 12.42742187 -46.4921875 11.74609375 C-45.60789062 11.10800781 -44.72359375 10.46992187 -43.8125 9.8125 C-42.79542969 8.90177734 -42.79542969 8.90177734 -41.7578125 7.97265625 C-36.98965406 3.76836717 -33.63668426 3.3484127 -27.35546875 3.73828125 C-24.19006308 3.83066636 -21.77800412 2.84697818 -18.8125 1.8125 C-15.02192419 2.11574606 -12.10374651 2.91370394 -8.8125 4.8125 C-8.131875 3.966875 -7.45125 3.12125 -6.75 2.25 C-3.8125 -0.1875 -3.8125 -0.1875 0 0 Z " fill="#1C190B" transform="translate(140.8125,87.1875)"/>
<path d="M0 0 C1.65 0 3.3 0 5 0 C5.66 1.65 6.32 3.3 7 5 C10.66374813 4.54963709 10.66374813 4.54963709 13.5625 2.4375 C14.036875 1.963125 14.51125 1.48875 15 1 C16.32 1 17.64 1 19 1 C18.67 3.64 18.34 6.28 18 9 C15.69 9.33 13.38 9.66 11 10 C11 10.99 11 11.98 11 13 C12.98 12.67 14.96 12.34 17 12 C16.67 14.64 16.34 17.28 16 20 C14.68 20 13.36 20 12 20 C12 19.01 12 18.02 12 17 C10.72125 17.020625 9.4425 17.04125 8.125 17.0625 C4.25 17.125 4.25 17.125 2 16 C2 16.66 2 17.32 2 18 C0.68 18 -0.64 18 -2 18 C-1.67 15.36 -1.34 12.72 -1 10 C3.75 10.875 3.75 10.875 6 12 C4.36526484 8.87525373 4.36526484 8.87525373 1.875 8.3125 C0.946875 8.1578125 0.946875 8.1578125 0 8 C0 5.36 0 2.72 0 0 Z " fill="#100D00" transform="translate(51,127)"/>
<path d="M0 0 C2.97 0.495 2.97 0.495 6 1 C6.33 2.65 6.66 4.3 7 6 C6.34 6 5.68 6 5 6 C5 6.66 5 7.32 5 8 C6.32 7.67 7.64 7.34 9 7 C9 5.35 9 3.7 9 2 C11.64 2.66 14.28 3.32 17 4 C17 5.32 17 6.64 17 8 C14.69 8.66 12.38 9.32 10 10 C10.33 10.763125 10.66 11.52625 11 12.3125 C12 15 12 15 12 18 C12.66 18 13.32 18 14 18 C14 19.32 14 20.64 14 22 C11.69 21.67 9.38 21.34 7 21 C6.67 18.36 6.34 15.72 6 13 C5.34 13.66 4.68 14.32 4 15 C4 16.32 4 17.64 4 19 C1.36 18.67 -1.28 18.34 -4 18 C-4 16.68 -4 15.36 -4 14 C-3.34 13.67 -2.68 13.34 -2 13 C-1.09274566 10.88672575 -1.09274566 10.88672575 -0.375 8.4375 C-0.11460937 7.61121094 0.14578125 6.78492188 0.4140625 5.93359375 C0.60742188 5.29550781 0.80078125 4.65742187 1 4 C0.34 4 -0.32 4 -1 4 C-0.67 2.68 -0.34 1.36 0 0 Z " fill="#0D0B00" transform="translate(166,51)"/>
<path d="M0 0 C1.98 0 3.96 0 6 0 C5.0125055 32.72067803 5.0125055 32.72067803 4 45 C0.125 44.125 0.125 44.125 -1 43 C-1.10507339 40.30208615 -1.14015112 37.63575282 -1.125 34.9375 C-1.12306641 34.11145264 -1.12113281 33.28540527 -1.11914062 32.43432617 C-1.04723866 21.61407867 -0.5216533 10.80627018 0 0 Z " fill="#110F00" transform="translate(94,191)"/>
<path d="M0 0 C2.97 0 5.94 0 9 0 C9.40992188 0.92683594 9.81984375 1.85367188 10.2421875 2.80859375 C10.78101563 4.00613281 11.31984375 5.20367187 11.875 6.4375 C12.67550781 8.22994141 12.67550781 8.22994141 13.4921875 10.05859375 C14.67727235 13.08527631 14.67727235 13.08527631 17 14 C17 15.32 17 16.64 17 18 C14.03 18 11.06 18 8 18 C8.33 16.35 8.66 14.7 9 13 C7.35 13.33 5.7 13.66 4 14 C4.33 15.32 4.66 16.64 5 18 C2.03 18 -0.94 18 -4 18 C-4 16.68 -4 15.36 -4 14 C-3 13 -2 12 -1 11 C0.1404407 8.70884436 1.05570538 6.38321975 2 4 C1.34 4 0.68 4 0 4 C0 2.68 0 1.36 0 0 Z " fill="#141200" transform="translate(142,50)"/>
<path d="M0 0 C1.38445312 0.31710938 1.38445312 0.31710938 2.796875 0.640625 C4.25287109 0.95386719 4.25287109 0.95386719 5.73828125 1.2734375 C6.66511719 1.47710937 7.59195313 1.68078125 8.546875 1.890625 C10.87675162 2.26628264 13.20742693 2.57869859 15.546875 2.890625 C16.296875 4.640625 16.296875 4.640625 16.546875 6.890625 C14.609375 9.140625 14.609375 9.140625 12.546875 10.890625 C11.556875 10.560625 10.566875 10.230625 9.546875 9.890625 C9.546875 9.230625 9.546875 8.570625 9.546875 7.890625 C7.896875 9.540625 6.246875 11.190625 4.546875 12.890625 C6.196875 13.220625 7.846875 13.550625 9.546875 13.890625 C8.15354926 17.25782887 6.5679464 18.8765774 3.546875 20.890625 C0.75417565 18.09792565 0.01886288 14.89368239 -1.2578125 11.203125 C-2.64114936 8.52686546 -3.67446784 7.91372889 -6.453125 6.890625 C-5.75113597 2.8190886 -4.55898386 -0.2032668 0 0 Z " fill="#121000" transform="translate(75.453125,85.109375)"/>
<path d="M0 0 C3.44004627 1.14668209 4.26635169 1.87943304 6 5 C5.88566168 9.11617935 3.8536915 12.48091233 1.98828125 16.0625 C0.83654848 18.32044251 -0.11034934 20.62759824 -1 23 C-1.99 23 -2.98 23 -4 23 C-6.1875 20 -6.1875 20 -8 17 C-6.35 16.67 -4.7 16.34 -3 16 C-3.7425 15.071875 -3.7425 15.071875 -4.5 14.125 C-6 12 -6 12 -6 10 C-6.66 10 -7.32 10 -8 10 C-8.33 11.32 -8.66 12.64 -9 14 C-11.99324263 12.9024777 -12.84610901 12.32317108 -14.25 9.375 C-14.4975 8.59125 -14.745 7.8075 -15 7 C-13.96875 6.71125 -12.9375 6.4225 -11.875 6.125 C-10.58324285 5.75031182 -9.29157721 5.37530801 -8 5 C-6.906875 4.690625 -5.81375 4.38125 -4.6875 4.0625 C-1.70833515 3.1798225 -1.70833515 3.1798225 0 0 Z " fill="#110F00" transform="translate(222,82)"/>
<path d="M0 0 C0.99 0 1.98 0 3 0 C3.77349782 1.5194799 4.5436448 3.04066567 5.3125 4.5625 C5.74175781 5.40941406 6.17101562 6.25632813 6.61328125 7.12890625 C7.59278448 9.15689181 8.50628434 11.21739027 9.37109375 13.296875 C11.52008856 18.38470169 14.30781484 23.15162123 17.03515625 27.94726562 C17.43089844 28.66978516 17.82664063 29.39230469 18.234375 30.13671875 C18.77916504 31.10677856 18.77916504 31.10677856 19.33496094 32.09643555 C20.15335267 34.43894669 19.80118703 35.69161992 19 38 C9.83138855 31.88759236 3.85453355 20.07226326 0 10 C-0.48311729 6.55778932 -0.49876488 3.43593586 0 0 Z " fill="#F1F1F1" transform="translate(164,143)"/>
<path d="M0 0 C3 1 3 1 4 3 C4.5120104 8.88080516 3.26269542 12.66079942 0.625 17.75 C0.27356934 18.44158203 -0.07786133 19.13316406 -0.43994141 19.84570312 C-3.95215822 26.43932111 -8.37041741 32.06103535 -14 37 C-14.66 37 -15.32 37 -16 37 C-15.42476267 32.46577633 -13.61443602 29.37554174 -11.25 25.5 C-7.34211958 18.92765566 -4.55845984 12.20930349 -2 5 C-1.34117453 3.33021821 -0.67717175 1.66242613 0 0 Z " fill="#EFEFEF" transform="translate(135,142)"/>
<path d="M0 0 C5.24305347 4.36921122 10.63125883 9.76682254 13.9921875 15.72265625 C13.9375 18.36328125 13.9375 18.36328125 12.9921875 20.72265625 C11.35546875 22.19921875 11.35546875 22.19921875 9.3046875 23.34765625 C8.58410156 23.7653125 7.86351562 24.18296875 7.12109375 24.61328125 C4.9921875 25.72265625 4.9921875 25.72265625 1.7421875 27.09765625 C-1.35325136 28.92677922 -2.4655402 30.79057141 -4.08203125 33.95703125 C-6.49662642 38.56208195 -10.28094714 42.16913347 -14.0078125 45.72265625 C-14.56855469 46.27824219 -15.12929687 46.83382812 -15.70703125 47.40625 C-17.41767788 49.01299618 -19.02839841 50.46015979 -21.0078125 51.72265625 C-23.9453125 51.59765625 -23.9453125 51.59765625 -26.0078125 50.72265625 C-26.0078125 50.06265625 -26.0078125 49.40265625 -26.0078125 48.72265625 C-25.2859375 48.64015625 -24.5640625 48.55765625 -23.8203125 48.47265625 C-15.2582625 46.18944292 -8.98207375 36.59663536 -4.0078125 29.72265625 C-3.5128125 28.77390625 -3.0178125 27.82515625 -2.5078125 26.84765625 C-0.29822996 23.71741431 2.46764352 23.05955224 5.9921875 21.72265625 C7.67753774 20.75447633 9.35240432 19.76615464 10.9921875 18.72265625 C9.4725256 13.31941394 5.74889127 9.70920055 1.9921875 5.72265625 C1.40695313 5.00722656 0.82171875 4.29179688 0.21875 3.5546875 C-2.83646887 1.04083197 -5.36022791 0.9057212 -9.2578125 0.47265625 C-10.52109375 0.323125 -11.784375 0.17359375 -13.0859375 0.01953125 C-14.05015625 -0.0784375 -15.014375 -0.17640625 -16.0078125 -0.27734375 C-16.0078125 -0.60734375 -16.0078125 -0.93734375 -16.0078125 -1.27734375 C-10.41237104 -2.53631808 -4.98531157 -3.17158926 0 0 Z " fill="#1D1B0F" transform="translate(200.0078125,99.27734375)"/>
<path d="M0 0 C3.89322587 0.26394752 5.03404541 0.51380963 7.6875 3.25 C7.859375 5.73046875 7.859375 5.73046875 7.4375 8.4375 C7.30859375 9.33855469 7.1796875 10.23960937 7.046875 11.16796875 C6.92828125 11.85503906 6.8096875 12.54210937 6.6875 13.25 C5.0375 13.91 3.3875 14.57 1.6875 15.25 C1.6875 15.91 1.6875 16.57 1.6875 17.25 C2.6775 17.58 3.6675 17.91 4.6875 18.25 C3.6975 20.23 2.7075 22.21 1.6875 24.25 C1.0275 24.25 0.3675 24.25 -0.3125 24.25 C-0.42207031 23.64671875 -0.53164062 23.0434375 -0.64453125 22.421875 C-1.52918391 17.96265023 -2.240129 14.74133069 -5.3125 11.25 C-5.3125 10.59 -5.3125 9.93 -5.3125 9.25 C-4.3225 8.59 -3.3325 7.93 -2.3125 7.25 C-2.9725 5.27 -3.6325 3.29 -4.3125 1.25 C-3.3125 0.25 -3.3125 0.25 0 0 Z " fill="#F3F3F3" transform="translate(151.3125,179.75)"/>
<path d="M0 0 C2.49361571 1.20381448 4.68143083 2.45428722 7 4 C6.67 5.32 6.34 6.64 6 8 C5.1028125 8.061875 5.1028125 8.061875 4.1875 8.125 C1.64899168 8.87739901 1.64899168 8.87739901 0.25 12.0625 C-0.1625 13.031875 -0.575 14.00125 -1 15 C-0.01 15 0.98 15 2 15 C4.1875 16 4.1875 16 6 17 C4.02 19.97 4.02 19.97 2 23 C-2.34170523 20.6163187 -6.2064129 18.21880117 -10 15 C-9.1875 13.0625 -9.1875 13.0625 -8 11 C-7.01 10.67 -6.02 10.34 -5 10 C-2.22604031 7.00412353 -1.14626804 3.87967644 0 0 Z " fill="#0C0A00" transform="translate(202,65)"/>
<path d="M0 0 C1.67110042 2.96178773 2.32682752 5.37071192 2.625 8.75 C2.69976562 9.54921875 2.77453125 10.3484375 2.8515625 11.171875 C2.92503906 12.07679687 2.92503906 12.07679687 3 13 C3.99 12.67 4.98 12.34 6 12 C6 11.34 6 10.68 6 10 C7.32 9.67 8.64 9.34 10 9 C10.66 11.31 11.32 13.62 12 16 C9.87607494 16.6700834 7.75082476 17.33596797 5.625 18 C4.44164063 18.37125 3.25828125 18.7425 2.0390625 19.125 C-1 20 -1 20 -3 20 C-2.979375 18.989375 -2.95875 17.97875 -2.9375 16.9375 C-2.99687734 13.19672743 -3.39795085 9.68755102 -4 6 C-4.66 6 -5.32 6 -6 6 C-6.33 4.68 -6.66 3.36 -7 2 C-4.69 1.34 -2.38 0.68 0 0 Z " fill="#0E0C01" transform="translate(123,53)"/>
<path d="M0 0 C0.99 0 1.98 0 3 0 C3 3.3 3 6.6 3 10 C2.01 10.495 2.01 10.495 1 11 C1.66 11.33 2.32 11.66 3 12 C3 12.66 3 13.32 3 14 C2.01 14.495 2.01 14.495 1 15 C1.66 15.33 2.32 15.66 3 16 C3 17.32 3 18.64 3 20 C5.31 20.33 7.62 20.66 10 21 C10 22.32 10 23.64 10 25 C3.25 25.125 3.25 25.125 1 24 C1 23.34 1 22.68 1 22 C0.01 22 -0.98 22 -2 22 C-2.73080266 20.02253397 -3.39421747 18.01927511 -4 16 C-3.67 15.34 -3.34 14.68 -3 14 C-2.855625 12.948125 -2.71125 11.89625 -2.5625 10.8125 C-2.00342851 7.02323766 -1.11801779 3.65219144 0 0 Z " fill="#F4F4F4" transform="translate(143,205)"/>
<path d="M0 0 C2.85994777 4.28992165 5.20339151 8.82680132 7.625 13.375 C8.140625 14.32117188 8.65625 15.26734375 9.1875 16.2421875 C9.91839844 17.61890625 9.91839844 17.61890625 10.6640625 19.0234375 C11.11217285 19.85794434 11.5602832 20.69245117 12.02197266 21.55224609 C13.08727155 24.21841852 13.18968233 26.15603381 13 29 C12.01 29.33 11.02 29.66 10 30 C1.8111317 25.06887713 -4.32034487 15.65801208 -8 7 C-8 6.34 -8 5.68 -8 5 C-7.34 5 -6.68 5 -6 5 C-5.22076172 6.41152344 -5.22076172 6.41152344 -4.42578125 7.8515625 C-3.72167971 9.10955726 -3.01723415 10.36735952 -2.3125 11.625 C-1.97283203 12.24246094 -1.63316406 12.85992187 -1.28320312 13.49609375 C1.71835375 18.8259611 4.82844716 23.55229811 10 27 C9.43291094 23.43404729 8.5296478 20.8084003 6.6796875 17.71484375 C6.22722656 16.93689453 5.77476562 16.15894531 5.30859375 15.35742188 C4.34911906 13.73781814 3.38553972 12.12063935 2.41796875 10.50585938 C1.96808594 9.72919922 1.51820313 8.95253906 1.0546875 8.15234375 C0.63687012 7.45101318 0.21905273 6.74968262 -0.21142578 6.02709961 C-1.16004027 3.58860236 -0.87427306 2.42140352 0 0 Z " fill="#211E0A" transform="translate(173,153)"/>
<path d="M0 0 C0.66 0.66 1.32 1.32 2 2 C0.95607258 10.83662503 -3.81670266 18.74447954 -8.26977539 26.26538086 C-9.788458 28.83420477 -11.05240513 31.15721538 -12 34 C-5.33989445 28.93140019 -1.17423167 23.21359411 3 16 C3.66 16.66 4.32 17.32 5 18 C2.69830307 21.35636497 0.36129014 24.68530192 -2 28 C-2.67675781 28.97259766 -2.67675781 28.97259766 -3.3671875 29.96484375 C-5.5429623 32.8729872 -6.74828803 33.93351005 -10.3125 34.875 C-11.199375 34.91625 -12.08625 34.9575 -13 35 C-13.47827818 29.73893998 -11.98702898 26.57845116 -9.25 22.25 C-4.97784904 15.15230761 -1.48848892 8.22281742 0 0 Z " fill="#221F0E" transform="translate(131,145)"/>
<path d="M0 0 C0.33 0 0.66 0 1 0 C2.7812495 7.68163847 3.19292976 15.07860483 3.1875 22.9375 C3.1884668 24.30491333 3.1884668 24.30491333 3.18945312 25.69995117 C3.15513171 29.91719443 3.07219747 33.89133931 2 38 C1.67 38 1.34 38 1 38 C-0.72283435 30.83535177 -1.28348442 24.10543788 -1.1875 16.75 C-1.18685547 15.79609375 -1.18621094 14.8421875 -1.18554688 13.859375 C-1.15600845 9.13322713 -0.97443684 4.64611487 0 0 Z " fill="#FFED00" transform="translate(90,196)"/>
<path d="M0 0 C4.87437144 1.14691093 6.88117256 3.95558837 9.66796875 7.8359375 C10.89022063 9.82164876 11.67725787 11.6203908 12.4375 13.8125 C14.23428835 17.47794823 15.35966292 17.785937 19.0859375 19.0703125 C22.98896689 20.96606963 25.63491876 24.44232822 28 28 C28.9375 31.5 28.9375 31.5 29 34 C30.32 34 31.64 34 33 34 C33.495 33.01 33.495 33.01 34 32 C34.33 32.99 34.66 33.98 35 35 C34 36 34 36 31.625 36.3125 C29 36 29 36 27.375 34.4375 C26 32 26 32 24.625 28.5 C22.8360343 24.64684311 21.54739331 23.25743211 18 21 C16.824375 20.62875 15.64875 20.2575 14.4375 19.875 C9.94478251 17.42442682 9.66610364 15.18873242 8.109375 10.51171875 C6.58310413 7.05611251 4.40383707 5.33386544 1.390625 3.15625 C0.93171875 2.7746875 0.4728125 2.393125 0 2 C0 1.34 0 0.68 0 0 Z " fill="#18170F" transform="translate(91,115)"/>
<path d="M0 0 C0.66 0.33 1.32 0.66 2 1 C2 4.3 2 7.6 2 11 C3.32 11.33 4.64 11.66 6 12 C4.35 12.33 2.7 12.66 1 13 C0.67 22.24 0.34 31.48 0 41 C-0.66 40.67 -1.32 40.34 -2 40 C-2.09255287 29.57237696 -2.12457477 19.16598149 -1.5625 8.75 C-1.52326416 7.98252441 -1.48402832 7.21504883 -1.44360352 6.42431641 C-1.12687565 1.12687565 -1.12687565 1.12687565 0 0 Z " fill="#DACA00" transform="translate(128,199)"/>
<path d="M0 0 C0.625 1.875 0.625 1.875 1 4 C0.34 4.66 -0.32 5.32 -1 6 C-1 7.32 -1 8.64 -1 10 C-5.53860088 9.46604696 -8.29087883 7.5802582 -12 5 C-12.99 4.67 -13.98 4.34 -15 4 C-15 3.34 -15 2.68 -15 2 C-9.92523206 0.73694665 -5.27203646 -0.27036084 0 0 Z " fill="#121212" transform="translate(202,106)"/>
<path d="M0 0 C0.33 1.32 0.66 2.64 1 4 C2.65 4.33 4.3 4.66 6 5 C6.12308347 16.05016019 5.83058514 26.97991499 5 38 C4.67 38 4.34 38 4 38 C3.34 27.11 2.68 16.22 2 5 C1.34 5 0.68 5 0 5 C0 3.35 0 1.7 0 0 Z " fill="#E0CD00" transform="translate(160,186)"/>
<path d="M0 0 C0.99 0.33 1.98 0.66 3 1 C3 8.92 3 16.84 3 25 C2.01 24.67 1.02 24.34 0 24 C0 16.08 0 8.16 0 0 Z " fill="#C4B400" transform="translate(81,196)"/>
<path d="M0 0 C3.29714793 0.32971479 4.6226839 0.6226839 7 3 C7.25 5.5 7.25 5.5 7 8 C6.34 8.66 5.68 9.32 5 10 C1.70285207 9.67028521 0.3773161 9.3773161 -2 7 C-2.25 4.5 -2.25 4.5 -2 2 C-1.34 1.34 -0.68 0.68 0 0 Z " fill="#F8E200" transform="translate(93,72)"/>
<path d="M0 0 C1.59138085 4.17737474 2.21278058 7.53160785 2 12 C0.35 12.33 -1.3 12.66 -3 13 C-4.29243536 8.8803623 -5.26252625 5.33168317 -5 1 C-3 0 -3 0 0 0 Z " fill="#2C2C2C" transform="translate(180,271)"/>
<path d="M0 0 C3.63 1.32 7.26 2.64 11 4 C11 4.66 11 5.32 11 6 C9.02 6.33 7.04 6.66 5 7 C5.825 7.45375 6.65 7.9075 7.5 8.375 C8.325 8.91125 9.15 9.4475 10 10 C10 10.66 10 11.32 10 12 C5.71 11.67 1.42 11.34 -3 11 C-3 10.01 -3 9.02 -3 8 C-0.69 8.33 1.62 8.66 4 9 C3.175 8.54625 2.35 8.0925 1.5 7.625 C0.675 7.08875 -0.15 6.5525 -1 6 C-1 5.34 -1 4.68 -1 4 C0.98 4 2.96 4 5 4 C2.525 3.01 2.525 3.01 0 2 C0 1.34 0 0.68 0 0 Z " fill="#2E2D2D" transform="translate(18,112)"/>
<path d="M0 0 C0 0.66 0 1.32 0 2 C-1.32 2.33 -2.64 2.66 -4 3 C-2.68 3.33 -1.36 3.66 0 4 C0 4.66 0 5.32 0 6 C-1.98 6.99 -1.98 6.99 -4 8 C-2.35 8 -0.7 8 1 8 C1 8.66 1 9.32 1 10 C-3.0527516 10.98248524 -6.83861737 11.08159574 -11 11 C-11 10.01 -11 9.02 -11 8 C-9.02 7.34 -7.04 6.68 -5 6 C-7.31 5.67 -9.62 5.34 -12 5 C-11.67 4.01 -11.34 3.02 -11 2 C-7.12137916 0.60955102 -4.13537997 0 0 0 Z " fill="#2B2A29" transform="translate(26,167)"/>
<path d="M0 0 C1.65 0 3.3 0 5 0 C6.41404314 3.80024093 7.34892324 6.92922882 7 11 C6.67 11.33 6.34 11.66 6 12 C4.35 12 2.7 12 1 12 C0.67 8.04 0.34 4.08 0 0 Z " fill="#1D1C1C" transform="translate(162,274)"/>
<path d="M0 0 C2.3828125 0.2421875 2.3828125 0.2421875 5.125 0.875 C6.03507812 1.07867187 6.94515625 1.28234375 7.8828125 1.4921875 C8.58148438 1.65976563 9.28015625 1.82734375 10 2 C10.625 3.875 10.625 3.875 11 6 C10.34 6.66 9.68 7.32 9 8 C6.90625 7.8984375 6.90625 7.8984375 4.5 7.375 C3.7059375 7.21773437 2.911875 7.06046875 2.09375 6.8984375 C0 6 0 6 -1.28125 3.9140625 C-1.5184375 3.28242188 -1.755625 2.65078125 -2 2 C-1.34 1.34 -0.68 0.68 0 0 Z " fill="#222221" transform="translate(271,183)"/>
<path d="M0 0 C1.32 0.66 2.64 1.32 4 2 C3.38545304 5.99455527 1.29353263 8.74466336 -1 12 C-2.9375 11.6875 -2.9375 11.6875 -5 11 C-5.33 10.01 -5.66 9.02 -6 8 C-4.78515625 5.95703125 -4.78515625 5.95703125 -3.0625 3.8125 C-2.49660156 3.09707031 -1.93070312 2.38164062 -1.34765625 1.64453125 C-0.90292969 1.10183594 -0.45820312 0.55914062 0 0 Z " fill="#262525" transform="translate(75,251)"/>
<path d="M0 0 C3.34998521 1.11666174 3.79340222 1.74694925 5.6875 4.5625 C6.34298828 5.52349609 6.34298828 5.52349609 7.01171875 6.50390625 C7.33785156 6.99761719 7.66398438 7.49132812 8 8 C7.34 9.32 6.68 10.64 6 12 C2.94042532 11.67218843 1.94163866 10.94321599 -0.3125 8.75 C-2 6 -2 6 -1.8125 3.25 C-1 1 -1 1 0 0 Z " fill="#242424" transform="translate(222,251)"/>
<path d="M0 0 C0.33 0.66 0.66 1.32 1 2 C-0.98 2.99 -0.98 2.99 -3 4 C-1.35 4.33 0.3 4.66 2 5 C1.01 6.32 0.02 7.64 -1 9 C0.65 8.67 2.3 8.34 4 8 C4 8.66 4 9.32 4 10 C-0.17737474 11.59138085 -3.53160785 12.21278058 -8 12 C-7 9 -7 9 -4 7 C-5.98 7 -7.96 7 -10 7 C-9 4 -9 4 -6.93359375 2.83203125 C-6.10988281 2.49558594 -5.28617188 2.15914062 -4.4375 1.8125 C-3.61121094 1.46832031 -2.78492188 1.12414062 -1.93359375 0.76953125 C-1.29550781 0.51558594 -0.65742188 0.26164063 0 0 Z " fill="#2A2A2A" transform="translate(28,184)"/>
<path d="M0 0 C0.57234375 0.21527344 1.1446875 0.43054688 1.734375 0.65234375 C1.609375 2.96484375 1.609375 2.96484375 0.734375 5.65234375 C-2.92927593 8.01336324 -4.86343968 8.65234375 -9.265625 8.65234375 C-9.595625 7.33234375 -9.925625 6.01234375 -10.265625 4.65234375 C-9.02618224 3.78292881 -7.77355441 2.93228918 -6.515625 2.08984375 C-5.81953125 1.61417969 -5.1234375 1.13851562 -4.40625 0.6484375 C-2.265625 -0.34765625 -2.265625 -0.34765625 0 0 Z " fill="#1B1B1A" transform="translate(271.265625,88.34765625)"/>
<path d="M0 0 C0.99 0 1.98 0 3 0 C3 0.66 3 1.32 3 2 C3.99 2 4.98 2 6 2 C5.60446947 3.6510403 5.18286103 5.2958515 4.75 6.9375 C4.51796875 7.85402344 4.2859375 8.77054688 4.046875 9.71484375 C3 12 3 12 1.015625 12.87890625 C-1 13 -1 13 -3 12 C-2.01 8.04 -1.02 4.08 0 0 Z " fill="#8D8D8D" transform="translate(192,20)"/>
<path d="M0 0 C3.85025879 0.60355408 6.86101159 1.76772603 10.3125 3.5625 C11.19550781 4.01753906 12.07851562 4.47257812 12.98828125 4.94140625 C13.98408203 5.46541016 13.98408203 5.46541016 15 6 C15 6.66 15 7.32 15 8 C10.02548281 8.28699138 7.84583699 8.0766696 4 5 C0.22439213 4.53956002 -0.74236778 4.82824519 -4 7 C-5.32 7 -6.64 7 -8 7 C-8 6.34 -8 5.68 -8 5 C-7.05125 4.731875 -6.1025 4.46375 -5.125 4.1875 C-1.74732727 3.25013412 -1.74732727 3.25013412 0 0 Z " fill="#151515" transform="translate(149,104)"/>
<path d="M0 0 C1.918125 0.4640625 1.918125 0.4640625 3.875 0.9375 C8.88758722 2.06114833 13.88510956 2.59422581 19 3 C19 3.33 19 3.66 19 4 C17.1746875 4.4021875 17.1746875 4.4021875 15.3125 4.8125 C12.49611055 5.49797045 10.76656821 6.14324223 8.25 7.6875 C6 9 6 9 3.6875 8.6875 C3.130625 8.460625 2.57375 8.23375 2 8 C2 7.34 2 6.68 2 6 C2.99 6 3.98 6 5 6 C5 5.34 5 4.68 5 4 C3.35 3.67 1.7 3.34 0 3 C0 2.01 0 1.02 0 0 Z " fill="#0A0A0A" transform="translate(106,98)"/>
<path d="M0 0 C2.40501089 2.32742989 4.70766933 4.65661782 6.87890625 7.20703125 C12.88838561 14.23469127 19.5615515 19.59649027 27 25 C26.34 25.66 25.68 26.32 25 27 C4.63576159 10.11258278 4.63576159 10.11258278 0 2 C0 1.34 0 0.68 0 0 Z " fill="#282201" transform="translate(59,214)"/>
<path d="M0 0 C5.94 0.99 5.94 0.99 12 2 C12 2.66 12 3.32 12 4 C10.02 4 8.04 4 6 4 C6.33 4.66 6.66 5.32 7 6 C6.01 6.495 6.01 6.495 5 7 C7.97 7.495 7.97 7.495 11 8 C11 8.99 11 9.98 11 11 C6.71 10.34 2.42 9.68 -2 9 C-2 8.34 -2 7.68 -2 7 C-0.02 6.67 1.96 6.34 4 6 C4 5.34 4 4.68 4 4 C2.68 3.34 1.36 2.68 0 2 C0 1.34 0 0.68 0 0 Z " fill="#333333" transform="translate(274,167)"/>
<path d="M0 0 C0.433125 0.474375 0.86625 0.94875 1.3125 1.4375 C3.02309613 3.23686957 3.02309613 3.23686957 6 4 C6 4.66 6 5.32 6 6 C5.34 6 4.68 6 4 6 C4 7.65 4 9.3 4 11 C1.69 11 -0.62 11 -3 11 C-3.66 8.69 -4.32 6.38 -5 4 C-3.68 4 -2.36 4 -1 4 C-0.67 2.68 -0.34 1.36 0 0 Z " fill="#FFE00F" transform="translate(280,142)"/>
<path d="M0 0 C0.433125 0.45375 0.86625 0.9075 1.3125 1.375 C3.10798342 3.20024334 3.10798342 3.20024334 6 5 C5.34 6.98 4.68 8.96 4 11 C3.401875 10.814375 2.80375 10.62875 2.1875 10.4375 C-0.16408762 9.77906313 -0.16408762 9.77906313 -3 11 C-3.66 8.69 -4.32 6.38 -5 4 C-3.68 4 -2.36 4 -1 4 C-0.67 2.68 -0.34 1.36 0 0 Z " fill="#FFE009" transform="translate(18,142)"/>
<path d="M0 0 C0.66 0 1.32 0 2 0 C2 0.99 2 1.98 2 3 C3.32 3 4.64 3 6 3 C5.34 5.31 4.68 7.62 4 10 C2.02 10 0.04 10 -2 10 C-2.66 7.69 -3.32 5.38 -4 3 C-2.68 3 -1.36 3 0 3 C0 2.01 0 1.02 0 0 Z " fill="#1F1B01" transform="translate(58,158)"/>
<path d="M0 0 C1.32 0.33 2.64 0.66 4 1 C5.21386936 4.64160808 4.6674695 5.33165469 3.0625 8.6875 C2.68222656 9.49574219 2.30195313 10.30398437 1.91015625 11.13671875 C1.60980469 11.75160156 1.30945313 12.36648437 1 13 C0.34 13 -0.32 13 -1 13 C-0.67 11.02 -0.34 9.04 0 7 C-0.66 7 -1.32 7 -2 7 C-2.33 8.32 -2.66 9.64 -3 11 C-3.66 10.67 -4.32 10.34 -5 10 C-3.35 6.7 -1.7 3.4 0 0 Z " fill="#232222" transform="translate(206,26)"/>
<path d="M0 0 C4.37859255 0.50522222 6.81651224 3.17827222 10 6 C9.01 6 8.02 6 7 6 C6.01 6.495 6.01 6.495 5 7 C5.99 7.66 6.98 8.32 8 9 C8 9.66 8 10.32 8 11 C7.34 11 6.68 11 6 11 C6 10.34 6 9.68 6 9 C5.4225 8.731875 4.845 8.46375 4.25 8.1875 C1.9674132 6.98280141 0.0262058 5.59201885 -2 4 C-1.34 2.68 -0.68 1.36 0 0 Z " fill="#4D4D4D" transform="translate(43,64)"/>
<path d="M0 0 C3.15330554 0.60694155 5.18888867 1.6416665 7.75 3.5625 C8.67039062 4.24505859 8.67039062 4.24505859 9.609375 4.94140625 C10.29773438 5.46541016 10.29773438 5.46541016 11 6 C8 7 8 7 5 7 C5.99 7.66 6.98 8.32 8 9 C7.67 9.66 7.34 10.32 7 11 C4.03 8.69 1.06 6.38 -2 4 C-1.34 2.68 -0.68 1.36 0 0 Z " fill="#4C4C4C" transform="translate(250,224)"/>
<path d="M0 0 C2.88043977 4.32065965 5.28634123 8.86959403 7.75 13.4375 C8.28238281 14.39205078 8.81476563 15.34660156 9.36328125 16.33007812 C10.10384766 17.71163086 10.10384766 17.71163086 10.859375 19.12109375 C11.31795898 19.9608374 11.77654297 20.80058105 12.24902344 21.66577148 C13 24 13 24 12.13378906 26.30493164 C11.75963867 26.8643042 11.38548828 27.42367676 11 28 C10.8040625 27.44054687 10.608125 26.88109375 10.40625 26.3046875 C8.07141099 20.04490361 5.10163258 14.46367892 1.5546875 8.82373047 C-1.05707026 4.51115105 -1.05707026 4.51115105 -0.73046875 1.5859375 C-0.48941406 1.06257812 -0.24835938 0.53921875 0 0 Z " fill="#262312" transform="translate(173,153)"/>
<path d="M0 0 C2.97 0 5.94 0 9 0 C9.042721 1.66611905 9.04063832 3.33382885 9 5 C8 6 8 6 4.5 6.125 C1 6 1 6 0 5 C-0.04063832 3.33382885 -0.042721 1.66611905 0 0 Z " fill="#F5E200" transform="translate(235,134)"/>
<path d="M0 0 C0.66 0 1.32 0 2 0 C2.66 1.65 3.32 3.3 4 5 C4.66 3.68 5.32 2.36 6 1 C6 4.96 6 8.92 6 13 C5.34 13 4.68 13 4 13 C3.67 11.68 3.34 10.36 3 9 C2.67 10.32 2.34 11.64 2 13 C1.34 13 0.68 13 0 13 C0 8.71 0 4.42 0 0 Z " fill="#2E2D2D" transform="translate(150,13)"/>
<path d="M0 0 C3.0830386 2.64739184 5.51902211 5.08322067 7.78125 8.4765625 C6.79125 8.4765625 5.80125 8.4765625 4.78125 8.4765625 C3.44921875 7.015625 3.44921875 7.015625 1.96875 5.1015625 C-2.93314944 -0.15047261 -9.39270505 -0.05953153 -16.21875 -0.5234375 C-16.21875 -0.8534375 -16.21875 -1.1834375 -16.21875 -1.5234375 C-10.44304811 -2.82297042 -5.02227143 -3.4483906 0 0 Z " fill="#262315" transform="translate(200.21875,99.5234375)"/>
<path d="M0 0 C0.66 0.66 1.32 1.32 2 2 C-0.30169693 5.35636497 -2.63870986 8.68530192 -5 12 C-5.45117188 12.64839844 -5.90234375 13.29679688 -6.3671875 13.96484375 C-8.5429623 16.8729872 -9.74828803 17.93351005 -13.3125 18.875 C-14.199375 18.91625 -15.08625 18.9575 -16 19 C-16 17.35 -16 15.7 -16 14 C-15.67 15.32 -15.34 16.64 -15 18 C-8.33989445 12.93140019 -4.17423167 7.21359411 0 0 Z " fill="#1B190A" transform="translate(134,161)"/>
<path d="M0 0 C0.99 0.33 1.98 0.66 3 1 C3.33 1.99 3.66 2.98 4 4 C4.66 2.68 5.32 1.36 6 0 C6 3.96 6 7.92 6 12 C5.01 10.68 4.02 9.36 3 8 C2.67 9.32 2.34 10.64 2 12 C1.34 12 0.68 12 0 12 C0 8.04 0 4.08 0 0 Z " fill="#2C2C2C" transform="translate(148,275)"/>
<path d="M0 0 C0.66 0 1.32 0 2 0 C2.16682272 4.92127034 2.24828052 8.50343896 0 13 C-0.33 11.68 -0.66 10.36 -1 9 C-1.66 9 -2.32 9 -3 9 C-3 9.99 -3 10.98 -3 12 C-3.99 11.67 -4.98 11.34 -6 11 C-6 10.34 -6 9.68 -6 9 C-5.34 9 -4.68 9 -4 9 C-3.71125 8.2575 -3.4225 7.515 -3.125 6.75 C-2.17697356 4.43260203 -1.15154089 2.22082885 0 0 Z " fill="#4B4B4A" transform="translate(98,264)"/>
<path d="M0 0 C0.33 1.32 0.66 2.64 1 4 C3.31 4.33 5.62 4.66 8 5 C8 6.32 8 7.64 8 9 C1.47692308 9.36923077 1.47692308 9.36923077 -0.9375 7.5 C-1.4634375 6.7575 -1.4634375 6.7575 -2 6 C-1.34 4.02 -0.68 2.04 0 0 Z " fill="#D4D4D4" transform="translate(145,221)"/>
<path d="M0 0 C0.66 0 1.32 0 2 0 C2.33 0.66 2.66 1.32 3 2 C3.99 2.66 4.98 3.32 6 4 C5.34 5.65 4.68 7.3 4 9 C2.02 9 0.04 9 -2 9 C-2.66 7.02 -3.32 5.04 -4 3 C-3.01 2.67 -2.02 2.34 -1 2 C-0.67 1.34 -0.34 0.68 0 0 Z " fill="#090802" transform="translate(239,159)"/>
<path d="M0 0 C0.66 0.33 1.32 0.66 2 1 C2 1.66 2 2.32 2 3 C1.01 3.33 0.02 3.66 -1 4 C-0.67 4.66 -0.34 5.32 0 6 C1.32 5.34 2.64 4.68 4 4 C4 4.66 4 5.32 4 6 C2.1015625 7.5078125 2.1015625 7.5078125 -0.375 9.125 C-1.59316406 9.93324219 -1.59316406 9.93324219 -2.8359375 10.7578125 C-5 12 -5 12 -7 12 C-7 11.34 -7 10.68 -7 10 C-5.68 9.67 -4.36 9.34 -3 9 C-3 8.01 -3 7.02 -3 6 C-4.98 6.66 -6.96 7.32 -9 8 C-6.14723863 5.06799526 -3.34920216 2.35684596 0 0 Z " fill="#2D2D2D" transform="translate(263,74)"/>
<path d="M0 0 C0.66 0 1.32 0 2 0 C3.26237731 2.52475462 3.09856404 4.31200466 3.0625 7.125 C3.05347656 8.03507812 3.04445312 8.94515625 3.03515625 9.8828125 C3.02355469 10.58148438 3.01195312 11.28015625 3 12 C2.34 12 1.68 12 1 12 C1 11.01 1 10.02 1 9 C0.01 9 -0.98 9 -2 9 C-2.33 9.66 -2.66 10.32 -3 11 C-2.69078116 9.54096742 -2.37751201 8.08279278 -2.0625 6.625 C-1.88847656 5.81289063 -1.71445313 5.00078125 -1.53515625 4.1640625 C-1 2 -1 2 0 0 Z " fill="#4B4B4A" transform="translate(167,15)"/>
<path d="M0 0 C5.94 0.99 5.94 0.99 12 2 C12 2.66 12 3.32 12 4 C10.68 3.67 9.36 3.34 8 3 C8 3.99 8 4.98 8 6 C8.66 6 9.32 6 10 6 C10 6.66 10 7.32 10 8 C6.2089881 6.55049545 2.6125362 4.84827434 -1 3 C-0.67 2.01 -0.34 1.02 0 0 Z " fill="#232221" transform="translate(22,101)"/>
<path d="M0 0 C0.99 0.33 1.98 0.66 3 1 C3.33 4.96 3.66 8.92 4 13 C3.34 13 2.68 13 2 13 C2 11.68 2 10.36 2 9 C1.01 9 0.02 9 -1 9 C-1 9.99 -1 10.98 -1 12 C-1.66 11.67 -2.32 11.34 -3 11 C-2.01 7.37 -1.02 3.74 0 0 Z " fill="#1C1C1C" transform="translate(136,274)"/>
<path d="M0 0 C0.66 0.33 1.32 0.66 2 1 C0.72278474 5.99275057 -1.17330957 8.57611908 -5 12 C-5.33 10.68 -5.66 9.36 -6 8 C-6.99 8 -7.98 8 -9 8 C-6.03 5.36 -3.06 2.72 0 0 Z " fill="#1E1E1E" transform="translate(66,243)"/>
<path d="M0 0 C0.66 0.66 1.32 1.32 2 2 C0.02 2.99 0.02 2.99 -2 4 C-1.67 4.66 -1.34 5.32 -1 6 C0.65 5.34 2.3 4.68 4 4 C2.48328036 8.55015893 -1.16891053 10.50057264 -5 13 C-4.34 11.02 -3.68 9.04 -3 7 C-3.45375 7.495 -3.9075 7.99 -4.375 8.5 C-6 10 -6 10 -8 10 C-6.34908222 5.70761377 -3.26245434 3.1206085 0 0 Z " fill="#2C2C2C" transform="translate(55,232)"/>
<path d="M0 0 C0.77085937 -0.01417969 1.54171875 -0.02835937 2.3359375 -0.04296875 C4.84334888 0.20948393 6.45761902 0.93556533 8.625 2.1875 C8.295 2.8475 7.965 3.5075 7.625 4.1875 C2.015 4.1875 -3.595 4.1875 -9.375 4.1875 C-5.89263993 0.70513993 -4.71240184 0.03913955 0 0 Z " fill="#282828" transform="translate(151.375,112.8125)"/>
<path d="M0 0 C0 0.99 0 1.98 0 3 C0.99 3.66 1.98 4.32 3 5 C1.02 5 -0.96 5 -3 5 C-3.66 7.31 -4.32 9.62 -5 12 C-5.66 12 -6.32 12 -7 12 C-7 11.01 -7 10.02 -7 9 C-7.66 9 -8.32 9 -9 9 C-7.83709195 5.51127585 -6.86032391 4.90023136 -3.9375 2.8125 C-3.20402344 2.28269531 -2.47054687 1.75289062 -1.71484375 1.20703125 C-1.14894531 0.80871094 -0.58304688 0.41039062 0 0 Z " fill="#343434" transform="translate(47,222)"/>
<path d="M0 0 C0.66 0.33 1.32 0.66 2 1 C2 5.62 2 10.24 2 15 C1.01 14.67 0.02 14.34 -1 14 C-1.02705729 12.22925083 -1.04642195 10.45838289 -1.0625 8.6875 C-1.07410156 7.70136719 -1.08570312 6.71523437 -1.09765625 5.69921875 C-1 3 -1 3 0 0 Z " fill="#D6C600" transform="translate(109,220)"/>
<path d="M0 0 C0.99 0.33 1.98 0.66 3 1 C3 4.96 3 8.92 3 13 C2.01 13.33 1.02 13.66 0 14 C0 9.38 0 4.76 0 0 Z " fill="#D1BE00" transform="translate(198,198)"/>
<path d="M0 0 C0.66 0 1.32 0 2 0 C2.83819158 1.62249941 3.6704116 3.24808497 4.5 4.875 C4.9640625 5.77992188 5.428125 6.68484375 5.90625 7.6171875 C7 10 7 10 7 12 C3.60807637 11.40716379 1.7892243 10.23256811 -0.75 7.9375 C-1.36359375 7.38964844 -1.9771875 6.84179688 -2.609375 6.27734375 C-3.06828125 5.85582031 -3.5271875 5.43429688 -4 5 C-3.34 4.34 -2.68 3.68 -2 3 C-0.35 4.65 1.3 6.3 3 8 C2.505 7.236875 2.01 6.47375 1.5 5.6875 C0 3 0 3 0 0 Z " fill="#2D2D2D" transform="translate(233,242)"/>
<path d="M0 0 C1.65 0 3.3 0 5 0 C4.67 0.66 4.34 1.32 4 2 C3.34 1.67 2.68 1.34 2 1 C2 2.32 2 3.64 2 5 C2.99 5.33 3.98 5.66 5 6 C4.34 7.65 3.68 9.3 3 11 C4.32 10.67 5.64 10.34 7 10 C7 10.66 7 11.32 7 12 C5.02 12.33 3.04 12.66 1 13 C0.67 8.71 0.34 4.42 0 0 Z " fill="#323232" transform="translate(125,15)"/>
<path d="M0 0 C0.99 0.33 1.98 0.66 3 1 C3 1.66 3 2.32 3 3 C3.99 3 4.98 3 6 3 C5.505 3.350625 5.01 3.70125 4.5 4.0625 C2.26936034 6.94374289 2.80019379 9.47009026 3 13 C2.34 13 1.68 13 1 13 C0.67 12.01 0.34 11.02 0 10 C-0.33 10.66 -0.66 11.32 -1 12 C-1.66 11.67 -2.32 11.34 -3 11 C-2.690625 10.29875 -2.38125 9.5975 -2.0625 8.875 C-0.96697322 5.91063343 -0.43577008 3.12301892 0 0 Z " fill="#2E2E2E" transform="translate(109,268)"/>
<path d="M0 0 C2.475 0.99 2.475 0.99 5 2 C5 2.66 5 3.32 5 4 C4.34 4 3.68 4 3 4 C3.33 5.32 3.66 6.64 4 8 C2.02 8 0.04 8 -2 8 C-2.33 6.02 -2.66 4.04 -3 2 C-2.01 2 -1.02 2 0 2 C0 1.34 0 0.68 0 0 Z " fill="#1C1801" transform="translate(63,178)"/>
<path d="M0 0 C1.65 0 3.3 0 5 0 C5 2.64 5 5.28 5 8 C3.35 8.33 1.7 8.66 0 9 C0 6.03 0 3.06 0 0 Z " fill="#685A02" transform="translate(97,165)"/>
<path d="M0 0 C0.66 0 1.32 0 2 0 C2 0.66 2 1.32 2 2 C2.99 2 3.98 2 5 2 C4.67 3.98 4.34 5.96 4 8 C2.35 8 0.7 8 -1 8 C-1 6.68 -1 5.36 -1 4 C-1.66 4 -2.32 4 -3 4 C-3 3.34 -3 2.68 -3 2 C-2.01 2 -1.02 2 0 2 C0 1.34 0 0.68 0 0 Z " fill="#171401" transform="translate(234,178)"/>
<path d="M0 0 C0.66 0.33 1.32 0.66 2 1 C1.4946875 1.37511719 0.989375 1.75023438 0.46875 2.13671875 C-3.63094752 5.19148432 -3.63094752 5.19148432 -5.625 9.6875 C-4.9206305 12.29366716 -4.09616351 13.34053722 -2 15 C-5 15 -5 15 -6.75 13.9375 C-8 12 -8 12 -8.125 8.625 C-6.64156957 3.84505749 -4.22348559 2.39294092 0 0 Z " fill="#161409" transform="translate(94,100)"/>
<path d="M0 0 C0.66 0.33 1.32 0.66 2 1 C1.67 1.99 1.34 2.98 1 4 C2.32 3.67 3.64 3.34 5 3 C4.67 4.32 4.34 5.64 4 7 C5.32 7 6.64 7 8 7 C8.66 6.34 9.32 5.68 10 5 C9.67 6.65 9.34 8.3 9 10 C4.98905773 10 3.25671275 8.23899001 0 6 C-0.99 5.67 -1.98 5.34 -3 5 C-1.125 1.125 -1.125 1.125 0 0 Z " fill="#2F2F2F" transform="translate(35,75)"/>
<path d="M0 0 C0.33 0 0.66 0 1 0 C2.20443195 7.05453001 3.28100502 13.83437211 3 21 C2.67 19.68 2.34 18.36 2 17 C1.34 17 0.68 17 0 17 C0 11.39 0 5.78 0 0 Z " fill="#FFF200" transform="translate(117,219)"/>
<path d="M0 0 C0.33 0.66 0.66 1.32 1 2 C2.98 2 4.96 2 7 2 C7 2.66 7 3.32 7 4 C5.3767313 4.6708712 3.75132422 5.33657029 2.125 6 C0.76761719 6.556875 0.76761719 6.556875 -0.6171875 7.125 C-3 8 -3 8 -5 8 C-5 7.01 -5 6.02 -5 5 C-3.35 4.67 -1.7 4.34 0 4 C-0.66 3.67 -1.32 3.34 -2 3 C-2 2.34 -2 1.68 -2 1 C-1.34 0.67 -0.68 0.34 0 0 Z " fill="#2F2F2F" transform="translate(273,105)"/>
<path d="M0 0 C-0.33 0.66 -0.66 1.32 -1 2 C-1.845625 2.2475 -2.69125 2.495 -3.5625 2.75 C-8.04810728 4.38112992 -11.31349375 7.02459648 -15 10 C-15 7 -15 7 -13.2421875 5.17578125 C-5.42875903 -0.97439265 -5.42875903 -0.97439265 0 0 Z " fill="#1F1D12" transform="translate(111,91)"/>
<path d="M0 0 C0.33 0 0.66 0 1 0 C1 6.27 1 12.54 1 19 C0.34 19.33 -0.32 19.66 -1 20 C-1.66 17.69 -2.32 15.38 -3 13 C-2.34 13 -1.68 13 -1 13 C-0.67 8.71 -0.34 4.42 0 0 Z " fill="#332C05" transform="translate(160,167)"/>
<path d="M0 0 C2.475 0.99 2.475 0.99 5 2 C5 2.66 5 3.32 5 4 C4.34 4 3.68 4 3 4 C3 3.34 3 2.68 3 2 C0.72478134 4.16687491 -1.15794162 6.45620509 -3 9 C-2.01 9.33 -1.02 9.66 0 10 C0 10.66 0 11.32 0 12 C-1.65 11.67 -3.3 11.34 -5 11 C-5 7.58678765 -4.33132534 6.60527115 -2.5 3.8125 C-2.0359375 3.09707031 -1.571875 2.38164063 -1.09375 1.64453125 C-0.7328125 1.10183594 -0.371875 0.55914062 0 0 Z " fill="#313131" transform="translate(219,33)"/>
<path d="M0 0 C0.7425 0.763125 1.485 1.52625 2.25 2.3125 C4.823554 4.95571199 4.823554 4.95571199 7.3125 6.6875 C7.869375 7.120625 8.42625 7.55375 9 8 C9 8.66 9 9.32 9 10 C5 8.66666667 1 7.33333333 -3 6 C-3 5.34 -3 4.68 -3 4 C-1.68 4 -0.36 4 1 4 C0.34 3.01 -0.32 2.02 -1 1 C-0.67 0.67 -0.34 0.34 0 0 Z " fill="#2C2B2A" transform="translate(258,212)"/>
<path d="M0 0 C0.99 0 1.98 0 3 0 C3 2.97 3 5.94 3 9 C1.68 8.67 0.36 8.34 -1 8 C-1.04241723 5.66705225 -1.04092937 3.33297433 -1 1 C-0.67 0.67 -0.34 0.34 0 0 Z " fill="#6E6202" transform="translate(193,165)"/>
<path d="M0 0 C2 1 2 1 4 3 C3.625 5.625 3.625 5.625 3 8 C2.01 8.33 1.02 8.66 0 9 C-1.125 6.1875 -1.125 6.1875 -2 3 C-1.34 2.01 -0.68 1.02 0 0 Z " fill="#DFDFDF" transform="translate(141,218)"/>
<path d="M0 0 C0.66 0 1.32 0 2 0 C0.55049595 4.35647645 -1.67747112 7.31757289 -4.625 10.8125 C-5.85089844 12.27623047 -5.85089844 12.27623047 -7.1015625 13.76953125 C-8.04128906 14.87361328 -8.04128906 14.87361328 -9 16 C-9 11.99338309 -7.46079042 10.60290616 -5.0625 7.4375 C-2.29557496 3.86509981 -2.29557496 3.86509981 0 0 Z " fill="#2B2501" transform="translate(242,209)"/>
<path d="M0 0 C0.99 0 1.98 0 3 0 C2.67 2.64 2.34 5.28 2 8 C0.66666667 8 -0.66666667 8 -2 8 C-1.125 1.125 -1.125 1.125 0 0 Z " fill="#F5E600" transform="translate(129,142)"/>
<path d="M0 0 C0.99 0.33 1.98 0.66 3 1 C5.3406065 0.72230092 7.67624308 0.39460023 10 0 C10 0.66 10 1.32 10 2 C8 3.625 8 3.625 6 5 C5.34 4.67 4.68 4.34 4 4 C3.01 4 2.02 4 1 4 C0.01 4 -0.98 4 -2 4 C-1.34 2.68 -0.68 1.36 0 0 Z " fill="#1D1C1C" transform="translate(27,205)"/>
<path d="M0 0 C0.66 0 1.32 0 2 0 C2.66 2.64 3.32 5.28 4 8 C5.32 8 6.64 8 8 8 C8.33 7.34 8.66 6.68 9 6 C9.33 6.99 9.66 7.98 10 9 C9 10 9 10 6.625 10.3125 C4 10 4 10 2.25 8.375 C0.78068703 5.58330536 0.35446487 3.11929086 0 0 Z " fill="#2A2923" transform="translate(116,141)"/>
<path d="M0 0 C0.99 0.33 1.98 0.66 3 1 C3 3.31 3 5.62 3 8 C1.68 8.33 0.36 8.66 -1 9 C-0.67 8.01 -0.34 7.02 0 6 C-0.31802943 4.33034549 -0.64984951 2.66321482 -1 1 C-0.67 0.67 -0.34 0.34 0 0 Z " fill="#5F5404" transform="translate(206,165)"/>
<path d="M0 0 C-1 3 -1 3 -3.9375 4.6875 C-7 6 -7 6 -9 6 C-8.75 4.125 -8.75 4.125 -8 2 C-5.06004981 -0.02755186 -3.72295997 0 0 0 Z " fill="#E2E2E2" transform="translate(272,90)"/>
<path d="M0 0 C0.66 0 1.32 0 2 0 C3.60725635 3.21451269 3.05748185 6.43612536 3 10 C2.01 10 1.02 10 0 10 C0 6.7 0 3.4 0 0 Z " fill="#E2E2E2" transform="translate(164,275)"/>
<path d="M0 0 C0.66 0 1.32 0 2 0 C6 5.29411765 6 5.29411765 6 9 C2.66476748 7.61990379 0.81392049 6.15049348 -1 3 C-0.67 2.01 -0.34 1.02 0 0 Z " fill="#EBEBEB" transform="translate(222,253)"/>
<path d="M0 0 C0.99 0 1.98 0 3 0 C3 2.31 3 4.62 3 7 C1.68 7 0.36 7 -1 7 C-0.67 4.69 -0.34 2.38 0 0 Z M-2 7 C-0.02 7.99 -0.02 7.99 2 9 C0.68 9.33 -0.64 9.66 -2 10 C-2 9.01 -2 8.02 -2 7 Z " fill="#B9B9B9" transform="translate(143,205)"/>
<path d="M0 0 C0.66 0 1.32 0 2 0 C1.731875 0.515625 1.46375 1.03125 1.1875 1.5625 C-0.32349407 4.66401415 -1.65572726 7.82262806 -3 11 C-2.01 11.33 -1.02 11.66 0 12 C-0.99 12.495 -0.99 12.495 -2 13 C-4.125 12.0625 -4.125 12.0625 -6 11 C-4.18690997 7.22272911 -2.0926741 3.62730178 0 0 Z " fill="#2C2C2C" transform="translate(86,258)"/>
<path d="M0 0 C1.74959319 2.62438979 2.62068453 3.96547627 3 7 C2.34 7.99 1.68 8.98 1 10 C1.66 10.33 2.32 10.66 3 11 C3.625 13.0625 3.625 13.0625 4 15 C3.01 14.67 2.02 14.34 1 14 C-0.38226016 11.23547967 -0.09525387 8.9538637 -0.0625 5.875 C-0.05347656 4.77929688 -0.04445312 3.68359375 -0.03515625 2.5546875 C-0.02355469 1.71164063 -0.01195312 0.86859375 0 0 Z " fill="#38341E" transform="translate(138,213)"/>
<path d="M0 0 C0.66 0.33 1.32 0.66 2 1 C2 1.66 2 2.32 2 3 C0.58603098 3.50757862 -0.83131729 4.00574925 -2.25 4.5 C-3.43335938 4.91765625 -3.43335938 4.91765625 -4.640625 5.34375 C-7 6 -7 6 -11 6 C-10.34 4.68 -9.68 3.36 -9 2 C-8.01 2.33 -7.02 2.66 -6 3 C-3.99187074 2.01642648 -1.99145391 1.01691264 0 0 Z " fill="#353535" transform="translate(38,208)"/>
<path d="M0 0 C0.99 0.33 1.98 0.66 3 1 C3 4.11257569 2.82638376 6.10765685 2 9 C0.68 8.67 -0.64 8.34 -2 8 C-2 7.34 -2 6.68 -2 6 C-1.34 5.67 -0.68 5.34 0 5 C-0.2784375 4.0409375 -0.2784375 4.0409375 -0.5625 3.0625 C-0.7790625 2.0415625 -0.7790625 2.0415625 -1 1 C-0.67 0.67 -0.34 0.34 0 0 Z " fill="#695A02" transform="translate(90,165)"/>
<path d="M0 0 C0.99 0 1.98 0 3 0 C1.87548273 2.9719385 0.77706209 5.33440687 -1 8 C-1.99 8 -2.98 8 -4 8 C-2.87548273 5.0280615 -1.77706209 2.66559313 0 0 Z " fill="#EBEBEB" transform="translate(75,253)"/>
<path d="M0 0 C0.33 0.66 0.66 1.32 1 2 C3.64 1.67 6.28 1.34 9 1 C9 1.66 9 2.32 9 3 C4.9472484 3.98248524 1.16138263 4.08159574 -3 4 C-3 3.01 -3 2.02 -3 1 C-2.01 0.67 -1.02 0.34 0 0 Z " fill="#343434" transform="translate(18,174)"/>
<path d="M0 0 C0.99 0.33 1.98 0.66 3 1 C3.33 3.64 3.66 6.28 4 9 C3.01 9 2.02 9 1 9 C0.67 6.03 0.34 3.06 0 0 Z " fill="#EAEAEA" transform="translate(177,273)"/>
<path d="M0 0 C2.64 0.33 5.28 0.66 8 1 C8.33 1.99 8.66 2.98 9 4 C6.36 3.67 3.72 3.34 1 3 C0.67 2.01 0.34 1.02 0 0 Z " fill="#ECECEC" transform="translate(271,185)"/>
<path d="M0 0 C1.32 0 2.64 0 4 0 C3.814375 1.11375 3.62875 2.2275 3.4375 3.375 C2.68319343 6.82568861 2.68319343 6.82568861 4 9 C2.68 9 1.36 9 0 9 C0 6.03 0 3.06 0 0 Z " fill="#615302" transform="translate(109,165)"/>
<path d="M0 0 C0.33 0.66 0.66 1.32 1 2 C1.99 2.33 2.98 2.66 4 3 C3.01 4.98 2.02 6.96 1 9 C0.34 9 -0.32 9 -1 9 C-1.125 2.25 -1.125 2.25 0 0 Z " fill="#EBEBEB" transform="translate(152,195)"/>
<path d="M0 0 C-0.6875 1.9375 -0.6875 1.9375 -2 4 C-4.3125 4.6875 -4.3125 4.6875 -7 5 C-7.928125 5.185625 -8.85625 5.37125 -9.8125 5.5625 C-10.534375 5.706875 -11.25625 5.85125 -12 6 C-12 5.34 -12 4.68 -12 4 C-10.3767313 3.3291288 -8.75132422 2.66342971 -7.125 2 C-6.22007812 1.62875 -5.31515625 1.2575 -4.3828125 0.875 C-2 0 -2 0 0 0 Z " fill="#232323" transform="translate(278,100)"/>
<path d="M0 0 C0.33 0 0.66 0 1 0 C1.04898438 0.92683594 1.09796875 1.85367188 1.1484375 2.80859375 C1.22320312 4.00613281 1.29796875 5.20367187 1.375 6.4375 C1.44460937 7.63246094 1.51421875 8.82742187 1.5859375 10.05859375 C1.72257813 11.02925781 1.85921875 11.99992188 2 13 C2.66 13.33 3.32 13.66 4 14 C2.68 14.33 1.36 14.66 0 15 C0 10.05 0 5.1 0 0 Z " fill="#FDEF00" transform="translate(183,221)"/>
<path d="M0 0 C2.66666667 2.66666667 5.33333333 5.33333333 8 8 C7.67 8.99 7.34 9.98 7 11 C5.82750647 9.54634731 4.66216184 8.08692581 3.5 6.625 C2.52546875 5.40683594 2.52546875 5.40683594 1.53125 4.1640625 C0 2 0 2 0 0 Z " fill="#393000" transform="translate(59,214)"/>
<path d="M0 0 C0 0.66 0 1.32 0 2 C-6.93 1.505 -6.93 1.505 -14 1 C-14 0.67 -14 0.34 -14 0 C-8.97703996 -1.13016601 -5.02125926 -0.77916092 0 0 Z " fill="#2C291F" transform="translate(198,98)"/>
<path d="M0 0 C0.99 0 1.98 0 3 0 C1.66666667 4 0.33333333 8 -1 12 C-1.66 12 -2.32 12 -3 12 C-2.01 8.04 -1.02 4.08 0 0 Z " fill="#383838" transform="translate(192,20)"/>
<path d="M0 0 C-0.99 0.33 -1.98 0.66 -3 1 C-3.33 3.31 -3.66 5.62 -4 8 C-4.66 8 -5.32 8 -6 8 C-6 5.36 -6 2.72 -6 0 C-3.50907189 -1.24546405 -2.58919267 -0.7767578 0 0 Z " fill="#FFF600" transform="translate(196,165)"/>
<path d="M0 0 C0.99 0 1.98 0 3 0 C3.19335938 0.71027344 3.38671875 1.42054687 3.5859375 2.15234375 C3.84632812 3.07144531 4.10671875 3.99054687 4.375 4.9375 C4.63023438 5.85402344 4.88546875 6.77054688 5.1484375 7.71484375 C5.76660104 10.16745087 5.76660104 10.16745087 8 11 C7.01 11.33 6.02 11.66 5 12 C4.16180842 10.37750059 3.3295884 8.75191503 2.5 7.125 C2.0359375 6.22007813 1.571875 5.31515625 1.09375 4.3828125 C0 2 0 2 0 0 Z " fill="#2A2929" transform="translate(88,27)"/>
<path d="M0 0 C2.64 1.65 5.28 3.3 8 5 C8.33 4.01 8.66 3.02 9 2 C8.67 3.65 8.34 5.3 8 7 C4.66272214 5.82744291 2.22562513 4.81131596 0 2 C0 1.34 0 0.68 0 0 Z " fill="#191708" transform="translate(177,176)"/>
<path d="M0 0 C4.41889613 1.35021826 6.34345343 3.26115668 9 7 C8.01 7.66 7.02 8.32 6 9 C5.7525 8.2575 5.505 7.515 5.25 6.75 C3.90852699 3.79875938 2.39094474 2.15185026 0 0 Z " fill="#373737" transform="translate(155,132)"/>
<path d="M0 0 C0.99 0.33 1.98 0.66 3 1 C2.67 2.65 2.34 4.3 2 6 C1.01 6.33 0.02 6.66 -1 7 C-1.625 4.625 -1.625 4.625 -2 2 C-1.34 1.34 -0.68 0.68 0 0 Z " fill="#232323" transform="translate(165,117)"/>
<path d="M0 0 C7.25806452 5.96774194 7.25806452 5.96774194 9 8 C9 8.66 9 9.32 9 10 C4.71095765 8.4114658 2.67654474 5.56872632 0 2 C0 1.34 0 0.68 0 0 Z " fill="#333333" transform="translate(59,47)"/>
<path d="M0 0 C0.99 0.66 1.98 1.32 3 2 C2.67 3.32 2.34 4.64 2 6 C0.68 6 -0.64 6 -2 6 C-1.125 1.125 -1.125 1.125 0 0 Z " fill="#8B8A8A" transform="translate(208,26)"/>
<path d="M0 0 C0.33 0.66 0.66 1.32 1 2 C1.66 2 2.32 2 3 2 C3.33 1.34 3.66 0.68 4 0 C4 2.31 4 4.62 4 7 C3.67 6.34 3.34 5.68 3 5 C2.34 5 1.68 5 1 5 C0.67 5.66 0.34 6.32 0 7 C0 4.69 0 2.38 0 0 Z " fill="#FEF400" transform="translate(105,166)"/>
<path d="M0 0 C0.99 0.33 1.98 0.66 3 1 C2.67 3.31 2.34 5.62 2 8 C1.34 8 0.68 8 0 8 C-0.98120464 4.94736336 -0.98120464 3.05263664 0 0 Z " fill="#737373" transform="translate(136,274)"/>
<path d="M0 0 C0.66 0.33 1.32 0.66 2 1 C1.34 2.98 0.68 4.96 0 7 C-1.32 6.67 -2.64 6.34 -4 6 C-2.68 4.02 -1.36 2.04 0 0 Z " fill="#676767" transform="translate(66,243)"/>
<path d="M0 0 C2.64752004 2.57784846 4.94432065 4.91648098 7 8 C6.01 8 5.02 8 4 8 C0 3.77142857 0 3.77142857 0 0 Z " fill="#262314" transform="translate(171,168)"/>
<path d="M0 0 C1.9375 0.8125 1.9375 0.8125 4 2 C4.33 2.99 4.66 3.98 5 5 C2.36 4.67 -0.28 4.34 -3 4 C-2.01 2.68 -1.02 1.36 0 0 Z " fill="#222121" transform="translate(135,115)"/>
<path d="M0 0 C0.66 0.33 1.32 0.66 2 1 C0.02 3.97 0.02 3.97 -2 7 C-2.99 6.01 -3.98 5.02 -5 4 C-3.35 2.68 -1.7 1.36 0 0 Z " fill="#E7D900" transform="translate(230,111)"/>
<path d="M0 0 C0.66 0 1.32 0 2 0 C5 3.46153846 5 3.46153846 5 6 C3.35 5.67 1.7 5.34 0 5 C0 3.35 0 1.7 0 0 Z " fill="#D7C500" transform="translate(214,92)"/>
<path d="M0 0 C2.475 0.495 2.475 0.495 5 1 C4.67 2.32 4.34 3.64 4 5 C2.68 5.33 1.36 5.66 0 6 C0.33 5.34 0.66 4.68 1 4 C1.66 4 2.32 4 3 4 C2.01 2.68 1.02 1.36 0 0 Z " fill="#323131" transform="translate(277,185)"/>
<path d="M0 0 C0.99 0.99 1.98 1.98 3 3 C3.99 3.66 4.98 4.32 6 5 C5.01 5 4.02 5 3 5 C2.67 6.32 2.34 7.64 2 9 C1.34 6.03 0.68 3.06 0 0 Z " fill="#E6D500" transform="translate(172,147)"/>
<path d="M0 0 C3.91402949 1.26941497 5.79072873 2.51167694 8 6 C4.65750371 5.40312566 2.53563658 4.26396123 0 2 C0 1.34 0 0.68 0 0 Z " fill="#22201B" transform="translate(91,115)"/>
<path d="M0 0 C0.99 0 1.98 0 3 0 C3 0.66 3 1.32 3 2 C4.32 2.33 5.64 2.66 7 3 C3.71023192 4.09658936 2.28696233 3.79953138 -1 3 C-0.67 2.01 -0.34 1.02 0 0 Z " fill="#757575" transform="translate(22,101)"/>
<path d="M0 0 C-0.33 0.66 -0.66 1.32 -1 2 C-3.3140622 2.73075648 -5.64828869 3.40138258 -8 4 C-8 3.01 -8 2.02 -8 1 C-5.29120665 -0.35439668 -2.99066732 -0.06501451 0 0 Z " fill="#282517" transform="translate(111,91)"/>
<path d="M0 0 C0 0.99 0 1.98 0 3 C-1.65 3.66 -3.3 4.32 -5 5 C-5.33 4.01 -5.66 3.02 -6 2 C-3 0 -3 0 0 0 Z " fill="#E4E4E4" transform="translate(260,80)"/>
<path d="M0 0 C0.66 0 1.32 0 2 0 C3.35439668 2.70879335 3.06501451 5.00933268 3 8 C2.67 7.01 2.34 6.02 2 5 C1.34 5 0.68 5 0 5 C-0.5625 3.0625 -0.5625 3.0625 -1 1 C-0.67 0.67 -0.34 0.34 0 0 Z " fill="#E4D200" transform="translate(170,64)"/>
</svg>
