<?xml version="1.0" standalone="no"?>
<!DOCTYPE svg PUBLIC "-//W3C//DTD SVG 20010904//EN"
 "http://www.w3.org/TR/2001/REC-SVG-20010904/DTD/svg10.dtd">
<svg version="1.0" xmlns="http://www.w3.org/2000/svg"
 width="350.000000pt" height="350.000000pt" viewBox="0 0 350.000000 350.000000"
 preserveAspectRatio="xMidYMid meet">

<g transform="translate(0.000000,350.000000) scale(0.100000,-0.100000)"
fill="#000000" stroke="none">
<path d="M785 2580 c-11 -4 -31 -18 -44 -30 -42 -41 -51 -79 -51 -227 0 -124
3 -142 23 -177 12 -22 38 -49 57 -60 34 -20 50 -21 640 -24 l605 -2 3 -165 2
-165 60 40 c33 23 139 97 236 166 l175 124 102 3 c115 4 151 17 189 69 21 30
23 45 26 183 3 141 2 153 -20 194 -47 87 33 81 -1038 80 -520 0 -954 -4 -965
-9z m1951 -64 l34 -34 0 -151 0 -151 -34 -38 -34 -37 -114 -5 -113 -5 -202
-142 c-111 -79 -204 -143 -207 -143 -4 0 -6 65 -6 145 l0 145 -615 0 c-670 0
-649 -2 -694 56 -19 24 -21 40 -21 176 l0 150 34 34 34 34 952 0 952 0 34 -34z"/>
<path d="M974 2425 l-18 -55 -58 0 c-32 0 -58 -3 -58 -7 0 -5 21 -21 45 -38
25 -16 45 -33 45 -36 0 -4 -7 -26 -15 -49 -22 -62 -20 -64 29 -30 25 16 48 30
53 30 4 0 26 -14 47 -30 22 -17 41 -28 44 -25 2 2 -3 25 -12 51 -9 26 -16 51
-16 55 0 4 20 20 45 36 25 15 45 31 45 36 0 4 -27 7 -60 7 l-59 0 -16 55 c-9
30 -18 55 -20 55 -2 0 -12 -25 -21 -55z"/>
<path d="M1367 2470 c-3 -8 -11 -33 -19 -55 l-14 -40 -62 -5 -63 -5 50 -37 50
-38 -19 -55 c-10 -30 -16 -55 -12 -55 4 0 25 14 46 30 22 17 44 30 49 30 5 0
27 -14 49 -31 21 -17 41 -30 43 -27 3 2 -3 28 -13 57 l-17 54 25 16 c13 9 36
26 50 38 l25 22 -62 1 -61 0 -20 58 c-11 32 -22 51 -25 42z"/>
<path d="M2106 2425 l-17 -55 -62 0 -62 -1 23 -19 c13 -11 35 -28 50 -39 l26
-19 -16 -53 c-10 -29 -16 -54 -14 -56 1 -2 20 10 42 27 21 16 44 30 50 30 6 0
30 -13 52 -30 23 -16 44 -30 46 -30 3 0 -4 26 -15 57 -10 31 -15 59 -10 62 48
32 81 57 81 64 0 4 -27 7 -59 7 l-59 0 -12 50 c-7 28 -15 52 -19 55 -4 2 -15
-20 -25 -50z"/>
<path d="M2485 2425 l-18 -55 -61 0 -61 -1 25 -22 c14 -12 36 -29 49 -38 l24
-15 -18 -53 c-9 -29 -15 -54 -13 -57 3 -2 22 9 44 26 21 16 44 30 50 30 6 0
28 -14 49 -30 21 -17 40 -28 43 -26 2 3 -4 28 -13 56 -17 51 -17 52 4 67 12 8
34 26 49 39 l27 23 -61 1 -60 0 -18 55 c-9 30 -19 55 -21 55 -2 0 -11 -25 -20
-55z"/>
<path d="M1729 2423 l-15 -48 -64 -5 -65 -5 48 -33 c52 -37 54 -41 32 -102 -8
-24 -13 -45 -11 -48 3 -2 23 10 44 27 22 17 45 31 52 31 7 0 30 -14 52 -31 21
-17 41 -29 44 -27 2 3 -3 24 -11 48 -8 23 -15 48 -15 55 0 6 21 27 48 46 l47
34 -65 5 -64 5 -15 48 c-8 26 -17 47 -21 47 -4 0 -13 -21 -21 -47z"/>
<path d="M1594 1866 c-17 -8 -47 -28 -68 -46 -129 -113 -107 -320 43 -408 61
-36 174 -38 236 -5 88 47 138 128 137 223 0 147 -105 250 -251 250 -37 -1 -80
-7 -97 -14z"/>
<path d="M1083 1670 c-121 -62 -136 -233 -28 -316 49 -37 142 -45 195 -16 91
50 125 155 80 247 -44 91 -158 130 -247 85z"/>
<path d="M2145 1671 c-67 -30 -115 -104 -115 -177 0 -43 51 -124 94 -149 142
-83 318 47 276 204 -30 111 -152 169 -255 122z"/>
<path d="M1617 1340 c-114 -20 -248 -112 -304 -208 -31 -53 -63 -153 -63 -198
l0 -34 445 0 c369 0 445 2 445 14 0 37 -23 126 -45 175 -82 177 -286 285 -478
251z"/>
<path d="M1028 1256 c-140 -58 -220 -160 -244 -314 l-7 -42 219 2 219 3 7 63
c8 71 42 152 93 222 l36 48 -56 21 c-79 30 -191 28 -267 -3z"/>
<path d="M2098 1265 c-26 -9 -50 -20 -54 -26 -3 -6 5 -23 19 -37 42 -44 87
-146 100 -227 l12 -75 214 0 214 0 -6 53 c-12 120 -96 236 -212 292 -50 25
-73 30 -149 32 -60 2 -107 -2 -138 -12z"/>
</g>
</svg>
