<?xml version="1.0" encoding="UTF-8"?>
<svg version="1.1" xmlns="http://www.w3.org/2000/svg" width="74" height="50">
<path d="M0 0 C3.14288685 1.18920043 4.26330963 0.15140527 7.3125 -1.125 C12.09035408 -1.58003372 14.29277525 -1.65447247 18.5625 0.5625 C22.22008347 3.63819519 24.79025149 6.30825447 26.3125 10.875 C26.35491723 13.20794775 26.35342937 15.54202567 26.3125 17.875 C26.3125 19.195 26.3125 20.515 26.3125 21.875 C26.3125 22.535 26.3125 23.195 26.3125 23.875 C25.3225 24.24625 25.3225 24.24625 24.3125 24.625 C21.45598022 25.73963314 21.45598022 25.73963314 19.48046875 26.93359375 C13.25497499 30.48224798 9.54475307 29.95766939 2.625 28.1875 C0.25334596 27.66439999 0.25334596 27.66439999 -2 28.875 C-5.787295 30.28422605 -8.92839633 30.18551321 -12.6875 28.875 C-17.03044148 25.95935212 -20.69145934 22.79207578 -22.6875 17.875 C-23.44196234 12.27042265 -22.14109473 9.11301829 -19.0546875 4.60546875 C-14.33784867 -1.36470154 -6.96435212 -2.91531019 0 0 Z " fill="#00A2E5" transform="translate(34.6875,7.125)"/>
<path d="M0 0 C3 1.5 3 1.5 5 3 C4.6390625 3.49628906 4.278125 3.99257812 3.90625 4.50390625 C0.74193843 9.13610679 -0.92771693 12.2275391 0 18 C0.96474823 20.15274399 2.01797657 22.17504473 3.22265625 24.203125 C4 26 4 26 3 29 C-0.5218206 31.13443673 -3.81535853 31.37325067 -7.87109375 30.7421875 C-12.62188692 29.08594768 -16.65843582 25.26798635 -19.19921875 20.97265625 C-20.50163431 17.76426669 -20.40100957 15.43722493 -20 12 C-17.9370021 7.52880137 -15.36561712 3.4738497 -11 1 C-7.29661796 -0.23446068 -3.85339582 -0.44981274 0 0 Z " fill="#EB001A" transform="translate(32,6)"/>
<path d="M0 0 C3 1 3 1 4.6875 2.9375 C6.58170346 7.35730808 6.80238192 11.26451384 6 16 C4.64088229 18.93059755 2.98729043 21.45910723 1 24 C-2.76875806 19.60311559 -4.74337466 16.35239894 -5.375 10.5625 C-4.90373383 6.08547143 -3.18491451 3.18491451 0 0 Z " fill="#7473CD" transform="translate(36,10)"/>
<path d="M0 0 C0.495 1.98 0.495 1.98 1 4 C-9.89 4 -20.78 4 -32 4 C-32 2.35 -32 0.7 -32 -1 C-28.83350749 -1.17008588 -25.6667838 -1.33543399 -22.5 -1.5 C-21.1696875 -1.57154297 -21.1696875 -1.57154297 -19.8125 -1.64453125 C-3.12904793 -2.50323834 -3.12904793 -2.50323834 0 0 Z " fill="#000000" transform="translate(53,40)"/>
</svg>
