<?xml version="1.0" encoding="UTF-8"?>
<svg version="1.1" xmlns="http://www.w3.org/2000/svg" width="74" height="50">
<path d="M0 0 C24.42 0 48.84 0 74 0 C74 15.84 74 31.68 74 48 C49.58 48 25.16 48 0 48 C0 32.16 0 16.32 0 0 Z " fill="#FAF9F8" transform="translate(0,1)"/>
<path d="M0 0 C24.42 0 48.84 0 74 0 C74 15.84 74 31.68 74 48 C49.58 48 25.16 48 0 48 C0 32.16 0 16.32 0 0 Z M1 1 C0.97472938 7.39037231 0.95716683 13.78073183 0.94506836 20.17114258 C0.94002692 22.34692873 0.93319393 24.52271147 0.92456055 26.69848633 C0.91248662 29.81853067 0.90676995 32.93853038 0.90234375 36.05859375 C0.89718246 37.03775253 0.89202118 38.01691132 0.88670349 39.02574158 C0.88662796 39.92659988 0.88655243 40.82745819 0.88647461 41.75561523 C0.884254 42.55281479 0.88203339 43.35001434 0.87974548 44.17137146 C0.79949544 46.01922281 0.79949544 46.01922281 2 47 C3.48109019 47.11393183 4.96751753 47.15955502 6.45288086 47.17700195 C7.40154526 47.18983719 8.35020966 47.20267242 9.32762146 47.21589661 C10.88054649 47.22697701 10.88054649 47.22697701 12.46484375 47.23828125 C13.52731827 47.246353 14.58979279 47.25442474 15.6844635 47.26274109 C17.94335284 47.27660844 20.20226337 47.28731866 22.46118164 47.29516602 C25.89185517 47.3122724 29.32153835 47.35612242 32.75195312 47.40039062 C34.94790958 47.4105266 37.14387425 47.41903986 39.33984375 47.42578125 C40.86544167 47.45204338 40.86544167 47.45204338 42.42185974 47.47883606 C50.21950562 47.45548729 57.20899488 46.00121238 63.4375 41.0703125 C68.88495455 34.28823159 70.59776618 28.86457185 70.4453125 20.109375 C69.49848294 13.4981791 66.02862142 8.65601749 60.9375 4.5 C56.35482563 2.15991096 52.8494542 0.74769122 47.65893555 0.77294922 C46.6182341 0.77310028 45.57753265 0.77325134 44.5052948 0.77340698 C43.3936647 0.78372955 42.28203461 0.79405212 41.13671875 0.8046875 C39.41603935 0.80893234 39.41603935 0.80893234 37.66059875 0.81326294 C34.00279232 0.82444303 30.34523222 0.84954405 26.6875 0.875 C24.20508167 0.88503259 21.72265949 0.89415795 19.24023438 0.90234375 C13.16007244 0.92437529 7.08005382 0.95783152 1 1 Z " fill="#F1831A" transform="translate(0,1)"/>
<path d="M0 0 C19.47 0 38.94 0 59 0 C59 0.66 59 1.32 59 2 C60.72236612 3.19240732 62.44522448 4.38411763 64.171875 5.5703125 C66.95302368 7.74531339 68.36721656 9.8704984 70 13 C69.67 13.99 69.34 14.98 69 16 C68.70867187 15.46890625 68.41734375 14.9378125 68.1171875 14.390625 C64.34777181 7.89490236 60.15690467 4.48369918 53 2 C50.39797181 1.67827147 50.39797181 1.67827147 47.65893555 1.68115234 C46.6182341 1.66128265 45.57753265 1.64141296 44.5052948 1.62094116 C43.3936647 1.60938995 42.28203461 1.59783875 41.13671875 1.5859375 C39.98959915 1.56657135 38.84247955 1.5472052 37.66059875 1.5272522 C34.0029744 1.46755533 30.34531841 1.42110998 26.6875 1.375 C24.20506453 1.33681117 21.72264218 1.29775892 19.24023438 1.2578125 C13.16022519 1.16023963 7.0803529 1.08059066 1 1 C1.33 16.18 1.66 31.36 2 47 C1.01 47.495 1.01 47.495 0 48 C0 32.16 0 16.32 0 0 Z " fill="#E6652D" transform="translate(0,1)"/>
<path d="M0 0 C3.96 0 7.92 0 12 0 C13 5 13 5 12 8 C12.66 8 13.32 8 14 8 C14 8.66 14 9.32 14 10 C12.68 9.34 11.36 8.68 10 8 C9.67 8.66 9.34 9.32 9 10 C6.03 10 3.06 10 0 10 C0 6.7 0 3.4 0 0 Z " fill="#D1D0D0" transform="translate(52,20)"/>
<path d="M0 0 C2.4375 0.8125 2.4375 0.8125 4.4375 3.8125 C4.1133631 7.13490324 3.82973697 8.42026303 1.4375 10.8125 C-1.39636167 11.1758156 -2.96772151 11.1693671 -5.4375 9.6875 C-6.5625 7.8125 -6.5625 7.8125 -6.4375 4.75 C-5.31063606 0.96695678 -4.03725591 -0.29540897 0 0 Z " fill="#EA3F14" transform="translate(37.5625,19.1875)"/>
<path d="M0 0 C5 0 5 0 8 2 C8.375 5.5 8.375 5.5 8 9 C5 11 5 11 0 11 C0 7.37 0 3.74 0 0 Z " fill="#393637" transform="translate(3,19)"/>
<path d="M0 0 C1.65 0 3.3 0 5 0 C5.79953138 3.28696233 6.09658936 4.71023192 5 8 C5.66 8 6.32 8 7 8 C7 8.66 7 9.32 7 10 C5.68 9.34 4.36 8.68 3 8 C2.67 8.66 2.34 9.32 2 10 C1.34 10 0.68 10 0 10 C0 6.7 0 3.4 0 0 Z " fill="#413F3F" transform="translate(59,20)"/>
<path d="M0 0 C2.97 0 5.94 0 9 0 C9 0.66 9 1.32 9 2 C10.72236612 3.19240732 12.44522448 4.38411763 14.171875 5.5703125 C16.95302368 7.74531339 18.36721656 9.8704984 20 13 C19.67 13.99 19.34 14.98 19 16 C18.70867187 15.46890625 18.41734375 14.9378125 18.1171875 14.390625 C13.62964398 6.6573739 8.27070469 3.85196714 0 1 C0 0.67 0 0.34 0 0 Z " fill="#E9621B" transform="translate(50,1)"/>
<path d="M0 0 C1.1446875 0.3403125 1.1446875 0.3403125 2.3125 0.6875 C2.3125 1.3475 2.3125 2.0075 2.3125 2.6875 C0.6625 3.0175 -0.9875 3.3475 -2.6875 3.6875 C-2.6875 5.0075 -2.6875 6.3275 -2.6875 7.6875 C-1.0375 7.6875 0.6125 7.6875 2.3125 7.6875 C1.9825 8.6775 1.6525 9.6675 1.3125 10.6875 C-3.4375 9.9375 -3.4375 9.9375 -5.6875 7.6875 C-6.05546448 4.81737704 -6.06259409 3.27975382 -4.5 0.8125 C-2.6875 -0.3125 -2.6875 -0.3125 0 0 Z " fill="#2F2D2D" transform="translate(28.6875,19.3125)"/>
<path d="M0 0 C0.66 0 1.32 0 2 0 C2.66 1.32 3.32 2.64 4 4 C4.99 2.68 5.98 1.36 7 0 C7.66 0.33 8.32 0.66 9 1 C7.68 3.97 6.36 6.94 5 10 C4.34 10 3.68 10 3 10 C2.01 6.7 1.02 3.4 0 0 Z " fill="#242323" transform="translate(42,20)"/>
<path d="M0 0 C0.6875 1.8125 0.6875 1.8125 1 4 C-0.125 5.75 -0.125 5.75 -2 7 C-4.6875 7.1875 -4.6875 7.1875 -7 7 C-7 6.01 -7 5.02 -7 4 C-6.01 4 -5.02 4 -4 4 C-3.67 3.01 -3.34 2.02 -3 1 C-2.01 0.67 -1.02 0.34 0 0 Z " fill="#FF7B0F" transform="translate(41,23)"/>
<path d="M0 0 C1.98 0.495 1.98 0.495 4 1 C3.01 1 2.02 1 1 1 C2.0209375 1.8353125 2.0209375 1.8353125 3.0625 2.6875 C3.701875 3.450625 4.34125 4.21375 5 5 C4.75 7.75 4.75 7.75 4 10 C2.35 9.67 0.7 9.34 -1 9 C-0.67 8.34 -0.34 7.68 0 7 C0.99 7.33 1.98 7.66 3 8 C2.319375 7.4225 1.63875 6.845 0.9375 6.25 C0.298125 5.5075 -0.34125 4.765 -1 4 C-0.75 1.75 -0.75 1.75 0 0 Z " fill="#1B1819" transform="translate(17,20)"/>
<path d="M0 0 C1.65 0 3.3 0 5 0 C4.01 0.33 3.02 0.66 2 1 C2 1.99 2 2.98 2 4 C2.99 4.33 3.98 4.66 5 5 C4.01 5 3.02 5 2 5 C2 5.99 2 6.98 2 8 C2.99 8 3.98 8 5 8 C5 8.66 5 9.32 5 10 C3.35 10 1.7 10 0 10 C0 6.7 0 3.4 0 0 Z " fill="#181515" transform="translate(52,20)"/>
<path d="M0 0 C1.32 0.33 2.64 0.66 4 1 C4.625 2.875 4.625 2.875 5 5 C4.34 5.66 3.68 6.32 3 7 C2.01 7 1.02 7 0 7 C0 4.69 0 2.38 0 0 Z " fill="#D2D1D1" transform="translate(5,21)"/>
<path d="M0 0 C2.64 0 5.28 0 8 0 C8 0.33 8 0.66 8 1 C6.35 1 4.7 1 3 1 C3 4.3 3 7.6 3 11 C2.34 9.68 1.68 8.36 1 7 C0.01 7.495 0.01 7.495 -1 8 C-0.649375 7.05125 -0.29875 6.1025 0.0625 5.125 C1.35026777 2.12939828 1.35026777 2.12939828 0 0 Z " fill="#CECDCD" transform="translate(49,19)"/>
<path d="M0 0 C1.7074998 1.28062485 3.37373596 2.61767557 5 4 C5 4.66 5 5.32 5 6 C3.35 6.33 1.7 6.66 0 7 C0 4.69 0 2.38 0 0 Z " fill="#EBEBEB" transform="translate(15,22)"/>
</svg>
