<?xml version="1.0" encoding="UTF-8"?>
<svg version="1.1" xmlns="http://www.w3.org/2000/svg" width="74" height="50">
<path d="M0 0 C24.42 0 48.84 0 74 0 C74 16.5 74 33 74 50 C49.58 50 25.16 50 0 50 C0 33.5 0 17 0 0 Z " fill="#0270CD" transform="translate(0,0)"/>
<path d="M0 0 C24.42 0 48.84 0 74 0 C74 16.5 74 33 74 50 C49.58 50 25.16 50 0 50 C0 33.5 0 17 0 0 Z M6 6 C5.89896745 8.79993597 5.86029912 11.57468644 5.8671875 14.375 C5.86623077 15.21466309 5.86527405 16.05432617 5.86428833 16.91943359 C5.86360652 18.69824295 5.86546083 20.47705477 5.86962891 22.25585938 C5.87497717 24.98833776 5.86968395 27.72065176 5.86328125 30.453125 C5.86394203 32.1770837 5.86522319 33.90104229 5.8671875 35.625 C5.86516327 36.44790527 5.86313904 37.27081055 5.86105347 38.11865234 C5.5142454 41.86379866 5.5142454 41.86379866 7 45 C8.86635788 45.0991056 10.73648194 45.12799261 12.60546875 45.12939453 C14.40238159 45.13412277 14.40238159 45.13412277 16.2355957 45.13894653 C18.19178833 45.13591019 18.19178833 45.13591019 20.1875 45.1328125 C21.52889015 45.1334856 22.87028019 45.13445568 24.21166992 45.13571167 C27.02621621 45.13718836 29.84073082 45.13503504 32.65527344 45.13037109 C36.27040631 45.12467381 39.88546495 45.12795297 43.50059509 45.13394356 C46.27144942 45.13754997 49.04228602 45.13641022 51.81314087 45.13381577 C53.79689583 45.13282033 55.78065147 45.13586741 57.7644043 45.13894653 C58.96234619 45.13579437 60.16028809 45.13264221 61.39453125 45.12939453 C62.98551636 45.12820114 62.98551636 45.12820114 64.60864258 45.12698364 C66.95314943 45.26972279 66.95314943 45.26972279 68 44 C68.41746608 41.12635209 68.41746608 41.12635209 68 38 C66.68671343 36.64691687 65.35500919 35.31129922 64 34 C64.0625 31.875 64.0625 31.875 65 30 C65.99 29.34 66.98 28.68 68 28 C68.22107787 25.2114711 68.28107535 22.65346819 68.1875 19.875 C68.17396484 19.12089844 68.16042969 18.36679687 68.14648438 17.58984375 C68.11109985 15.72625873 68.05729167 13.86304022 68 12 C66.33388095 11.957279 64.66617115 11.95936168 63 12 C62.67 12.33 62.34 12.66 62 13 C61.505 11.515 61.505 11.515 61 10 C63.31 10 65.62 10 68 10 C67.505 7.525 67.505 7.525 67 5 C59.19424805 4.97687208 51.38850405 4.95908262 43.58272648 4.94818783 C39.9585404 4.94295998 36.3343777 4.93586413 32.71020508 4.92456055 C29.21540025 4.91372816 25.72061796 4.90772242 22.22579765 4.90512276 C20.23760611 4.90236449 18.24942369 4.89455312 16.26124573 4.88670349 C14.45949135 4.88659019 14.45949135 4.88659019 12.62133789 4.88647461 C11.55766495 4.884254 10.493992 4.88203339 9.39808655 4.87974548 C7.04756586 4.72883237 7.04756586 4.72883237 6 6 Z " fill="#F9FBFD" transform="translate(0,0)"/>
<path d="M0 0 C2.31 0 4.62 0 7 0 C7.33 0.66 7.66 1.32 8 2 C8.33 1.34 8.66 0.68 9 0 C11.97 0 14.94 0 18 0 C18 0.99 18 1.98 18 3 C22.455 2.505 22.455 2.505 27 2 C27.10792837 4.60527105 27.18724878 7.20608311 27.25 9.8125 C27.30027344 10.91948242 27.30027344 10.91948242 27.3515625 12.04882812 C27.390625 14.20703125 27.390625 14.20703125 27 18 C24.984375 20.01171875 24.984375 20.01171875 23 21 C23.42906705 23.48858887 23.74896408 24.74896408 25.5625 26.5625 C26.036875 27.036875 26.51125 27.51125 27 28 C27 28.99 27 29.98 27 31 C23.37471432 31.20140476 21.13498292 30.85776765 18 29 C17.34 29.66 16.68 30.32 16 31 C14.12060547 31.22705078 14.12060547 31.22705078 11.8671875 31.1953125 C11.06152344 31.18886719 10.25585938 31.18242188 9.42578125 31.17578125 C8.58402344 31.15902344 7.74226563 31.14226563 6.875 31.125 C5.60076172 31.11146484 5.60076172 31.11146484 4.30078125 31.09765625 C2.20040116 31.07405647 0.10016556 31.03818483 -2 31 C-2 26.38 -2 21.76 -2 17 C-3.65 17 -5.3 17 -7 17 C-5.1668733 11.00067626 -2.92678249 5.55079437 0 0 Z " fill="#CFE4F5" transform="translate(41,10)"/>
<path d="M0 0 C1.65 0 3.3 0 5 0 C6.32 2.97 7.64 5.94 9 9 C9.33 6.03 9.66 3.06 10 0 C11.65 0 13.3 0 15 0 C16.4606285 2.64738916 17 3.89448334 17 7 C17.66 7 18.32 7 19 7 C19.144375 6.030625 19.28875 5.06125 19.4375 4.0625 C20 1 20 1 21 0 C22.65 0 24.3 0 26 0 C26 4.29 26 8.58 26 13 C25.01 13 24.02 13 23 13 C22.67 10.69 22.34 8.38 22 6 C21.34 8.31 20.68 10.62 20 13 C18.68 13 17.36 13 16 13 C15.34 11.02 14.68 9.04 14 7 C13.67 8.98 13.34 10.96 13 13 C10.69 13 8.38 13 6 13 C5.67 12.34 5.34 11.68 5 11 C1.97065509 10.34227572 1.97065509 10.34227572 -1 10 C-1 10.99 -1 11.98 -1 13 C-2.32 13 -3.64 13 -5 13 C-4.54554036 11.58208592 -4.08625056 10.16571954 -3.625 8.75 C-3.24214844 7.56664062 -3.24214844 7.56664062 -2.8515625 6.359375 C-2.04826333 4.13372042 -1.10288338 2.09068328 0 0 Z " fill="#0F72CE" transform="translate(42,12)"/>
<path d="M0 0 C3.63 0 7.26 0 11 0 C11 0.66 11 1.32 11 2 C8.69 2 6.38 2 4 2 C4 2.66 4 3.32 4 4 C6.31 4 8.62 4 11 4 C11 4.99 11 5.98 11 7 C8.69 7 6.38 7 4 7 C4 7.66 4 8.32 4 9 C5.11375 9 6.2275 9 7.375 9 C9.25 9 11.125 9 13 9 C14.30859649 7.30287793 14.30859649 7.30287793 15 5 C13.71815438 2.25167846 13.71815438 2.25167846 12 0 C13.11375 0.2475 13.11375 0.2475 14.25 0.5 C18.40372099 1.255222 21.92805132 0.90487749 26 0 C25.484375 0.5775 24.96875 1.155 24.4375 1.75 C22.79242839 3.83731326 22.79242839 3.83731326 23.125 6 C24.12862931 8.29400986 25.41440003 10.06970438 27 12 C23.37471432 12.20140476 21.13498292 11.85776765 18 10 C17.34 10.66 16.68 11.32 16 12 C13.25514407 12.14507695 10.61519457 12.18652423 7.875 12.125 C7.12089844 12.11597656 6.36679687 12.10695313 5.58984375 12.09765625 C3.72642746 12.0740687 1.86317407 12.03819719 0 12 C0 8.04 0 4.08 0 0 Z " fill="#2C85D5" transform="translate(41,27)"/>
<path d="M0 0 C3.3 0 6.6 0 10 0 C10 0.66 10 1.32 10 2 C7.69 2 5.38 2 3 2 C3 2.66 3 3.32 3 4 C5.31 4 7.62 4 10 4 C10 4.99 10 5.98 10 7 C7.69 7 5.38 7 3 7 C3 7.99 3 8.98 3 10 C4.98 10 6.96 10 9 10 C9 10.33 9 10.66 9 11 C6.03 11 3.06 11 0 11 C0 7.37 0 3.74 0 0 Z " fill="#005EC7" transform="translate(42,27)"/>
<path d="M0 0 C1.2065625 0.0309375 1.2065625 0.0309375 2.4375 0.0625 C2.81813221 2.3885857 3.15019945 4.72305264 3.4375 7.0625 C2.4375 8.0625 2.4375 8.0625 -1.125 8.125 C-2.259375 8.104375 -3.39375 8.08375 -4.5625 8.0625 C-4.5625 8.7225 -4.5625 9.3825 -4.5625 10.0625 C-5.2225 10.0625 -5.8825 10.0625 -6.5625 10.0625 C-6.08699439 8.58215236 -5.60698784 7.10324979 -5.125 5.625 C-4.85816406 4.80128906 -4.59132812 3.97757813 -4.31640625 3.12890625 C-3.20336342 0.07813082 -3.20336342 0.07813082 0 0 Z " fill="#1473CE" transform="translate(44.5625,11.9375)"/>
<path d="M0 0 C0.75 2.125 0.75 2.125 1 4 C-0.65 5.32 -2.3 6.64 -4 8 C-4 7.34 -4 6.68 -4 6 C-6.31 6 -8.62 6 -11 6 C-11 5.34 -11 4.68 -11 4 C-8.69 4 -6.38 4 -4 4 C-4 3.01 -4 2.02 -4 1 C-6.31 1 -8.62 1 -11 1 C-11 0.34 -11 -0.32 -11 -1 C-3.11538462 -2.51627219 -3.11538462 -2.51627219 0 0 Z " fill="#E5F1FA" transform="translate(56,30)"/>
<path d="M0 0 C1.50559539 1.96382007 2.89131683 3.78263366 4 6 C4.99 6.66 5.98 7.32 7 8 C4.69 8 2.38 8 0 8 C-0.33 7.34 -0.66 6.68 -1 6 C-4.02934491 5.34227572 -4.02934491 5.34227572 -7 5 C-7 5.99 -7 6.98 -7 8 C-8.32 8 -9.64 8 -11 8 C-10.67 7.01 -10.34 6.02 -10 5 C-9.34 5 -8.68 5 -8 5 C-8 4.34 -8 3.68 -8 3 C-6.865625 2.87625 -5.73125 2.7525 -4.5625 2.625 C-3.386875 2.41875 -2.21125 2.2125 -1 2 C-0.67 1.34 -0.34 0.68 0 0 Z " fill="#1E7BD1" transform="translate(48,17)"/>
<path d="M0 0 C1.11375 0.2475 1.11375 0.2475 2.25 0.5 C6.40372099 1.255222 9.92805132 0.90487749 14 0 C11.525 3.465 11.525 3.465 9 7 C8.67 6.34 8.34 5.68 8 5 C7.34 5 6.68 5 6 5 C6.33 5.99 6.66 6.98 7 8 C6.34 8 5.68 8 5 8 C5 7.01 5 6.02 5 5 C4.34 5 3.68 5 3 5 C1.375 2.5 1.375 2.5 0 0 Z " fill="#0063C9" transform="translate(53,27)"/>
<path d="M0 0 C0.66 0 1.32 0 2 0 C2 0.99 2 1.98 2 3 C4.31 3 6.62 3 9 3 C9 3.99 9 4.98 9 6 C6.69 6 4.38 6 2 6 C1.67 6.66 1.34 7.32 1 8 C0 2.25 0 2.25 0 0 Z " fill="#1677D0" transform="translate(43,28)"/>
<path d="M0 0 C1.32 0 2.64 0 4 0 C5.484375 1.53125 5.484375 1.53125 6.75 3.5 C7.39195313 4.47453125 7.39195313 4.47453125 8.046875 5.46875 C8.36140625 5.9740625 8.6759375 6.479375 9 7 C6.75 7.3125 6.75 7.3125 4 7 C0 2.89189189 0 2.89189189 0 0 Z " fill="#1976D0" transform="translate(59,32)"/>
<path d="M0 0 C2.64 0 5.28 0 8 0 C8 0.66 8 1.32 8 2 C8.99 2.33 9.98 2.66 11 3 C10.67 4.65 10.34 6.3 10 8 C9.34 8 8.68 8 8 8 C7.34 6.02 6.68 4.04 6 2 C3.03 1.505 3.03 1.505 0 1 C0 0.67 0 0.34 0 0 Z " fill="#E2EEF9" transform="translate(51,11)"/>
<path d="M0 0 C2.875 -0.125 2.875 -0.125 6 0 C6.66 0.66 7.32 1.32 8 2 C5.69 2 3.38 2 1 2 C1 2.99 1 3.98 1 5 C-0.32 5 -1.64 5 -3 5 C-2.67 4.01 -2.34 3.02 -2 2 C-1.34 2 -0.68 2 0 2 C0 1.34 0 0.68 0 0 Z " fill="#0E6DCC" transform="translate(40,20)"/>
<path d="M0 0 C0.99 0.33 1.98 0.66 3 1 C3.66 0.67 4.32 0.34 5 0 C5.33 1.32 5.66 2.64 6 4 C4.02 4 2.04 4 0 4 C0 4.66 0 5.32 0 6 C-0.66 6 -1.32 6 -2 6 C-1.34 4.02 -0.68 2.04 0 0 Z " fill="#4B96DB" transform="translate(40,16)"/>
<path d="M0 0 C3.68754757 0.49831724 5.60490662 1.10067643 8 4 C6.35 4.33 4.7 4.66 3 5 C2.01 3.35 1.02 1.7 0 0 Z " fill="#0969CB" transform="translate(53,27)"/>
<path d="M0 0 C0.33 0 0.66 0 1 0 C1.33 2.97 1.66 5.94 2 9 C1.01 9 0.02 9 -1 9 C-1.125 2.25 -1.125 2.25 0 0 Z " fill="#0C6BCB" transform="translate(66,16)"/>
</svg>
