<?xml version="1.0" encoding="UTF-8"?>
<svg version="1.1" xmlns="http://www.w3.org/2000/svg" width="74" height="50">
<path d="M0 0 C-0.33 1.98 -0.66 3.96 -1 6 C-2.98 6 -4.96 6 -7 6 C-4.69 7.65 -2.38 9.3 0 11 C1.65 7.37 3.3 3.74 5 0 C6.98 0 8.96 0 11 0 C11.67286212 2.41509441 12.33846012 4.83180356 13 7.25 C13.19078125 7.93191406 13.3815625 8.61382812 13.578125 9.31640625 C14.49957044 12.70600912 15 15.45778976 15 19 C13.02 19 11.04 19 9 19 C9 18.34 9 17.68 9 17 C8.13375 17.33 7.2675 17.66 6.375 18 C3.0259207 18.99231979 0.46720057 19.24189771 -3 19 C-3.33 18.67 -3.66 18.34 -4 18 C-4.33 18.33 -4.66 18.66 -5 19 C-6.68608966 19.07205511 -8.37500659 19.08386068 -10.0625 19.0625 C-10.98160156 19.05347656 -11.90070312 19.04445313 -12.84765625 19.03515625 C-13.55792969 19.02355469 -14.26820312 19.01195313 -15 19 C-15 17.35 -15 15.7 -15 14 C-12.69 14 -10.38 14 -8 14 C-8.804375 13.2575 -9.60875 12.515 -10.4375 11.75 C-14.08849558 7.83185841 -14.08849558 7.83185841 -14 5 C-10.95445578 -1.38114026 -6.21517673 -0.53374609 0 0 Z M7 9 C6.67 9.99 6.34 10.98 6 12 C6.66 12 7.32 12 8 12 C7.67 11.01 7.34 10.02 7 9 Z M-2 14 C-1 16 -1 16 -1 16 Z " fill="#1434CB" transform="translate(51,15)"/>
<path d="M0 0 C1.62418745 -0.08090971 3.24951745 -0.13914995 4.875 -0.1875 C5.77992187 -0.22230469 6.68484375 -0.25710938 7.6171875 -0.29296875 C8.79667969 -0.14794922 8.79667969 -0.14794922 10 0 C11.9451 2.91765 12.45276317 4.62537285 13 8 C14.32 5.36 15.64 2.72 17 0 C18.98 0 20.96 0 23 0 C20.94235079 6.45353615 18.57616518 12.7361263 16 19 C13.69 19 11.38 19 9 19 C8.76925781 17.94039062 8.53851563 16.88078125 8.30078125 15.7890625 C7.97247053 14.40077719 7.64298175 13.0127701 7.3125 11.625 C7.08916992 10.57699219 7.08916992 10.57699219 6.86132812 9.5078125 C6.34231994 7.19659518 6.34231994 7.19659518 5 4 C2.49712241 2.43689318 2.49712241 2.43689318 0 2 C0 1.34 0 0.68 0 0 Z " fill="#1434CB" transform="translate(8,15)"/>
<path d="M0 0 C1.65 0 3.3 0 5 0 C4.48446121 6.49850211 3.53332291 12.66226532 2 19 C0.02 19 -1.96 19 -4 19 C-3.37968409 12.42465139 -1.85102717 6.33307408 0 0 Z " fill="#1434CB" transform="translate(32,15)"/>
</svg>
