<?xml version="1.0" encoding="UTF-8"?>
<svg version="1.1" xmlns="http://www.w3.org/2000/svg" width="74" height="50">
<path d="M0 0 C24.42 0 48.84 0 74 0 C74 16.5 74 33 74 50 C49.58 50 25.16 50 0 50 C0 33.5 0 17 0 0 Z " fill="#F7F9FA" transform="translate(0,0)"/>
<path d="M0 0 C24.42 0 48.84 0 74 0 C74 16.5 74 33 74 50 C49.58 50 25.16 50 0 50 C0 33.5 0 17 0 0 Z M5 3 C4.69502066 4.96444192 4.69502066 4.96444192 4.74121094 7.234375 C4.73490662 8.10868164 4.72860229 8.98298828 4.72210693 9.88378906 C4.7261554 10.82963867 4.73020386 11.77548828 4.734375 12.75 C4.73246155 13.71905273 4.7305481 14.68810547 4.72857666 15.68652344 C4.72721421 17.73763285 4.73091482 19.78875086 4.73925781 21.83984375 C4.74995641 24.98717539 4.73936446 28.1339362 4.7265625 31.28125 C4.72788408 33.2708346 4.73044645 35.26041884 4.734375 37.25 C4.73032654 38.19584961 4.72627808 39.14169922 4.72210693 40.11621094 C4.72841125 40.99051758 4.73471558 41.86482422 4.74121094 42.765625 C4.74359772 43.92239746 4.74359772 43.92239746 4.74603271 45.10253906 C4.8369258 47.24162583 4.8369258 47.24162583 7 49 C9.61558468 49.30710343 9.61558468 49.30710343 12.703125 49.25878906 C13.89776367 49.26509338 15.09240234 49.27139771 16.32324219 49.27789307 C17.61907227 49.2738446 18.91490234 49.26979614 20.25 49.265625 C21.58756582 49.26697178 22.92513117 49.26891243 24.26269531 49.27142334 C27.06710466 49.274374 29.87138669 49.27007894 32.67578125 49.26074219 C36.27404922 49.24934754 39.87201886 49.25590734 43.47027588 49.26788712 C46.23260758 49.27510736 48.99486833 49.27281706 51.75720215 49.26763153 C53.73038933 49.26564475 55.70357926 49.27172842 57.67675781 49.27789307 C58.87139648 49.27158875 60.06603516 49.26528442 61.296875 49.25878906 C62.35229492 49.25719788 63.40771484 49.25560669 64.49511719 49.25396729 C67.1722834 49.24916529 67.1722834 49.24916529 69 47 C69.30497934 45.03555808 69.30497934 45.03555808 69.25878906 42.765625 C69.26824554 41.45416504 69.26824554 41.45416504 69.27789307 40.11621094 C69.2738446 39.17036133 69.26979614 38.22451172 69.265625 37.25 C69.26753845 36.28094727 69.2694519 35.31189453 69.27142334 34.31347656 C69.27278579 32.26236715 69.26908518 30.21124914 69.26074219 28.16015625 C69.25004359 25.01282461 69.26063554 21.8660638 69.2734375 18.71875 C69.27211592 16.7291654 69.26955355 14.73958116 69.265625 12.75 C69.26967346 11.80415039 69.27372192 10.85830078 69.27789307 9.88378906 C69.27158875 9.00948242 69.26528442 8.13517578 69.25878906 7.234375 C69.25719788 6.46319336 69.25560669 5.69201172 69.25396729 4.89746094 C69.1630742 2.75837417 69.1630742 2.75837417 67 1 C64.38441532 0.69289657 64.38441532 0.69289657 61.296875 0.74121094 C60.10223633 0.73490662 58.90759766 0.72860229 57.67675781 0.72210693 C56.38092773 0.7261554 55.08509766 0.73020386 53.75 0.734375 C52.41243418 0.73302822 51.07486883 0.73108757 49.73730469 0.72857666 C46.93289534 0.725626 44.12861331 0.72992106 41.32421875 0.73925781 C37.72595078 0.75065246 34.12798114 0.74409266 30.52972412 0.73211288 C27.76739242 0.72489264 25.00513167 0.72718294 22.24279785 0.73236847 C20.26961067 0.73435525 18.29642074 0.72827158 16.32324219 0.72210693 C15.12860352 0.72841125 13.93396484 0.73471558 12.703125 0.74121094 C11.11999512 0.74359772 11.11999512 0.74359772 9.50488281 0.74603271 C6.8277166 0.75083471 6.8277166 0.75083471 5 3 Z " fill="#5A95C3" transform="translate(0,0)"/>
<path d="M0 0 C3.70162323 1.54234301 6.19501491 3.39002982 8 7 C8.70522322 11.58395095 8.64997503 14.90897048 6.25 18.9375 C1.67996062 23.12670277 -2.2363096 23.48365721 -8.296875 23.39453125 C-12.5220018 22.77785812 -14.16996579 21.12793255 -17 18 C-18.74221711 14.51556578 -18.58675154 10.80112955 -18 7 C-13.7544362 -0.6673615 -7.98952382 -0.64748673 0 0 Z " fill="#EEF4F9" transform="translate(42,5)"/>
<path d="M0 0 C2.31 0.33 4.62 0.66 7 1 C7.33 1.99 7.66 2.98 8 4 C9.258125 3.835 10.51625 3.67 11.8125 3.5 C15.54154041 3.01094552 18.35890741 2.78630247 22 4 C22 4.66 22 5.32 22 6 C21.01 6 20.02 6 19 6 C19 6.66 19 7.32 19 8 C20.32 8 21.64 8 23 8 C23 6.68 23 5.36 23 4 C24.65 4 26.3 4 28 4 C28 4.66 28 5.32 28 6 C28.99 6.33 29.98 6.66 31 7 C31 7.66 31 8.32 31 9 C29.35 9.33 27.7 9.66 26 10 C26.33 11.32 26.66 12.64 27 14 C27.350625 13.505 27.70125 13.01 28.0625 12.5 C30.99176953 10.23217843 33.38746319 10.75085953 37 11 C37.928125 11.061875 38.85625 11.12375 39.8125 11.1875 C40.534375 11.455625 41.25625 11.72375 42 12 C42.66 13.65 43.32 15.3 44 17 C40.04 17 36.08 17 32 17 C32 15.68 32 14.36 32 13 C31.34 13 30.68 13 30 13 C30.33 14.32 30.66 15.64 31 17 C23.66666667 17 16.33333333 17 9 17 C8.67 16.34 8.34 15.68 8 15 C7.01 15.33 6.02 15.66 5 16 C5 15.34 5 14.68 5 14 C4.67 14.33 4.34 14.66 4 15 C4 15.66 4 16.32 4 17 C2.68 17 1.36 17 0 17 C0 11.39 0 5.78 0 0 Z " fill="#858585" transform="translate(9,28)"/>
<path d="M0 0 C1.98 0 3.96 0 6 0 C5.51300629 0.85863647 5.51300629 0.85863647 5.01617432 1.73461914 C3.93983631 4.13412431 3.74693305 5.63825963 3.74121094 8.24609375 C3.73490662 9.07375244 3.72860229 9.90141113 3.72210693 10.75415039 C3.7261554 11.63965576 3.73020386 12.52516113 3.734375 13.4375 C3.73246155 14.3545874 3.7305481 15.2716748 3.72857666 16.21655273 C3.72721726 18.15316035 3.73089658 20.08977715 3.73925781 22.02636719 C3.74996077 24.98914069 3.7393542 27.95130784 3.7265625 30.9140625 C3.72788414 32.79687634 3.73044662 34.6796898 3.734375 36.5625 C3.73032654 37.44800537 3.72627808 38.33351074 3.72210693 39.24584961 C3.72841125 40.0735083 3.73471558 40.90116699 3.74121094 41.75390625 C3.74280212 42.47908447 3.74439331 43.2042627 3.74603271 43.95141602 C4.0384128 46.30985035 4.83442315 47.94492871 6 50 C4.02 50 2.04 50 0 50 C0 33.5 0 17 0 0 Z " fill="#FDFEFE" transform="translate(0,0)"/>
<path d="M0 0 C1.98 0 3.96 0 6 0 C6 16.5 6 33 6 50 C4.02 50 2.04 50 0 50 C0.66 49.01 1.32 48.02 2 47 C2.30173469 44.94304637 2.30173469 44.94304637 2.25878906 42.66796875 C2.26509338 41.79696533 2.27139771 40.92596191 2.27789307 40.02856445 C2.2738446 39.09101318 2.26979614 38.15346191 2.265625 37.1875 C2.26753845 36.22223389 2.2694519 35.25696777 2.27142334 34.26245117 C2.2727844 32.22151428 2.26909345 30.1805687 2.26074219 28.13964844 C2.25004165 25.01217234 2.26064022 21.88527069 2.2734375 18.7578125 C2.27211589 16.7760404 2.26955347 14.79426865 2.265625 12.8125 C2.26967346 11.87494873 2.27372192 10.93739746 2.27789307 9.97143555 C2.27158875 9.10043213 2.26528442 8.22942871 2.25878906 7.33203125 C2.25719788 6.56608643 2.25560669 5.8001416 2.25396729 5.01098633 C2.11209975 2.68489906 2.11209975 2.68489906 0 0 Z " fill="#FEFEFE" transform="translate(68,0)"/>
<path d="M0 0 C3.70162323 1.54234301 6.19501491 3.39002982 8 7 C8.70522322 11.58395095 8.64997503 14.90897048 6.25 18.9375 C1.67996062 23.12670277 -2.2363096 23.48365721 -8.296875 23.39453125 C-12.5220018 22.77785812 -14.16996579 21.12793255 -17 18 C-18.74221711 14.51556578 -18.58675154 10.80112955 -18 7 C-13.7544362 -0.6673615 -7.98952382 -0.64748673 0 0 Z M-16 6 C-17.75206914 9.50413828 -16.82897224 13.27294081 -16 17 C-14.30388382 19.8268603 -13.07009106 20.67246262 -9.9453125 21.62890625 C-5.56351334 22.4477273 -3.51143731 22.27398427 0.5 20.125 C3.38695555 17.22187103 4.09768744 14.24367878 4.3125 10.22265625 C3.76471499 6.32653534 1.83898983 4.64092077 -1 2 C-7.37522241 -1.18761121 -11.53713415 1.53713415 -16 6 Z " fill="#1867A9" transform="translate(42,5)"/>
<path d="M0 0 C0.9075 0.165 1.815 0.33 2.75 0.5 C6.11087503 1.10137146 6.11087503 1.10137146 10 1 C10 1.66 10 2.32 10 3 C9.01 3 8.02 3 7 3 C7 3.66 7 4.32 7 5 C8.32 5 9.64 5 11 5 C11 3.68 11 2.36 11 1 C12.65 1 14.3 1 16 1 C16 1.66 16 2.32 16 3 C16.99 3.33 17.98 3.66 19 4 C19 4.66 19 5.32 19 6 C17.35 6.33 15.7 6.66 14 7 C14.33 7.66 14.66 8.32 15 9 C14.34 9 13.68 9 13 9 C12.67 9.66 12.34 10.32 12 11 C10.33333333 11 8.66666667 11 7 11 C5.31763529 11.62599617 3.6476038 12.28752268 2 13 C1.67 11.68 1.34 10.36 1 9 C-1.31 8.67 -3.62 8.34 -6 8 C-5.34 7.34 -4.68 6.68 -4 6 C-0.875 6.375 -0.875 6.375 2 7 C2 5.02 2 3.04 2 1 C1.34 0.67 0.68 0.34 0 0 Z " fill="#BABABA" transform="translate(21,31)"/>
<path d="M0 0 C0.66 0 1.32 0 2 0 C2 0.99 2 1.98 2 3 C3.32 3.33 4.64 3.66 6 4 C6 5.65 6 7.3 6 9 C5.34 9 4.68 9 4 9 C4 9.66 4 10.32 4 11 C4.99 11 5.98 11 7 11 C7 12.98 7 14.96 7 17 C3.33333333 17 -0.33333333 17 -4 17 C-5.6875 14.5 -5.6875 14.5 -7 12 C-6.01 11.67 -5.02 11.34 -4 11 C-4.33 8.69 -4.66 6.38 -5 4 C-4.67 5.32 -4.34 6.64 -4 8 C-3.34 8 -2.68 8 -2 8 C-2 6.68 -2 5.36 -2 4 C-1.34 4 -0.68 4 0 4 C0 2.68 0 1.36 0 0 Z " fill="#EBEBEB" transform="translate(59,28)"/>
<path d="M0 0 C2.31 0.33 4.62 0.66 7 1 C7.33 1.99 7.66 2.98 8 4 C9.98 4 11.96 4 14 4 C14 5.98 14 7.96 14 10 C11.69 10 9.38 10 7 10 C6.67 10.99 6.34 11.98 6 13 C6.66 13 7.32 13 8 13 C7.67 13.99 7.34 14.98 7 16 C6.34 16 5.68 16 5 16 C5 15.34 5 14.68 5 14 C4.67 14.33 4.34 14.66 4 15 C4 15.66 4 16.32 4 17 C2.68 17 1.36 17 0 17 C0 11.39 0 5.78 0 0 Z " fill="#A2A2A2" transform="translate(9,28)"/>
<path d="M0 0 C2.01822917 0.06510417 4.03645833 0.13020833 6.0546875 0.1953125 C6.0546875 3.1653125 6.0546875 6.1353125 6.0546875 9.1953125 C0 10.171875 0 10.171875 -1.9453125 10.1953125 C-3.9453125 8.1953125 -3.9453125 8.1953125 -4.1953125 5.1953125 C-3.91874762 1.87653392 -3.53131274 0.35454947 0 0 Z " fill="#6A6A6A" transform="translate(46.9453125,27.8046875)"/>
<path d="M0 0 C0.66 0 1.32 0 2 0 C2 0.99 2 1.98 2 3 C3.32 3.33 4.64 3.66 6 4 C6 5.65 6 7.3 6 9 C2.74696956 10.62651522 -0.39225602 10.11453156 -4 10 C-5 9 -5 9 -5.0625 6.4375 C-5.041875 5.633125 -5.02125 4.82875 -5 4 C-4.67 5.32 -4.34 6.64 -4 8 C-3.34 8 -2.68 8 -2 8 C-2 6.68 -2 5.36 -2 4 C-1.34 4 -0.68 4 0 4 C0 2.68 0 1.36 0 0 Z " fill="#7C7C7C" transform="translate(59,28)"/>
<path d="M0 0 C6.28521127 0.20950704 6.28521127 0.20950704 8.75 1.125 C9.41 2.775 10.07 4.425 10.75 6.125 C6.79 6.125 2.83 6.125 -1.25 6.125 C-1.25 4.805 -1.25 3.485 -1.25 2.125 C-2.24 1.795 -3.23 1.465 -4.25 1.125 C-3.25 0.125 -3.25 0.125 0 0 Z " fill="#828282" transform="translate(42.25,38.875)"/>
<path d="M0 0 C1.43472656 -0.02126953 1.43472656 -0.02126953 2.8984375 -0.04296875 C5.65510017 0.19004428 7.27447395 0.77829836 9.625 2.1875 C8.635 3.1775 7.645 4.1675 6.625 5.1875 C6.109375 4.6925 5.59375 4.1975 5.0625 3.6875 C1.68736872 1.61049614 -0.47300946 1.70830818 -4.375 2.1875 C-7.12829021 3.98312405 -8.90127461 5.24004922 -10.375 8.1875 C-10.33661063 13.15892313 -10.03600646 17.52649354 -6.375 21.1875 C-9.53615776 19.81766497 -10.3677092 19.1984362 -12.375 16.1875 C-13.05843706 12.41061096 -13.22607095 8.71563111 -11.32421875 5.30078125 C-7.70816188 0.89537863 -5.51419548 0.03695841 0 0 Z " fill="#2568A9" transform="translate(36.375,4.8125)"/>
<path d="M0 0 C2.31 0.33 4.62 0.66 7 1 C7.33 1.99 7.66 2.98 8 4 C8.99 4 9.98 4 11 4 C11 5.65 11 7.3 11 9 C7 9 7 9 5 8 C5.33 6.35 5.66 4.7 6 3 C5.01 2.67 4.02 2.34 3 2 C3 4.31 3 6.62 3 9 C2.34 9 1.68 9 1 9 C0.67 6.03 0.34 3.06 0 0 Z " fill="#575757" transform="translate(9,28)"/>
<path d="M0 0 C3.875 1.75 3.875 1.75 5 4 C5.04022391 6.3329866 5.04320247 8.66706666 5 11 C4.34 10.67 3.68 10.34 3 10 C2.01 11.485 2.01 11.485 1 13 C0.63901937 11.02206479 0.28638652 9.04260427 -0.0625 7.0625 C-0.25972656 5.96035156 -0.45695312 4.85820312 -0.66015625 3.72265625 C-0.77230469 2.82417969 -0.88445313 1.92570313 -1 1 C-0.67 0.67 -0.34 0.34 0 0 Z " fill="#0862A6" transform="translate(45,8)"/>
<path d="M0 0 C0 3.96 0 7.92 0 12 C-1.32 11.34 -2.64 10.68 -4 10 C-4.36814024 3.49618902 -4.36814024 3.49618902 -2.5625 1.0625 C-1 0 -1 0 0 0 Z " fill="#1367A8" transform="translate(33,10)"/>
<path d="M0 0 C0.99 0 1.98 0 3 0 C3.33 0.66 3.66 1.32 4 2 C4.66 1.34 5.32 0.68 6 0 C6.99 0 7.98 0 9 0 C9.33 0.66 9.66 1.32 10 2 C10.66 1.34 11.32 0.68 12 0 C12.66 1.65 13.32 3.3 14 5 C10.65747276 5.07427838 8.1964086 5.06546953 5 4 C3.33378384 3.96125079 1.66605828 3.9549714 0 4 C0 2.68 0 1.36 0 0 Z " fill="#585858" transform="translate(26,40)"/>
<path d="M0 0 C1.32 0.99 2.64 1.98 4 3 C4.51020728 7.08165827 4.31361802 8.52957297 2 12 C1.34 12 0.68 12 0 12 C0 8.04 0 4.08 0 0 Z " fill="#0E60A5" transform="translate(38,10)"/>
<path d="M0 0 C2.00720923 0.28674418 4.0085944 0.61866701 6 1 C6 2.32 6 3.64 6 5 C4.02 5.33 2.04 5.66 0 6 C-0.38218767 4.34385343 -0.71395102 2.67542976 -1 1 C-0.67 0.67 -0.34 0.34 0 0 Z " fill="#F5F5F5" transform="translate(45,30)"/>
<path d="M0 0 C2.64 0 5.28 0 8 0 C8.33 0.99 8.66 1.98 9 3 C9.66 2.01 10.32 1.02 11 0 C11 1.32 11 2.64 11 4 C11.66 4.33 12.32 4.66 13 5 C9.66666667 5 6.33333333 5 3 5 C1.3125 2.5 1.3125 2.5 0 0 Z " fill="#676767" transform="translate(52,40)"/>
<path d="M0 0 C0 0.66 0 1.32 0 2 C-0.99 2 -1.98 2 -3 2 C-3 2.66 -3 3.32 -3 4 C-2.01 4.33 -1.02 4.66 0 5 C-2.49064888 5.68707555 -4.37886292 6 -7 6 C-7 4.02 -7 2.04 -7 0 C-3.98968256 -0.93423645 -3.13349732 -1.04449911 0 0 Z " fill="#626262" transform="translate(31,32)"/>
<path d="M0 0 C1.32 0 2.64 0 4 0 C4.33 0.99 4.66 1.98 5 3 C4.67 3.33 4.34 3.66 4 4 C4 4.66 4 5.32 4 6 C2.68 6 1.36 6 0 6 C0 4.02 0 2.04 0 0 Z " fill="#797979" transform="translate(9,39)"/>
<path d="M0 0 C1.32 0.33 2.64 0.66 4 1 C3.67 2.65 3.34 4.3 3 6 C2.01 6 1.02 6 0 6 C0 4.02 0 2.04 0 0 Z " fill="#F1F1F1" transform="translate(12,30)"/>
<path d="M0 0 C1.134375 0.020625 2.26875 0.04125 3.4375 0.0625 C2.7775 0.7225 2.1175 1.3825 1.4375 2.0625 C0.7949765 4.13124034 0.7949765 4.13124034 0.4375 6.0625 C-0.2225 6.0625 -0.8825 6.0625 -1.5625 6.0625 C-1.5625 4.7425 -1.5625 3.4225 -1.5625 2.0625 C-2.5525 1.7325 -3.5425 1.4025 -4.5625 1.0625 C-3.5625 0.0625 -3.5625 0.0625 0 0 Z " fill="#8C8C8C" transform="translate(42.5625,38.9375)"/>
<path d="M0 0 C2.64 0.33 5.28 0.66 8 1 C8 1.99 8 2.98 8 4 C4.09161134 4 2.88405893 2.49432124 0 0 Z " fill="#1A64A7" transform="translate(37,5)"/>
<path d="M0 0 C0.33 0 0.66 0 1 0 C1 2.64 1 5.28 1 8 C0.01 7.67 -0.98 7.34 -2 7 C-2.125 4.625 -2.125 4.625 -2 2 C-1.34 1.34 -0.68 0.68 0 0 Z " fill="#045FA4" transform="translate(31,11)"/>
<path d="M0 0 C1.65 0 3.3 0 5 0 C5 1.98 5 3.96 5 6 C4.01 5.67 3.02 5.34 2 5 C0.8125 2.4375 0.8125 2.4375 0 0 Z " fill="#C5C5C5" transform="translate(61,39)"/>
<path d="M0 0 C0.99 0 1.98 0 3 0 C3 0.66 3 1.32 3 2 C3.66 2 4.32 2 5 2 C5 2.99 5 3.98 5 5 C3.68 5 2.36 5 1 5 C0.67 3.35 0.34 1.7 0 0 Z " fill="#C1C1C1" transform="translate(33,33)"/>
<path d="M0 0 C0.99 0.33 1.98 0.66 3 1 C3 2.65 3 4.3 3 6 C2.01 6 1.02 6 0 6 C0 4.02 0 2.04 0 0 Z " fill="#868686" transform="translate(24,32)"/>
<path d="M0 0 C0.66 0.66 1.32 1.32 2 2 C2.66 1.67 3.32 1.34 4 1 C4 2.65 4 4.3 4 6 C3.34 5.67 2.68 5.34 2 5 C1.34 5.99 0.68 6.98 0 8 C0 5.36 0 2.72 0 0 Z " fill="#0059A1" transform="translate(46,13)"/>
</svg>
