<?xml version="1.0" encoding="UTF-8"?>
<svg version="1.1" xmlns="http://www.w3.org/2000/svg" width="74" height="50">
<path d="M0 0 C1.1679007 0.00990463 2.33580139 0.01980927 3.53909302 0.03001404 C7.25912513 0.06911217 10.9761765 0.15693638 14.6953125 0.24609375 C17.22131147 0.28121303 19.74735682 0.31315094 22.2734375 0.34179688 C28.45674137 0.41885958 34.63831399 0.53590667 40.8203125 0.68359375 C40.94408854 6.43099133 41.03473498 12.17761002 41.0949707 17.92602539 C41.12008531 19.88058998 41.15418381 21.83506092 41.19750977 23.78930664 C41.25829684 26.60196043 41.28655233 29.41337077 41.30859375 32.2265625 C41.33440018 33.09758102 41.3602066 33.96859955 41.38679504 34.86601257 C41.38865503 38.90691926 41.10524673 41.1885916 39.05859375 44.74414062 C34.0261536 47.75814127 29.27383318 47.30040265 23.51953125 47.171875 C22.32801956 47.16480026 21.13650787 47.15772552 19.90888977 47.1504364 C16.10788878 47.12247561 12.30836736 47.05972849 8.5078125 46.99609375 C5.92905775 46.97101331 3.35027988 46.94819971 0.77148438 46.92773438 C-5.54607668 46.87264306 -11.86277638 46.7889975 -18.1796875 46.68359375 C-18.32861443 41.25768915 -18.43717385 35.83298779 -18.50927734 30.40551758 C-18.53934983 28.56155663 -18.5802201 26.71773754 -18.63232422 24.87426758 C-18.70556608 22.21530084 -18.73923755 19.558233 -18.765625 16.8984375 C-18.79659271 16.08148911 -18.82756042 15.26454071 -18.85946655 14.4228363 C-18.86246108 9.2669626 -17.92791808 5.70811446 -14.24642944 1.96458435 C-9.89376704 -0.73324623 -4.9577153 -0.15874371 0 0 Z " fill="#F8F9F9" transform="translate(25.1796875,1.31640625)"/>
<path d="M0 0 C1.76923828 0.05414062 1.76923828 0.05414062 3.57421875 0.109375 C4.92966797 0.17898437 4.92966797 0.17898437 6.3125 0.25 C6.41148615 5.16123589 6.48402247 10.07188938 6.53222656 14.98388672 C6.55232393 16.65423702 6.57960683 18.32451713 6.61425781 19.99462891 C6.66286119 22.3976372 6.68548656 24.79971434 6.703125 27.203125 C6.72377014 27.94806213 6.74441528 28.69299927 6.76568604 29.46051025 C6.76719204 32.95193228 6.58192196 34.88628035 4.4765625 37.72851562 C0.27202384 40.6845947 -4.74592634 39.46485103 -9.6875 39.25 C-9.6875 34.63 -9.6875 30.01 -9.6875 25.25 C-5.0675 24.92 -0.4475 24.59 4.3125 24.25 C4.6425 20.62 4.9725 16.99 5.3125 13.25 C3.3325 13.25 1.3525 13.25 -0.6875 13.25 C-0.67589844 13.88808594 -0.66429687 14.52617187 -0.65234375 15.18359375 C-0.64332031 16.00988281 -0.63429688 16.83617188 -0.625 17.6875 C-0.61339844 18.51121094 -0.60179687 19.33492187 -0.58984375 20.18359375 C-0.6875 22.25 -0.6875 22.25 -1.6875 23.25 C-5.1875 23.375 -5.1875 23.375 -8.6875 23.25 C-10.83927696 21.09822304 -9.91907305 16.4111484 -9.9375 13.4375 C-9.958125 12.61701172 -9.97875 11.79652344 -10 10.95117188 C-10.00515625 10.15646484 -10.0103125 9.36175781 -10.015625 8.54296875 C-10.0249707 7.8161792 -10.03431641 7.08938965 -10.04394531 6.34057617 C-8.99508541 0.18894098 -5.67814293 -0.22487695 0 0 Z " fill="#0661B1" transform="translate(20.6875,5.75)"/>
<path d="M0 0 C1.76923828 0.04060547 1.76923828 0.04060547 3.57421875 0.08203125 C4.47785156 0.11683594 5.38148437 0.15164062 6.3125 0.1875 C6.38675143 4.95634567 6.44114936 9.7248536 6.47729492 14.49414062 C6.49236565 16.11594506 6.51282593 17.73770884 6.53881836 19.359375 C6.57527829 21.69281046 6.59224314 24.02570631 6.60546875 26.359375 C6.62095261 27.08243835 6.63643646 27.80550171 6.65238953 28.55047607 C6.65343139 31.67894426 6.48169138 33.87210927 4.99023438 36.65234375 C1.34531012 39.98751309 -5.15196229 38.36712526 -9.6875 38.1875 C-9.6875 33.5675 -9.6875 28.9475 -9.6875 24.1875 C-8.6975 24.5175 -7.7075 24.8475 -6.6875 25.1875 C-4.79279184 25.2560495 -2.8958166 25.27230372 -1 25.25 C-0.00613281 25.24097656 0.98773438 25.23195313 2.01171875 25.22265625 C2.77097656 25.21105469 3.53023437 25.19945313 4.3125 25.1875 C3.9825 24.5275 3.6525 23.8675 3.3125 23.1875 C2.013125 23.208125 0.71375 23.22875 -0.625 23.25 C-1.97915633 23.27149454 -3.33506083 23.25898199 -4.6875 23.1875 C-5.6875 22.1875 -5.6875 22.1875 -5.8125 19.1875 C-5.6875 16.1875 -5.6875 16.1875 -4.6875 15.1875 C-2.01691149 15.04634839 0.63682238 15.14502893 3.3125 15.1875 C3.6425 14.5275 3.9725 13.8675 4.3125 13.1875 C-0.3075 13.5175 -4.9275 13.8475 -9.6875 14.1875 C-10.05614243 3.74263117 -10.05614243 3.74263117 -8.5871582 1.53051758 C-5.75400174 -0.47246323 -3.4180728 -0.10152691 0 0 Z " fill="#D41B39" transform="translate(38.6875,5.8125)"/>
<path d="M0 0 C0 5.94 0 11.88 0 18 C-0.99 18 -1.98 18 -3 18 C-3 16.68 -3 15.36 -3 14 C-6.96 13.67 -10.92 13.34 -15 13 C-15.36659878 3.59063136 -15.36659878 3.59063136 -13.875 1.1875 C-9.91190076 -1.32246285 -4.48127819 -0.14455736 0 0 Z " fill="#028F3A" transform="translate(62,6)"/>
<path d="M0 0 C0.33 0 0.66 0 1 0 C1.05382106 2.62527189 1.09358313 5.24944713 1.125 7.875 C1.14175781 8.62136719 1.15851562 9.36773437 1.17578125 10.13671875 C1.1933959 12.09194461 1.10320189 14.04742021 1 16 C-1 18 -1 18 -4.0390625 18.1953125 C-7.359375 18.13020833 -10.6796875 18.06510417 -14 18 C-14 13.71 -14 9.42 -14 5 C-10.94010417 4.86979167 -7.88020833 4.73958333 -4.8203125 4.609375 C-1.8667935 4.31153872 -1.8667935 4.31153872 -0.6171875 1.953125 C-0.41351563 1.30859375 -0.20984375 0.6640625 0 0 Z " fill="#008434" transform="translate(61,26)"/>
<path d="M0 0 C3.96 0 7.92 0 12 0 C12 11.55 12 23.1 12 35 C11.67 35 11.34 35 11 35 C10.67 31.37 10.34 27.74 10 24 C9.34 24.66 8.68 25.32 8 26 C4.94616121 25.96692593 2.03129104 25.43304158 -1 25 C-1 21.7 -1 18.4 -1 15 C3.455 14.505 3.455 14.505 8 14 C8.33 15.65 8.66 17.3 9 19 C9.33 19 9.66 19 10 19 C10.495 10.09 10.495 10.09 11 1 C7.37 1 3.74 1 0 1 C0 0.67 0 0.34 0 0 Z " fill="#A2D2A1" transform="translate(51,5)"/>
<path d="M0 0 C0.33 0 0.66 0 1 0 C1.33 4.29 1.66 8.58 2 13 C6.62 13 11.24 13 16 13 C15.67 13.99 15.34 14.98 15 16 C12.36 16 9.72 16 7 16 C7 17.98 7 19.96 7 22 C9.97 22 12.94 22 16 22 C16 22.99 16 23.98 16 25 C13.64729407 26.17635297 12.179248 26.13359359 9.5625 26.125 C8.38880859 26.12886719 8.38880859 26.12886719 7.19140625 26.1328125 C5 26 5 26 2 25 C1.67 27.64 1.34 30.28 1 33 C0.67 33 0.34 33 0 33 C0 22.11 0 11.22 0 0 Z " fill="#EDE4EA" transform="translate(27,6)"/>
<path d="M0 0 C0.928125 0.0825 1.85625 0.165 2.8125 0.25 C1.8225 0.58 0.8325 0.91 -0.1875 1.25 C-0.21645225 4.54164829 -0.2342823 7.83326399 -0.25 11.125 C-0.25837891 12.06214844 -0.26675781 12.99929687 -0.27539062 13.96484375 C-0.28022461 15.30869141 -0.28022461 15.30869141 -0.28515625 16.6796875 C-0.29301147 17.92081299 -0.29301147 17.92081299 -0.30102539 19.18701172 C-0.32102138 21.31411757 -0.32102138 21.31411757 0.8125 23.25 C-1.18704746 23.29254356 -3.18791636 23.29080783 -5.1875 23.25 C-7.33927696 21.09822304 -6.41907305 16.4111484 -6.4375 13.4375 C-6.458125 12.61701172 -6.47875 11.79652344 -6.5 10.95117188 C-6.52323303 7.37038113 -6.52855396 4.91287936 -4.87109375 1.69140625 C-3.1875 0.25 -3.1875 0.25 0 0 Z " fill="#053D82" transform="translate(17.1875,5.75)"/>
<path d="M0 0 C4.29 0.66 8.58 1.32 13 2 C13 2.33 13 2.66 13 3 C11.35 3 9.7 3 8 3 C8 6.3 8 9.6 8 13 C8.99 13.33 9.98 13.66 11 14 C7.37 14 3.74 14 0 14 C0 9.38 0 4.76 0 0 Z " fill="#A51626" transform="translate(29,30)"/>
<path d="M0 0 C0.33 0 0.66 0 1 0 C1 5.28 1 10.56 1 16 C-0.98 16.99 -0.98 16.99 -3 18 C-3.99 17.67 -4.98 17.34 -6 17 C-6 13.7 -6 10.4 -6 7 C-8.64 6.67 -11.28 6.34 -14 6 C-14 5.67 -14 5.34 -14 5 C-13.15695313 4.97421875 -12.31390625 4.9484375 -11.4453125 4.921875 C-10.34960938 4.86515625 -9.25390625 4.8084375 -8.125 4.75 C-7.03445312 4.70359375 -5.94390625 4.6571875 -4.8203125 4.609375 C-1.8667935 4.31153872 -1.8667935 4.31153872 -0.6171875 1.953125 C-0.41351563 1.30859375 -0.20984375 0.6640625 0 0 Z " fill="#31A140" transform="translate(61,26)"/>
<path d="M0 0 C1.65 0 3.3 0 5 0 C5 5.94 5 11.88 5 18 C4.01 18 3.02 18 2 18 C2 16.68 2 15.36 2 14 C-1.96 13.67 -5.92 13.34 -10 13 C-10 12.67 -10 12.34 -10 12 C-5.545 11.505 -5.545 11.505 -1 11 C-1.01160156 10.28972656 -1.02320313 9.57945313 -1.03515625 8.84765625 C-1.04869141 7.46900391 -1.04869141 7.46900391 -1.0625 6.0625 C-1.07410156 5.14597656 -1.08570313 4.22945312 -1.09765625 3.28515625 C-1 1 -1 1 0 0 Z " fill="#33A12D" transform="translate(57,6)"/>
<path d="M0 0 C1.1446875 0.3403125 1.1446875 0.3403125 2.3125 0.6875 C2.3125 3.9875 2.3125 7.2875 2.3125 10.6875 C3.6325 11.0175 4.9525 11.3475 6.3125 11.6875 C5.69761719 11.74808594 5.08273438 11.80867188 4.44921875 11.87109375 C3.23685547 11.99677734 3.23685547 11.99677734 2 12.125 C1.19949219 12.20621094 0.39898437 12.28742187 -0.42578125 12.37109375 C-2.84837179 12.64015693 -2.84837179 12.64015693 -5.6875 13.6875 C-5.76864106 11.91742286 -5.82675505 10.14627902 -5.875 8.375 C-5.90980469 7.38886719 -5.94460937 6.40273437 -5.98046875 5.38671875 C-5.6875 2.6875 -5.6875 2.6875 -4.34375 0.8125 C-2.6875 -0.3125 -2.6875 -0.3125 0 0 Z " fill="#912832" transform="translate(34.6875,6.3125)"/>
<path d="M0 0 C0 0.33 0 0.66 0 1 C-1.98 1 -3.96 1 -6 1 C-6 3.97 -6 6.94 -6 10 C-4.35 10.33 -2.7 10.66 -1 11 C-1 11.33 -1 11.66 -1 12 C-2.98 12 -4.96 12 -7 12 C-7 15.3 -7 18.6 -7 22 C-7.66 22.33 -8.32 22.66 -9 23 C-11 21 -11 21 -11.13525391 18.93701172 C-11.08288574 18.10959473 -11.03051758 17.28217773 -10.9765625 16.4296875 C-10.925 15.53378906 -10.8734375 14.63789063 -10.8203125 13.71484375 C-10.75585938 12.77769531 -10.69140625 11.84054688 -10.625 10.875 C-10.56828125 9.93011719 -10.5115625 8.98523437 -10.453125 8.01171875 C-10.31142903 5.67373519 -10.16000217 3.33679056 -10 1 C-6.52674819 -0.1577506 -3.63932552 -0.06866652 0 0 Z " fill="#00448C" transform="translate(27,6)"/>
<path d="M0 0 C1.91015625 0.1328125 1.91015625 0.1328125 3.91015625 1.1328125 C3.91015625 3.1128125 3.91015625 5.0928125 3.91015625 7.1328125 C0.65712581 8.75932772 -2.48209977 8.24734406 -6.08984375 8.1328125 C-7.08984375 7.1328125 -7.08984375 7.1328125 -7.21484375 4.1328125 C-6.99426924 -1.16097568 -4.76218209 0.0172856 0 0 Z " fill="#B91229" transform="translate(40.08984375,20.8671875)"/>
<path d="M0 0 C0 3.96 0 7.92 0 12 C-1.98 12.99 -1.98 12.99 -4 14 C-4.99 13.67 -5.98 13.34 -7 13 C-7 9.7 -7 6.4 -7 3 C-1 0 -1 0 0 0 Z " fill="#C61633" transform="translate(44,30)"/>
<path d="M0 0 C1.98 0 3.96 0 6 0 C6.08131463 1.43655854 6.13933559 2.8744483 6.1875 4.3125 C6.22230469 5.11300781 6.25710937 5.91351563 6.29296875 6.73828125 C6 9 6 9 4.78125 10.8125 C2.39157878 12.40561415 1.11286223 12.13393456 -1.6875 11.6875 C-2.49574219 11.56761719 -3.30398437 11.44773437 -4.13671875 11.32421875 C-4.75160156 11.21722656 -5.36648438 11.11023437 -6 11 C-6 10.67 -6 10.34 -6 10 C-4.35 9.67 -2.7 9.34 -1 9 C-0.67 6.03 -0.34 3.06 0 0 Z " fill="#E4ECF4" transform="translate(20,19)"/>
<path d="M0 0 C0.33 0 0.66 0 1 0 C1 4.29 1 8.58 1 13 C2.65 12.67 4.3 12.34 6 12 C6 8.7 6 5.4 6 2 C7.65 1.67 9.3 1.34 11 1 C10.67 4.63 10.34 8.26 10 12 C10.66 12 11.32 12 12 12 C12 12.66 12 13.32 12 14 C8.04 14 4.08 14 0 14 C0 9.38 0 4.76 0 0 Z " fill="#275D9A" transform="translate(11,31)"/>
<path d="M0 0 C0.66 0 1.32 0 2 0 C2.01458252 0.56509277 2.02916504 1.13018555 2.04418945 1.71240234 C2.11856058 4.26730019 2.21525242 6.82087498 2.3125 9.375 C2.33505859 10.26445312 2.35761719 11.15390625 2.38085938 12.0703125 C2.41630859 12.92109375 2.45175781 13.771875 2.48828125 14.6484375 C2.51446533 15.43395996 2.54064941 16.21948242 2.56762695 17.02880859 C2.84889597 19.40040156 2.84889597 19.40040156 6 21 C4.00045254 21.04254356 1.99958364 21.04080783 0 21 C-1.9395114 19.0604886 -1.13256629 16.1879288 -1.13671875 13.61132812 C-1.13091797 12.3496582 -1.13091797 12.3496582 -1.125 11.0625 C-1.12886719 10.22525391 -1.13273438 9.38800781 -1.13671875 8.52539062 C-1.13542969 7.72423828 -1.13414063 6.92308594 -1.1328125 6.09765625 C-1.13168457 5.36039307 -1.13055664 4.62312988 -1.12939453 3.86352539 C-1 2 -1 2 0 0 Z " fill="#233478" transform="translate(12,8)"/>
<path d="M0 0 C2.97 0.495 2.97 0.495 6 1 C5.67 4.63 5.34 8.26 5 12 C5.66 12.33 6.32 12.66 7 13 C4.69 13 2.38 13 0 13 C0 8.71 0 4.42 0 0 Z " fill="#052D76" transform="translate(12,31)"/>
<path d="M0 0 C3 1 3 1 4 3 C4.06996014 4.70702735 4.08440154 6.41668003 4.0625 8.125 C4.05347656 9.03507812 4.04445313 9.94515625 4.03515625 10.8828125 C4.02355469 11.58148438 4.01195312 12.28015625 4 13 C2.68 13.33 1.36 13.66 0 14 C0 9.38 0 4.76 0 0 Z " fill="#7B262C" transform="translate(29,30)"/>
<path d="M0 0 C3.96 0 7.92 0 12 0 C12 4 12 8 12 12 C11.01 12.495 11.01 12.495 10 13 C9.34 12.67 8.68 12.34 8 12 C8 8.7 8 5.4 8 2 C5.36 1.67 2.72 1.34 0 1 C0 0.67 0 0.34 0 0 Z " fill="#1664A9" transform="translate(13,31)"/>
<path d="M0 0 C0 0.33 0 0.66 0 1 C-1.98 1 -3.96 1 -6 1 C-6 3.97 -6 6.94 -6 10 C-4.35 10.33 -2.7 10.66 -1 11 C-1 11.33 -1 11.66 -1 12 C-3.33294775 12.04241723 -5.66702567 12.04092937 -8 12 C-9 11 -9 11 -9.09765625 8.71484375 C-9.08605469 7.79832031 -9.07445313 6.88179687 -9.0625 5.9375 C-9.05347656 5.01839844 -9.04445313 4.09929688 -9.03515625 3.15234375 C-9.02355469 2.44207031 -9.01195313 1.73179687 -9 1 C-6.04335481 -0.4783226 -3.25770263 -0.06032783 0 0 Z " fill="#004D97" transform="translate(27,6)"/>
<path d="M0 0 C0.33 0 0.66 0 1 0 C1 5.28 1 10.56 1 16 C0.01 16 -0.98 16 -2 16 C-2.05423638 14.08364783 -2.09289963 12.16685075 -2.125 10.25 C-2.14820313 9.18265625 -2.17140625 8.1153125 -2.1953125 7.015625 C-2.00487687 4.07529894 -1.52670104 2.47638122 0 0 Z " fill="#46AB2A" transform="translate(61,26)"/>
<path d="M0 0 C0.99 0 1.98 0 3 0 C3 3.3 3 6.6 3 10 C4.32 10.33 5.64 10.66 7 11 C4.03 11 1.06 11 -2 11 C-1.34 10.67 -0.68 10.34 0 10 C0 6.7 0 3.4 0 0 Z " fill="#A9192A" transform="translate(34,7)"/>
<path d="M0 0 C-0.88776002 3.69900008 -1.94581864 7.34550461 -3 11 C-0.36 11 2.28 11 5 11 C5 11.33 5 11.66 5 12 C1.7 12 -1.6 12 -5 12 C-5.37047774 3.47901206 -5.37047774 3.47901206 -3.61328125 1.20703125 C-2 0 -2 0 0 0 Z " fill="#047A2F" transform="translate(52,6)"/>
<path d="M0 0 C0.66 0.33 1.32 0.66 2 1 C2 4.96 2 8.92 2 13 C1.01 13 0.02 13 -1 13 C-0.98839844 12.37351562 -0.97679688 11.74703125 -0.96484375 11.1015625 C-0.95582031 10.28429688 -0.94679688 9.46703125 -0.9375 8.625 C-0.92009766 7.40683594 -0.92009766 7.40683594 -0.90234375 6.1640625 C-0.85533666 3.95062858 -0.85533666 3.95062858 -2 2 C-1.34 2 -0.68 2 0 2 C0 1.34 0 0.68 0 0 Z " fill="#0865B3" transform="translate(25,28)"/>
<path d="M0 0 C0 3.96 0 7.92 0 12 C-0.99 12 -1.98 12 -3 12 C-3 8.37 -3 4.74 -3 1 C-1 0 -1 0 0 0 Z " fill="#DB072D" transform="translate(44,30)"/>
<path d="M0 0 C0.99 0 1.98 0 3 0 C3 3.96 3 7.92 3 12 C2.01 11.67 1.02 11.34 0 11 C0 7.37 0 3.74 0 0 Z " fill="#48AB37" transform="translate(58,7)"/>
<path d="M0 0 C0.99 0 1.98 0 3 0 C3 2.97 3 5.94 3 9 C1.68 9.33 0.36 9.66 -1 10 C-0.67 6.7 -0.34 3.4 0 0 Z " fill="#005DA5" transform="translate(21,7)"/>
<path d="M0 0 C1.32 0.33 2.64 0.66 4 1 C4 2.98 4 4.96 4 7 C2.68 7.33 1.36 7.66 0 8 C0 5.36 0 2.72 0 0 Z " fill="#D70B2E" transform="translate(40,21)"/>
<path d="M0 0 C0.66 0.33 1.32 0.66 2 1 C1.67 1.33 1.34 1.66 1 2 C0.92794489 3.68608966 0.91613932 5.37500659 0.9375 7.0625 C0.94652344 7.98160156 0.95554687 8.90070312 0.96484375 9.84765625 C0.97644531 10.55792969 0.98804688 11.26820312 1 12 C0.01 12.33 -0.98 12.66 -2 13 C-2.05391993 11.20866022 -2.09275571 9.41686101 -2.125 7.625 C-2.14820312 6.62726562 -2.17140625 5.62953125 -2.1953125 4.6015625 C-2 2 -2 2 0 0 Z " fill="#75272B" transform="translate(31,7)"/>
<path d="M0 0 C0.66 0 1.32 0 2 0 C1.67 2.64 1.34 5.28 1 8 C0.34 7.67 -0.32 7.34 -1 7 C-1.04254356 5.00045254 -1.04080783 2.99958364 -1 1 C-0.67 0.67 -0.34 0.34 0 0 Z " fill="#9E222E" transform="translate(34,21)"/>
</svg>
