<?xml version="1.0" encoding="UTF-8"?>
<svg version="1.1" xmlns="http://www.w3.org/2000/svg" width="74" height="50">
<path d="M0 0 C24.42 0 48.84 0 74 0 C74 16.5 74 33 74 50 C49.58 50 25.16 50 0 50 C0 33.5 0 17 0 0 Z " fill="#FBFDFD" transform="translate(0,0)"/>
<path d="M0 0 C0.66 0 1.32 0 2 0 C2.125 5.75 2.125 5.75 1 8 C2.65 6.68 4.3 5.36 6 4 C6.33 4.99 6.66 5.98 7 7 C9.31 7.33 11.62 7.66 14 8 C14.33 6.68 14.66 5.36 15 4 C15.66 4.99 16.32 5.98 17 7 C19.56282742 7.72965366 19.56282742 7.72965366 22 8 C22.33 7.34 22.66 6.68 23 6 C23 6.66 23 7.32 23 8 C23.99 8 24.98 8 26 8 C26.33 6.68 26.66 5.36 27 4 C29.475 6.475 29.475 6.475 32 9 C31 11 31 11 28.4609375 12.0546875 C24.5166157 13.13203048 20.68036135 13.67766358 16.625 14.125 C15.52091797 14.25455078 15.52091797 14.25455078 14.39453125 14.38671875 C12.59700818 14.59681885 10.79858658 14.79920767 9 15 C22.06773304 15.45292528 35.24692675 15.55165668 46 7 C48.35953094 4.64046906 48.49141413 3.22104383 49 0 C49.33 0 49.66 0 50 0 C50 8.91 50 17.82 50 27 C25.58 27 1.16 27 -24 27 C-24 18.42 -24 9.84 -24 1 C-23.67 1 -23.34 1 -23 1 C-22.67 3.31 -22.34 5.62 -22 8 C-19.69 8 -17.38 8 -15 8 C-14.67 6.68 -14.34 5.36 -14 4 C-13.01 5.485 -13.01 5.485 -12 7 C-8.93443402 7.73343428 -8.93443402 7.73343428 -6 8 C-5.67 7.34 -5.34 6.68 -5 6 C-5 6.66 -5 7.32 -5 8 C-4.01 8 -3.02 8 -2 8 C-2.04125 7.05125 -2.0825 6.1025 -2.125 5.125 C-2 2 -2 2 0 0 Z " fill="#FCFDFD" transform="translate(24,23)"/>
<path d="M0 0 C8.01263374 0.582737 16.39909149 2.87400632 22 9 C23.25 12.375 23.25 12.375 23 16 C17.91702961 22.5635954 10.20784615 25.3555073 2.28515625 26.65234375 C-1.63193175 27.06687506 -5.50058532 27.21646961 -9.4375 27.25 C-10.46689697 27.26389771 -10.46689697 27.26389771 -11.51708984 27.27807617 C-15.26773822 27.25447846 -17.74206852 26.79889623 -21 25 C-20.16976318 24.94054199 -20.16976318 24.94054199 -19.32275391 24.87988281 C-2.47136862 24.06900817 -2.47136862 24.06900817 12.1875 16.5625 C14.23394367 14.17418324 14.23394367 14.17418324 14.0625 11.4375 C11.33744398 5.18590089 5.97750011 3.40121799 0 1 C0 0.67 0 0.34 0 0 Z " fill="#31B145" transform="translate(50,12)"/>
<path d="M0 0 C0.99 0 1.98 0 3 0 C2.67 1.65 2.34 3.3 2 5 C2.639375 4.814375 3.27875 4.62875 3.9375 4.4375 C4.618125 4.293125 5.29875 4.14875 6 4 C7 5 7 5 7.09765625 6.84765625 C7.06510417 8.8984375 7.03255208 10.94921875 7 13 C6.01 13.33 5.02 13.66 4 14 C4.33 11.36 4.66 8.72 5 6 C1.68539295 7.70892499 1.68539295 7.70892499 1.3125 11.125 C1.1578125 12.548125 1.1578125 12.548125 1 14 C-0.64574566 14.02688151 -2.29161413 14.04634123 -3.9375 14.0625 C-4.85402344 14.07410156 -5.77054688 14.08570313 -6.71484375 14.09765625 C-9 14 -9 14 -10 13 C-9.4 6.4 -9.4 6.4 -7 4 C-3.875 3.875 -3.875 3.875 -1 4 C-0.67 2.68 -0.34 1.36 0 0 Z " fill="#DCEBF2" transform="translate(21,17)"/>
<path d="M0 0 C0.66 0 1.32 0 2 0 C2 2.31 2 4.62 2 7 C2.66 6.01 3.32 5.02 4 4 C4.99 4 5.98 4 7 4 C7 4.66 7 5.32 7 6 C6.01 6.495 6.01 6.495 5 7 C5.33 9.31 5.66 11.62 6 14 C5.01 14 4.02 14 3 14 C2.34 13.01 1.68 12.02 1 11 C0.67 11.99 0.34 12.98 0 14 C-1.47906892 14.02689216 -2.95827483 14.04634621 -4.4375 14.0625 C-5.67306641 14.07990234 -5.67306641 14.07990234 -6.93359375 14.09765625 C-9 14 -9 14 -10 13 C-10.4556962 7.75949367 -10.4556962 7.75949367 -8.875 5.125 C-6.21965017 3.5317901 -4.03210482 3.79785968 -1 4 C-0.67 2.68 -0.34 1.36 0 0 Z " fill="#ECF4F8" transform="translate(50,17)"/>
<path d="M0 0 C0.763125 0.0825 1.52625 0.165 2.3125 0.25 C2.9375 2.125 2.9375 2.125 3.3125 4.25 C2.6525 4.91 1.9925 5.57 1.3125 6.25 C-0.0075 6.25 -1.3275 6.25 -2.6875 6.25 C-2.6875 6.91 -2.6875 7.57 -2.6875 8.25 C-1.0375 8.25 0.6125 8.25 2.3125 8.25 C2.3125 8.91 2.3125 9.57 2.3125 10.25 C0.0025 10.25 -2.3075 10.25 -4.6875 10.25 C-6.01477273 4.94090909 -6.01477273 4.94090909 -4.5625 1.875 C-2.6875 0.25 -2.6875 0.25 0 0 Z " fill="#4CBA5D" transform="translate(6.6875,20.75)"/>
<path d="M0 0 C0.66 0 1.32 0 2 0 C2 2.31 2 4.62 2 7 C2.66 6.01 3.32 5.02 4 4 C4.99 4 5.98 4 7 4 C7 4.66 7 5.32 7 6 C6.01 6.495 6.01 6.495 5 7 C5.33 9.31 5.66 11.62 6 14 C5.01 14 4.02 14 3 14 C2.34 13.01 1.68 12.02 1 11 C0.67 11.99 0.34 12.98 0 14 C-0.66 14 -1.32 14 -2 14 C-1.85795259 12.41632253 -1.71119847 10.83306682 -1.5625 9.25 C-1.48128906 8.36828125 -1.40007813 7.4865625 -1.31640625 6.578125 C-1.03761535 4.30649548 -0.61209423 2.20148177 0 0 Z " fill="#1B7BAA" transform="translate(50,17)"/>
<path d="M0 0 C0.86625 0.3403125 0.86625 0.3403125 1.75 0.6875 C1.42 2.3375 1.09 3.9875 0.75 5.6875 C-0.57 6.0175 -1.89 6.3475 -3.25 6.6875 C-1.93 7.0175 -0.61 7.3475 0.75 7.6875 C0.75 8.3475 0.75 9.0075 0.75 9.6875 C-1.24954746 9.73004356 -3.25041636 9.72830783 -5.25 9.6875 C-6.25 8.6875 -6.25 8.6875 -6.5625 5.8125 C-6.25 2.6875 -6.25 2.6875 -4.5 0.75 C-2.25 -0.3125 -2.25 -0.3125 0 0 Z " fill="#3688B2" transform="translate(36.25,21.3125)"/>
<path d="M0 0 C0.99 0 1.98 0 3 0 C2.67 1.65 2.34 3.3 2 5 C2.9590625 4.7215625 2.9590625 4.7215625 3.9375 4.4375 C4.618125 4.293125 5.29875 4.14875 6 4 C7 5 7 5 7.09765625 6.84765625 C7.04882812 9.92382812 7.04882812 9.92382812 7 13 C6.01 13.33 5.02 13.66 4 14 C4.33 11.36 4.66 8.72 5 6 C1.68539295 7.70892499 1.68539295 7.70892499 1.3125 11.125 C1.209375 12.07375 1.10625 13.0225 1 14 C0.01 14 -0.98 14 -2 14 C-1.34 9.38 -0.68 4.76 0 0 Z " fill="#217CAA" transform="translate(21,17)"/>
<path d="M0 0 C-1.98 0.33 -3.96 0.66 -6 1 C-6.33 1.99 -6.66 2.98 -7 4 C-9.58361518 4.05407567 -12.16609255 4.093707 -14.75 4.125 C-15.47960938 4.14175781 -16.20921875 4.15851562 -16.9609375 4.17578125 C-20.92072996 4.21177936 -23.5646681 3.93153875 -27 2 C-26.11477661 1.91697632 -26.11477661 1.91697632 -25.21166992 1.83227539 C-22.53658792 1.57932313 -19.86205397 1.320973 -17.1875 1.0625 C-16.25873047 0.97548828 -15.32996094 0.88847656 -14.37304688 0.79882812 C-13.0340332 0.66831055 -13.0340332 0.66831055 -11.66796875 0.53515625 C-10.84578857 0.456604 -10.0236084 0.37805176 -9.17651367 0.29711914 C-2.13845128 -0.6636573 -2.13845128 -0.6636573 0 0 Z " fill="#55BE65" transform="translate(56,35)"/>
<path d="M0 0 C0.78375 0.04125 1.5675 0.0825 2.375 0.125 C2.375 0.785 2.375 1.445 2.375 2.125 C0.725 2.785 -0.925 3.445 -2.625 4.125 C-2.625 5.115 -2.625 6.105 -2.625 7.125 C-1.635 7.455 -0.645 7.785 0.375 8.125 C0.375 8.785 0.375 9.445 0.375 10.125 C-1.29111905 10.167721 -2.95882885 10.16563832 -4.625 10.125 C-4.955 9.795 -5.285 9.465 -5.625 9.125 C-4.81630435 0.22934783 -4.81630435 0.22934783 0 0 Z " fill="#187AA9" transform="translate(16.625,20.875)"/>
<path d="M0 0 C0 0.66 0 1.32 0 2 C-0.639375 2.2475 -1.27875 2.495 -1.9375 2.75 C-4.18741541 3.81562433 -4.18741541 3.81562433 -4.75 6.125 C-4.8325 6.74375 -4.915 7.3625 -5 8 C-3.68 8 -2.36 8 -1 8 C-1 8.66 -1 9.32 -1 10 C-2.66611905 10.042721 -4.33382885 10.04063832 -6 10 C-7 9 -7 9 -7.25 6.125 C-7 3 -7 3 -5.75 1.125 C-4 0 -4 0 0 0 Z " fill="#1B76A7" transform="translate(47,21)"/>
<path d="M0 0 C5.86809507 0.52393706 10.54873741 1.76108858 16 4 C13 6 13 6 11.109375 5.75390625 C8.76636073 4.91649559 6.51415132 3.96968663 4.25 2.9375 C3.45078125 2.57527344 2.6515625 2.21304687 1.828125 1.83984375 C1.22484375 1.56269531 0.6215625 1.28554687 0 1 C0 0.67 0 0.34 0 0 Z " fill="#4ABA5B" transform="translate(50,12)"/>
<path d="M0 0 C1.65 0 3.3 0 5 0 C5.625 1.875 5.625 1.875 6 4 C5.34 4.66 4.68 5.32 4 6 C1.875 5.625 1.875 5.625 0 5 C0.99 4.67 1.98 4.34 3 4 C3 3.34 3 2.68 3 2 C1.02 2.99 1.02 2.99 -1 4 C-0.67 2.68 -0.34 1.36 0 0 Z " fill="#2FAF42" transform="translate(4,21)"/>
<path d="M0 0 C0.99 0 1.98 0 3 0 C3 0.66 3 1.32 3 2 C2.01 2.495 2.01 2.495 1 3 C1.33 5.31 1.66 7.62 2 10 C1.01 10 0.02 10 -1 10 C-2.25 3.375 -2.25 3.375 0 0 Z " fill="#2B80AD" transform="translate(54,21)"/>
<path d="M0 0 C0.66 0 1.32 0 2 0 C2 0.99 2 1.98 2 3 C2.99 3.33 3.98 3.66 5 4 C1.7 4.33 -1.6 4.66 -5 5 C-5 4.34 -5 3.68 -5 3 C-3.35 2.34 -1.7 1.68 0 1 C0 0.67 0 0.34 0 0 Z " fill="#41B753" transform="translate(55,33)"/>
<path d="M0 0 C0.33 0 0.66 0 1 0 C1 2.64 1 5.28 1 8 C0.01 8.33 -0.98 8.66 -2 9 C-1.125 1.125 -1.125 1.125 0 0 Z " fill="#1575A6" transform="translate(27,22)"/>
<path d="M0 0 C1.2065625 0.0309375 1.2065625 0.0309375 2.4375 0.0625 C2.4375 0.7225 2.4375 1.3825 2.4375 2.0625 C1.261875 2.495625 1.261875 2.495625 0.0625 2.9375 C-2.65921632 3.91162254 -2.65921632 3.91162254 -4.5625 6.0625 C-3.48963568 0.08511307 -3.48963568 0.08511307 0 0 Z " fill="#2C7FAC" transform="translate(16.5625,20.9375)"/>
</svg>
