<?xml version="1.0" encoding="UTF-8"?>
<svg version="1.1" xmlns="http://www.w3.org/2000/svg" width="74" height="50">
<path d="M0 0 C1.33612266 -0.66105859 2.66910862 -1.32847163 4 -2 C10.79223708 -2.97844621 15.50758567 -2.0643866 21 2 C25.57309632 6.93413024 26.35752013 10.8895239 26.28125 17.4296875 C25.71326915 22.62040135 23.25278632 25.83888097 19.4375 29.375 C14.55338439 32.63107707 9.67971101 32.39873166 4 32 C2 31.33333333 0 30.66666667 -2 30 C-3.33612266 30.66105859 -4.66910862 31.32847163 -6 32 C-12.79223708 32.97844621 -17.50758567 32.0643866 -23 28 C-27.52057518 23.12253731 -28.42507295 19.12360782 -28.33984375 12.63671875 C-27.6866649 7.56895181 -25.21410852 3.98932593 -21.4609375 0.6171875 C-14.67763717 -3.98002552 -7.296393 -2.432131 0 0 Z " fill="#F79E1B" transform="translate(38,10)"/>
<path d="M0 0 C0.61875 0.495 1.2375 0.99 1.875 1.5 C0.7979468 3.73695664 -0.26358457 5.68655616 -1.75 7.6875 C-3.70545066 11.68728543 -3.81661637 15.12461645 -3.125 19.5 C-2.23580799 21.72105537 -1.21879688 23.71671776 0 25.7734375 C0.875 27.5 0.875 27.5 0.875 30.5 C-3.71055462 33.13537622 -7.95231175 33.14558975 -13.125 32.5 C-17.98354164 30.80088808 -21.28768098 27.75597852 -24.125 23.5 C-25.7978747 18.48137589 -26.15847349 13.22039882 -24.25390625 8.20703125 C-19.08076123 -0.83325168 -9.77771967 -4.69330544 0 0 Z " fill="#EB001A" transform="translate(35.125,9.5)"/>
<path d="M0 0 C0.99 0 1.98 0 3 0 C6.64787652 5.35781864 8.15315072 9.5024392 7 16 C5.88965363 18.88115739 4.56169816 21.31583129 3 24 C1.68 24 0.36 24 -1 24 C-4.32175805 18.29072834 -6.26562387 13.65988486 -5 7 C-3.73978704 4.29873635 -2.12029242 2.12029242 0 0 Z " fill="#FE5F00" transform="translate(36,13)"/>
</svg>
